<ttFont>
<head>
    <!-- Most of this table will be recalculated by the compiler -->
    <tableVersion value="1.0"/>
    <fontRevision value="5.0"/>
    <checkSumAdjustment value="0xc2c18b44"/>
    <magicNumber value="0x5f0f3cf5"/>
    <flags value="00000000 00001011"/>
    <unitsPerEm value="2048"/>
    <created value="Sun May 15 08:57:39 2005"/>
    <modified value="Thu Apr 14 12:55:09 2011"/>
    <xMin value="-153"/>
    <yMin value="-996"/>
    <xMax value="6800"/>
    <yMax value="2286"/>
    <macStyle value="00000000 00000000"/>
    <lowestRecPPEM value="8"/>
    <fontDirectionHint value="2"/>
    <indexToLocFormat value="1"/>
    <glyphDataFormat value="0"/>
  </head>
    <TTGlyph name=".notdef" xMin="142" yMin="226" xMax="842" yMax="1588">
      <contour>
        <pt x="142" y="226" on="1"/>
        <pt x="142" y="1588" on="1"/>
        <pt x="842" y="1588" on="1"/>
        <pt x="842" y="226" on="1"/>
      </contour>
      <contour>
        <pt x="284" y="368" on="1"/>
        <pt x="700" y="368" on="1"/>
        <pt x="700" y="1447" on="1"/>
        <pt x="284" y="1447" on="1"/>
      </contour>
    </TTGlyph>
    <TTGlyph name=".null" xMin="142" yMin="226" xMax="842" yMax="1588">
      <contour>
        <pt x="142" y="226" on="1"/>
        <pt x="142" y="1588" on="1"/>
        <pt x="842" y="1588" on="1"/>
        <pt x="842" y="226" on="1"/>
      </contour>
      <contour>
        <pt x="284" y="368" on="1"/>
        <pt x="700" y="368" on="1"/>
        <pt x="700" y="1447" on="1"/>
        <pt x="284" y="1447" on="1"/>
      </contour>
    </TTGlyph>
    <TTGlyph name="afii57381" xMin="142" yMin="226" xMax="842" yMax="1588">
      <contour>
        <pt x="142" y="226" on="1"/>
        <pt x="142" y="1588" on="1"/>
        <pt x="842" y="1588" on="1"/>
        <pt x="842" y="226" on="1"/>
      </contour>
      <contour>
        <pt x="284" y="368" on="1"/>
        <pt x="700" y="368" on="1"/>
        <pt x="700" y="1447" on="1"/>
        <pt x="284" y="1447" on="1"/>
      </contour>
    </TTGlyph>
    <TTGlyph name="afii57388" xMin="142" yMin="226" xMax="842" yMax="1588">
      <contour>
        <pt x="142" y="226" on="1"/>
        <pt x="142" y="1588" on="1"/>
        <pt x="842" y="1588" on="1"/>
        <pt x="842" y="226" on="1"/>
      </contour>
      <contour>
        <pt x="284" y="368" on="1"/>
        <pt x="700" y="368" on="1"/>
        <pt x="700" y="1447" on="1"/>
        <pt x="284" y="1447" on="1"/>
      </contour>
    </TTGlyph>
    <TTGlyph name="afii57396" xMin="142" yMin="226" xMax="842" yMax="1588">
      <contour>
        <pt x="142" y="226" on="1"/>
        <pt x="142" y="1588" on="1"/>
        <pt x="842" y="1588" on="1"/>
        <pt x="842" y="226" on="1"/>
      </contour>
      <contour>
        <pt x="284" y="368" on="1"/>
        <pt x="700" y="368" on="1"/>
        <pt x="700" y="1447" on="1"/>
        <pt x="284" y="1447" on="1"/>
      </contour>
    </TTGlyph>
    <TTGlyph name="afii57397" xMin="142" yMin="226" xMax="842" yMax="1588">
      <contour>
        <pt x="142" y="226" on="1"/>
        <pt x="142" y="1588" on="1"/>
        <pt x="842" y="1588" on="1"/>
        <pt x="842" y="226" on="1"/>
      </contour>
      <contour>
        <pt x="284" y="368" on="1"/>
        <pt x="700" y="368" on="1"/>
        <pt x="700" y="1447" on="1"/>
        <pt x="284" y="1447" on="1"/>
      </contour>
    </TTGlyph>
    <TTGlyph name="afii57398" xMin="142" yMin="226" xMax="842" yMax="1588">
      <contour>
        <pt x="142" y="226" on="1"/>
        <pt x="142" y="1588" on="1"/>
        <pt x="842" y="1588" on="1"/>
        <pt x="842" y="226" on="1"/>
      </contour>
      <contour>
        <pt x="284" y="368" on="1"/>
        <pt x="700" y="368" on="1"/>
        <pt x="700" y="1447" on="1"/>
        <pt x="284" y="1447" on="1"/>
      </contour>
    </TTGlyph>
    <TTGlyph name="afii57403" xMin="142" yMin="226" xMax="842" yMax="1588">
      <contour>
        <pt x="142" y="226" on="1"/>
        <pt x="142" y="1588" on="1"/>
        <pt x="842" y="1588" on="1"/>
        <pt x="842" y="226" on="1"/>
      </contour>
      <contour>
        <pt x="284" y="368" on="1"/>
        <pt x="700" y="368" on="1"/>
        <pt x="700" y="1447" on="1"/>
        <pt x="284" y="1447" on="1"/>
      </contour>
    </TTGlyph>
    <TTGlyph name="afii57407" xMin="142" yMin="226" xMax="842" yMax="1588">
      <contour>
        <pt x="142" y="226" on="1"/>
        <pt x="142" y="1588" on="1"/>
        <pt x="842" y="1588" on="1"/>
        <pt x="842" y="226" on="1"/>
      </contour>
      <contour>
        <pt x="284" y="368" on="1"/>
        <pt x="700" y="368" on="1"/>
        <pt x="700" y="1447" on="1"/>
        <pt x="284" y="1447" on="1"/>
      </contour>
    </TTGlyph>
    <TTGlyph name="afii57440" xMin="142" yMin="226" xMax="842" yMax="1588">
      <contour>
        <pt x="142" y="226" on="1"/>
        <pt x="142" y="1588" on="1"/>
        <pt x="842" y="1588" on="1"/>
        <pt x="842" y="226" on="1"/>
      </contour>
      <contour>
        <pt x="284" y="368" on="1"/>
        <pt x="700" y="368" on="1"/>
        <pt x="700" y="1447" on="1"/>
        <pt x="284" y="1447" on="1"/>
      </contour>
    </TTGlyph>
    <TTGlyph name="afii57451" xMin="142" yMin="226" xMax="842" yMax="1588">
      <contour>
        <pt x="142" y="226" on="1"/>
        <pt x="142" y="1588" on="1"/>
        <pt x="842" y="1588" on="1"/>
        <pt x="842" y="226" on="1"/>
      </contour>
      <contour>
        <pt x="284" y="368" on="1"/>
        <pt x="700" y="368" on="1"/>
        <pt x="700" y="1447" on="1"/>
        <pt x="284" y="1447" on="1"/>
      </contour>
    </TTGlyph>
    <TTGlyph name="afii57452" xMin="142" yMin="226" xMax="842" yMax="1588">
      <contour>
        <pt x="142" y="226" on="1"/>
        <pt x="142" y="1588" on="1"/>
        <pt x="842" y="1588" on="1"/>
        <pt x="842" y="226" on="1"/>
      </contour>
      <contour>
        <pt x="284" y="368" on="1"/>
        <pt x="700" y="368" on="1"/>
        <pt x="700" y="1447" on="1"/>
        <pt x="284" y="1447" on="1"/>
      </contour>
    </TTGlyph>
    <TTGlyph name="afii57453" xMin="142" yMin="226" xMax="842" yMax="1588">
      <contour>
        <pt x="142" y="226" on="1"/>
        <pt x="142" y="1588" on="1"/>
        <pt x="842" y="1588" on="1"/>
        <pt x="842" y="226" on="1"/>
      </contour>
      <contour>
        <pt x="284" y="368" on="1"/>
        <pt x="700" y="368" on="1"/>
        <pt x="700" y="1447" on="1"/>
        <pt x="284" y="1447" on="1"/>
      </contour>
    </TTGlyph>
    <TTGlyph name="afii57454" xMin="142" yMin="226" xMax="842" yMax="1588">
      <contour>
        <pt x="142" y="226" on="1"/>
        <pt x="142" y="1588" on="1"/>
        <pt x="842" y="1588" on="1"/>
        <pt x="842" y="226" on="1"/>
      </contour>
      <contour>
        <pt x="284" y="368" on="1"/>
        <pt x="700" y="368" on="1"/>
        <pt x="700" y="1447" on="1"/>
        <pt x="284" y="1447" on="1"/>
      </contour>
    </TTGlyph>
    <TTGlyph name="afii57455" xMin="142" yMin="226" xMax="842" yMax="1588">
      <contour>
        <pt x="142" y="226" on="1"/>
        <pt x="142" y="1588" on="1"/>
        <pt x="842" y="1588" on="1"/>
        <pt x="842" y="226" on="1"/>
      </contour>
      <contour>
        <pt x="284" y="368" on="1"/>
        <pt x="700" y="368" on="1"/>
        <pt x="700" y="1447" on="1"/>
        <pt x="284" y="1447" on="1"/>
      </contour>
    </TTGlyph>
    <TTGlyph name="afii57456" xMin="142" yMin="226" xMax="842" yMax="1588">
      <contour>
        <pt x="142" y="226" on="1"/>
        <pt x="142" y="1588" on="1"/>
        <pt x="842" y="1588" on="1"/>
        <pt x="842" y="226" on="1"/>
      </contour>
      <contour>
        <pt x="284" y="368" on="1"/>
        <pt x="700" y="368" on="1"/>
        <pt x="700" y="1447" on="1"/>
        <pt x="284" y="1447" on="1"/>
      </contour>
    </TTGlyph>
    <TTGlyph name="afii57457" xMin="142" yMin="226" xMax="842" yMax="1588">
      <contour>
        <pt x="142" y="226" on="1"/>
        <pt x="142" y="1588" on="1"/>
        <pt x="842" y="1588" on="1"/>
        <pt x="842" y="226" on="1"/>
      </contour>
      <contour>
        <pt x="284" y="368" on="1"/>
        <pt x="700" y="368" on="1"/>
        <pt x="700" y="1447" on="1"/>
        <pt x="284" y="1447" on="1"/>
      </contour>
    </TTGlyph>
    <TTGlyph name="afii57458" xMin="142" yMin="226" xMax="842" yMax="1588">
      <contour>
        <pt x="142" y="226" on="1"/>
        <pt x="142" y="1588" on="1"/>
        <pt x="842" y="1588" on="1"/>
        <pt x="842" y="226" on="1"/>
      </contour>
      <contour>
        <pt x="284" y="368" on="1"/>
        <pt x="700" y="368" on="1"/>
        <pt x="700" y="1447" on="1"/>
        <pt x="284" y="1447" on="1"/>
      </contour>
    </TTGlyph>
    <TTGlyph name="afii57505" xMin="142" yMin="226" xMax="842" yMax="1588">
      <contour>
        <pt x="142" y="226" on="1"/>
        <pt x="142" y="1588" on="1"/>
        <pt x="842" y="1588" on="1"/>
        <pt x="842" y="226" on="1"/>
      </contour>
      <contour>
        <pt x="284" y="368" on="1"/>
        <pt x="700" y="368" on="1"/>
        <pt x="700" y="1447" on="1"/>
        <pt x="284" y="1447" on="1"/>
      </contour>
    </TTGlyph>
    <TTGlyph name="afii57506" xMin="142" yMin="226" xMax="842" yMax="1588">
      <contour>
        <pt x="142" y="226" on="1"/>
        <pt x="142" y="1588" on="1"/>
        <pt x="842" y="1588" on="1"/>
        <pt x="842" y="226" on="1"/>
      </contour>
      <contour>
        <pt x="284" y="368" on="1"/>
        <pt x="700" y="368" on="1"/>
        <pt x="700" y="1447" on="1"/>
        <pt x="284" y="1447" on="1"/>
      </contour>
    </TTGlyph>
    <TTGlyph name="afii57507" xMin="142" yMin="226" xMax="842" yMax="1588">
      <contour>
        <pt x="142" y="226" on="1"/>
        <pt x="142" y="1588" on="1"/>
        <pt x="842" y="1588" on="1"/>
        <pt x="842" y="226" on="1"/>
      </contour>
      <contour>
        <pt x="284" y="368" on="1"/>
        <pt x="700" y="368" on="1"/>
        <pt x="700" y="1447" on="1"/>
        <pt x="284" y="1447" on="1"/>
      </contour>
    </TTGlyph>
    <TTGlyph name="afii57508" xMin="142" yMin="226" xMax="842" yMax="1588">
      <contour>
        <pt x="142" y="226" on="1"/>
        <pt x="142" y="1588" on="1"/>
        <pt x="842" y="1588" on="1"/>
        <pt x="842" y="226" on="1"/>
      </contour>
      <contour>
        <pt x="284" y="368" on="1"/>
        <pt x="700" y="368" on="1"/>
        <pt x="700" y="1447" on="1"/>
        <pt x="284" y="1447" on="1"/>
      </contour>
    </TTGlyph>
    <TTGlyph name="afii57509" xMin="142" yMin="226" xMax="842" yMax="1588">
      <contour>
        <pt x="142" y="226" on="1"/>
        <pt x="142" y="1588" on="1"/>
        <pt x="842" y="1588" on="1"/>
        <pt x="842" y="226" on="1"/>
      </contour>
      <contour>
        <pt x="284" y="368" on="1"/>
        <pt x="700" y="368" on="1"/>
        <pt x="700" y="1447" on="1"/>
        <pt x="284" y="1447" on="1"/>
      </contour>
    </TTGlyph>
    <TTGlyph name="afii57511" xMin="142" yMin="226" xMax="842" yMax="1588">
      <contour>
        <pt x="142" y="226" on="1"/>
        <pt x="142" y="1588" on="1"/>
        <pt x="842" y="1588" on="1"/>
        <pt x="842" y="226" on="1"/>
      </contour>
      <contour>
        <pt x="284" y="368" on="1"/>
        <pt x="700" y="368" on="1"/>
        <pt x="700" y="1447" on="1"/>
        <pt x="284" y="1447" on="1"/>
      </contour>
    </TTGlyph>
    <TTGlyph name="afii57512" xMin="142" yMin="226" xMax="842" yMax="1588">
      <contour>
        <pt x="142" y="226" on="1"/>
        <pt x="142" y="1588" on="1"/>
        <pt x="842" y="1588" on="1"/>
        <pt x="842" y="226" on="1"/>
      </contour>
      <contour>
        <pt x="284" y="368" on="1"/>
        <pt x="700" y="368" on="1"/>
        <pt x="700" y="1447" on="1"/>
        <pt x="284" y="1447" on="1"/>
      </contour>
    </TTGlyph>
    <TTGlyph name="afii57513" xMin="142" yMin="226" xMax="842" yMax="1588">
      <contour>
        <pt x="142" y="226" on="1"/>
        <pt x="142" y="1588" on="1"/>
        <pt x="842" y="1588" on="1"/>
        <pt x="842" y="226" on="1"/>
      </contour>
      <contour>
        <pt x="284" y="368" on="1"/>
        <pt x="700" y="368" on="1"/>
        <pt x="700" y="1447" on="1"/>
        <pt x="284" y="1447" on="1"/>
      </contour>
    </TTGlyph>
    <TTGlyph name="afii57514" xMin="142" yMin="226" xMax="842" yMax="1588">
      <contour>
        <pt x="142" y="226" on="1"/>
        <pt x="142" y="1588" on="1"/>
        <pt x="842" y="1588" on="1"/>
        <pt x="842" y="226" on="1"/>
      </contour>
      <contour>
        <pt x="284" y="368" on="1"/>
        <pt x="700" y="368" on="1"/>
        <pt x="700" y="1447" on="1"/>
        <pt x="284" y="1447" on="1"/>
      </contour>
    </TTGlyph>
    <TTGlyph name="afii57519" xMin="142" yMin="226" xMax="842" yMax="1588">
      <contour>
        <pt x="142" y="226" on="1"/>
        <pt x="142" y="1588" on="1"/>
        <pt x="842" y="1588" on="1"/>
        <pt x="842" y="226" on="1"/>
      </contour>
      <contour>
        <pt x="284" y="368" on="1"/>
        <pt x="700" y="368" on="1"/>
        <pt x="700" y="1447" on="1"/>
        <pt x="284" y="1447" on="1"/>
      </contour>
    </TTGlyph>
    <TTGlyph name="afii57534" xMin="142" yMin="226" xMax="842" yMax="1588">
      <contour>
        <pt x="142" y="226" on="1"/>
        <pt x="142" y="1588" on="1"/>
        <pt x="842" y="1588" on="1"/>
        <pt x="842" y="226" on="1"/>
      </contour>
      <contour>
        <pt x="284" y="368" on="1"/>
        <pt x="700" y="368" on="1"/>
        <pt x="700" y="1447" on="1"/>
        <pt x="284" y="1447" on="1"/>
      </contour>
    </TTGlyph>
    <TTGlyph name="afii63167" xMin="142" yMin="226" xMax="842" yMax="1588">
      <contour>
        <pt x="142" y="226" on="1"/>
        <pt x="142" y="1588" on="1"/>
        <pt x="842" y="1588" on="1"/>
        <pt x="842" y="226" on="1"/>
      </contour>
      <contour>
        <pt x="284" y="368" on="1"/>
        <pt x="700" y="368" on="1"/>
        <pt x="700" y="1447" on="1"/>
        <pt x="284" y="1447" on="1"/>
      </contour>
    </TTGlyph>
    <TTGlyph name="alefmaksurainitial" xMin="142" yMin="226" xMax="842" yMax="1588">
      <contour>
        <pt x="142" y="226" on="1"/>
        <pt x="142" y="1588" on="1"/>
        <pt x="842" y="1588" on="1"/>
        <pt x="842" y="226" on="1"/>
      </contour>
      <contour>
        <pt x="284" y="368" on="1"/>
        <pt x="700" y="368" on="1"/>
        <pt x="700" y="1447" on="1"/>
        <pt x="284" y="1447" on="1"/>
      </contour>
    </TTGlyph>
    <TTGlyph name="alefwaslafinalarabic" xMin="142" yMin="226" xMax="842" yMax="1588">
      <contour>
        <pt x="142" y="226" on="1"/>
        <pt x="142" y="1588" on="1"/>
        <pt x="842" y="1588" on="1"/>
        <pt x="842" y="226" on="1"/>
      </contour>
      <contour>
        <pt x="284" y="368" on="1"/>
        <pt x="700" y="368" on="1"/>
        <pt x="700" y="1447" on="1"/>
        <pt x="284" y="1447" on="1"/>
      </contour>
    </TTGlyph>
    <TTGlyph name="ampersand" xMin="142" yMin="226" xMax="842" yMax="1588">
      <contour>
        <pt x="142" y="226" on="1"/>
        <pt x="142" y="1588" on="1"/>
        <pt x="842" y="1588" on="1"/>
        <pt x="842" y="226" on="1"/>
      </contour>
      <contour>
        <pt x="284" y="368" on="1"/>
        <pt x="700" y="368" on="1"/>
        <pt x="700" y="1447" on="1"/>
        <pt x="284" y="1447" on="1"/>
      </contour>
    </TTGlyph>
    <TTGlyph name="asterisk" xMin="142" yMin="226" xMax="842" yMax="1588">
      <contour>
        <pt x="142" y="226" on="1"/>
        <pt x="142" y="1588" on="1"/>
        <pt x="842" y="1588" on="1"/>
        <pt x="842" y="226" on="1"/>
      </contour>
      <contour>
        <pt x="284" y="368" on="1"/>
        <pt x="700" y="368" on="1"/>
        <pt x="700" y="1447" on="1"/>
        <pt x="284" y="1447" on="1"/>
      </contour>
    </TTGlyph>
    <TTGlyph name="behmeemisolatedarabic" xMin="142" yMin="226" xMax="842" yMax="1588">
      <contour>
        <pt x="142" y="226" on="1"/>
        <pt x="142" y="1588" on="1"/>
        <pt x="842" y="1588" on="1"/>
        <pt x="842" y="226" on="1"/>
      </contour>
      <contour>
        <pt x="284" y="368" on="1"/>
        <pt x="700" y="368" on="1"/>
        <pt x="700" y="1447" on="1"/>
        <pt x="284" y="1447" on="1"/>
      </contour>
    </TTGlyph>
    <TTGlyph name="behnoonfinalarabic" xMin="142" yMin="226" xMax="842" yMax="1588">
      <contour>
        <pt x="142" y="226" on="1"/>
        <pt x="142" y="1588" on="1"/>
        <pt x="842" y="1588" on="1"/>
        <pt x="842" y="226" on="1"/>
      </contour>
      <contour>
        <pt x="284" y="368" on="1"/>
        <pt x="700" y="368" on="1"/>
        <pt x="700" y="1447" on="1"/>
        <pt x="284" y="1447" on="1"/>
      </contour>
    </TTGlyph>
    <TTGlyph name="colon" xMin="142" yMin="226" xMax="842" yMax="1588">
      <contour>
        <pt x="142" y="226" on="1"/>
        <pt x="142" y="1588" on="1"/>
        <pt x="842" y="1588" on="1"/>
        <pt x="842" y="226" on="1"/>
      </contour>
      <contour>
        <pt x="284" y="368" on="1"/>
        <pt x="700" y="368" on="1"/>
        <pt x="700" y="1447" on="1"/>
        <pt x="284" y="1447" on="1"/>
      </contour>
    </TTGlyph>
    <TTGlyph name="dagger" xMin="142" yMin="226" xMax="842" yMax="1588">
      <contour>
        <pt x="142" y="226" on="1"/>
        <pt x="142" y="1588" on="1"/>
        <pt x="842" y="1588" on="1"/>
        <pt x="842" y="226" on="1"/>
      </contour>
      <contour>
        <pt x="284" y="368" on="1"/>
        <pt x="700" y="368" on="1"/>
        <pt x="700" y="1447" on="1"/>
        <pt x="284" y="1447" on="1"/>
      </contour>
    </TTGlyph>
    <TTGlyph name="dalringfinal" xMin="142" yMin="226" xMax="842" yMax="1588">
      <contour>
        <pt x="142" y="226" on="1"/>
        <pt x="142" y="1588" on="1"/>
        <pt x="842" y="1588" on="1"/>
        <pt x="842" y="226" on="1"/>
      </contour>
      <contour>
        <pt x="284" y="368" on="1"/>
        <pt x="700" y="368" on="1"/>
        <pt x="700" y="1447" on="1"/>
        <pt x="284" y="1447" on="1"/>
      </contour>
    </TTGlyph>
    <TTGlyph name="ddalfinalarabic" xMin="142" yMin="226" xMax="842" yMax="1588">
      <contour>
        <pt x="142" y="226" on="1"/>
        <pt x="142" y="1588" on="1"/>
        <pt x="842" y="1588" on="1"/>
        <pt x="842" y="226" on="1"/>
      </contour>
      <contour>
        <pt x="284" y="368" on="1"/>
        <pt x="700" y="368" on="1"/>
        <pt x="700" y="1447" on="1"/>
        <pt x="284" y="1447" on="1"/>
      </contour>
    </TTGlyph>
    <TTGlyph name="divide" xMin="142" yMin="226" xMax="842" yMax="1588">
      <contour>
        <pt x="142" y="226" on="1"/>
        <pt x="142" y="1588" on="1"/>
        <pt x="842" y="1588" on="1"/>
        <pt x="842" y="226" on="1"/>
      </contour>
      <contour>
        <pt x="284" y="368" on="1"/>
        <pt x="700" y="368" on="1"/>
        <pt x="700" y="1447" on="1"/>
        <pt x="284" y="1447" on="1"/>
      </contour>
    </TTGlyph>
    <TTGlyph name="dollar" xMin="142" yMin="226" xMax="842" yMax="1588">
      <contour>
        <pt x="142" y="226" on="1"/>
        <pt x="142" y="1588" on="1"/>
        <pt x="842" y="1588" on="1"/>
        <pt x="842" y="226" on="1"/>
      </contour>
      <contour>
        <pt x="284" y="368" on="1"/>
        <pt x="700" y="368" on="1"/>
        <pt x="700" y="1447" on="1"/>
        <pt x="284" y="1447" on="1"/>
      </contour>
    </TTGlyph>
    <TTGlyph name="dotlessyehfinalarabic" xMin="142" yMin="226" xMax="842" yMax="1588">
      <contour>
        <pt x="142" y="226" on="1"/>
        <pt x="142" y="1588" on="1"/>
        <pt x="842" y="1588" on="1"/>
        <pt x="842" y="226" on="1"/>
      </contour>
      <contour>
        <pt x="284" y="368" on="1"/>
        <pt x="700" y="368" on="1"/>
        <pt x="700" y="1447" on="1"/>
        <pt x="284" y="1447" on="1"/>
      </contour>
    </TTGlyph>
    <TTGlyph name="dotlessyehinitialarabic" xMin="142" yMin="226" xMax="842" yMax="1588">
      <contour>
        <pt x="142" y="226" on="1"/>
        <pt x="142" y="1588" on="1"/>
        <pt x="842" y="1588" on="1"/>
        <pt x="842" y="226" on="1"/>
      </contour>
      <contour>
        <pt x="284" y="368" on="1"/>
        <pt x="700" y="368" on="1"/>
        <pt x="700" y="1447" on="1"/>
        <pt x="284" y="1447" on="1"/>
      </contour>
    </TTGlyph>
    <TTGlyph name="dotlessyehmedialarabic" xMin="142" yMin="226" xMax="842" yMax="1588">
      <contour>
        <pt x="142" y="226" on="1"/>
        <pt x="142" y="1588" on="1"/>
        <pt x="842" y="1588" on="1"/>
        <pt x="842" y="226" on="1"/>
      </contour>
      <contour>
        <pt x="284" y="368" on="1"/>
        <pt x="700" y="368" on="1"/>
        <pt x="700" y="1447" on="1"/>
        <pt x="284" y="1447" on="1"/>
      </contour>
    </TTGlyph>
    <TTGlyph name="elefmaksuramedial" xMin="142" yMin="226" xMax="842" yMax="1588">
      <contour>
        <pt x="142" y="226" on="1"/>
        <pt x="142" y="1588" on="1"/>
        <pt x="842" y="1588" on="1"/>
        <pt x="842" y="226" on="1"/>
      </contour>
      <contour>
        <pt x="284" y="368" on="1"/>
        <pt x="700" y="368" on="1"/>
        <pt x="700" y="1447" on="1"/>
        <pt x="284" y="1447" on="1"/>
      </contour>
    </TTGlyph>
    <TTGlyph name="ellipsis" xMin="142" yMin="226" xMax="842" yMax="1588">
      <contour>
        <pt x="142" y="226" on="1"/>
        <pt x="142" y="1588" on="1"/>
        <pt x="842" y="1588" on="1"/>
        <pt x="842" y="226" on="1"/>
      </contour>
      <contour>
        <pt x="284" y="368" on="1"/>
        <pt x="700" y="368" on="1"/>
        <pt x="700" y="1447" on="1"/>
        <pt x="284" y="1447" on="1"/>
      </contour>
    </TTGlyph>
    <TTGlyph name="emdash" xMin="326" yMin="-358" xMax="2374" yMax="1484">
      <contour>
        <pt x="2313" y="1448" on="1"/>
        <pt x="2308" y="1430" on="0"/>
        <pt x="2295" y="1406" on="1"/>
        <pt x="2135" y="1295" on="0"/>
        <pt x="1870" y="1136" on="1"/>
        <pt x="1858" y="1138" on="0"/>
        <pt x="1858" y="1162" on="1"/>
        <pt x="1858" y="1212" on="0"/>
        <pt x="2052" y="1339" on="1"/>
        <pt x="2202" y="1436" on="0"/>
        <pt x="2303" y="1484" on="1"/>
      </contour>
      <contour>
        <pt x="2177" y="906" on="1"/>
        <pt x="2177" y="878" on="0"/>
        <pt x="2122" y="809" on="0"/>
        <pt x="2108" y="809" on="1"/>
        <pt x="2077" y="809" on="0"/>
        <pt x="2030" y="862" on="1"/>
        <pt x="2030" y="899" on="0"/>
        <pt x="2050" y="939" on="1"/>
        <pt x="2072" y="983" on="0"/>
        <pt x="2098" y="983" on="1"/>
        <pt x="2115" y="983" on="0"/>
        <pt x="2177" y="925" on="0"/>
      </contour>
      <contour>
        <pt x="1763" y="1425" on="1"/>
        <pt x="1750" y="1407" on="0"/>
        <pt x="1718" y="1375" on="1"/>
        <pt x="1576" y="1281" on="0"/>
        <pt x="1287" y="1086" on="1"/>
        <pt x="1248" y="1086" on="1"/>
        <pt x="1252" y="1110" on="0"/>
        <pt x="1258" y="1144" on="1"/>
        <pt x="1371" y="1242" on="0"/>
        <pt x="1724" y="1473" on="1"/>
        <pt x="1763" y="1473" on="1"/>
      </contour>
      <contour>
        <pt x="1032" y="1339" on="1"/>
        <pt x="1028" y="1267" on="0"/>
        <pt x="926" y="1200" on="1"/>
        <pt x="853" y="1158" on="0"/>
        <pt x="779" y="1116" on="1"/>
        <pt x="743" y="1116" on="0"/>
        <pt x="704" y="1128" on="0"/>
        <pt x="706" y="1128" on="1"/>
        <pt x="716" y="1171" on="0"/>
        <pt x="766" y="1198" on="1"/>
        <pt x="852" y="1244" on="0"/>
        <pt x="876" y="1265" on="1"/>
        <pt x="849" y="1311" on="0"/>
        <pt x="796" y="1311" on="1"/>
        <pt x="773" y="1311" on="0"/>
        <pt x="690" y="1261" on="1"/>
        <pt x="734" y="1413" on="0"/>
        <pt x="834" y="1413" on="1"/>
        <pt x="931" y="1413" on="0"/>
      </contour>
      <contour>
        <pt x="2374" y="297" on="1"/>
        <pt x="2374" y="223" on="0"/>
        <pt x="2354" y="167" on="1"/>
        <pt x="2314" y="61" on="0"/>
        <pt x="2139" y="13" on="1"/>
        <pt x="2053" y="-10" on="0"/>
        <pt x="1888" y="-10" on="1"/>
        <pt x="1842" y="-10" on="0"/>
        <pt x="1803" y="0" on="1"/>
        <pt x="1789" y="-16" on="1"/>
        <pt x="1832" y="-84" on="0"/>
        <pt x="1832" y="-154" on="1"/>
        <pt x="1832" y="-233" on="0"/>
        <pt x="1792" y="-294" on="1"/>
        <pt x="1750" y="-358" on="0"/>
        <pt x="1686" y="-358" on="1"/>
        <pt x="1641" y="-358" on="0"/>
        <pt x="1621" y="-346" on="1"/>
        <pt x="1588" y="-326" on="0"/>
        <pt x="1543" y="-253" on="1"/>
        <pt x="1512" y="-204" on="0"/>
        <pt x="1486" y="-89" on="1"/>
        <pt x="1476" y="-75" on="0"/>
        <pt x="1432" y="-67" on="1"/>
        <pt x="1415" y="-12" on="0"/>
        <pt x="1399" y="-12" on="1"/>
        <pt x="1395" y="-12" on="0"/>
        <pt x="1375" y="-20" on="0"/>
        <pt x="1367" y="-20" on="1"/>
        <pt x="1356" y="-20" on="0"/>
        <pt x="1240" y="-31" on="0"/>
        <pt x="1230" y="-31" on="1"/>
        <pt x="1048" y="-31" on="0"/>
        <pt x="968" y="82" on="1"/>
        <pt x="966" y="71" on="0"/>
        <pt x="960" y="-47" on="1"/>
        <pt x="955" y="-134" on="0"/>
        <pt x="924" y="-182" on="1"/>
        <pt x="887" y="-244" on="0"/>
        <pt x="683" y="-358" on="0"/>
        <pt x="613" y="-358" on="1"/>
        <pt x="555" y="-358" on="1"/>
        <pt x="472" y="-358" on="0"/>
        <pt x="397" y="-263" on="1"/>
        <pt x="326" y="-172" on="0"/>
        <pt x="326" y="-81" on="1"/>
        <pt x="326" y="-17" on="0"/>
        <pt x="375" y="93" on="1"/>
        <pt x="423" y="202" on="0"/>
        <pt x="463" y="235" on="1"/>
        <pt x="463" y="188" on="1"/>
        <pt x="464" y="172" on="0"/>
        <pt x="454" y="161" on="1"/>
        <pt x="447" y="154" on="0"/>
        <pt x="439" y="146" on="1"/>
        <pt x="412" y="15" on="0"/>
        <pt x="412" y="0" on="1"/>
        <pt x="412" y="-104" on="0"/>
        <pt x="488" y="-159" on="1"/>
        <pt x="552" y="-204" on="0"/>
        <pt x="645" y="-204" on="1"/>
        <pt x="705" y="-204" on="0"/>
        <pt x="785" y="-166" on="1"/>
        <pt x="886" y="-117" on="0"/>
        <pt x="886" y="-45" on="1"/>
        <pt x="791" y="881" on="1"/>
        <pt x="791" y="974" on="0"/>
        <pt x="848" y="1064" on="1"/>
        <pt x="892" y="843" on="0"/>
        <pt x="974" y="406" on="1"/>
        <pt x="1009" y="211" on="0"/>
        <pt x="1087" y="157" on="1"/>
        <pt x="1136" y="123" on="0"/>
        <pt x="1277" y="123" on="1"/>
        <pt x="1423" y="123" on="0"/>
        <pt x="1473" y="156" on="1"/>
        <pt x="1514" y="260" on="0"/>
        <pt x="1555" y="364" on="1"/>
        <pt x="1640" y="563" on="0"/>
        <pt x="1707" y="563" on="1"/>
        <pt x="1740" y="563" on="0"/>
        <pt x="1763" y="479" on="1"/>
        <pt x="1781" y="418" on="0"/>
        <pt x="1781" y="389" on="1"/>
        <pt x="1781" y="344" on="0"/>
        <pt x="1743" y="229" on="1"/>
        <pt x="1729" y="188" on="0"/>
        <pt x="1694" y="147" on="1"/>
        <pt x="1694" y="112" on="0"/>
        <pt x="1720" y="112" on="1"/>
        <pt x="1862" y="112" on="1"/>
        <pt x="1897" y="112" on="0"/>
        <pt x="2180" y="166" on="1"/>
        <pt x="2239" y="177" on="0"/>
        <pt x="2297" y="232" on="1"/>
        <pt x="2302" y="257" on="0"/>
        <pt x="2274" y="307" on="1"/>
        <pt x="2266" y="304" on="0"/>
        <pt x="2232" y="266" on="1"/>
        <pt x="2203" y="235" on="0"/>
        <pt x="2177" y="235" on="1"/>
        <pt x="2128" y="235" on="0"/>
        <pt x="2091" y="289" on="1"/>
        <pt x="2056" y="339" on="0"/>
        <pt x="2056" y="394" on="1"/>
        <pt x="2056" y="448" on="0"/>
        <pt x="2089" y="538" on="1"/>
        <pt x="2132" y="655" on="0"/>
        <pt x="2189" y="655" on="1"/>
        <pt x="2265" y="655" on="0"/>
        <pt x="2326" y="492" on="1"/>
        <pt x="2374" y="363" on="0"/>
      </contour>
      <contour>
        <pt x="2219" y="411" on="1"/>
        <pt x="2213" y="434" on="0"/>
        <pt x="2174" y="480" on="0"/>
        <pt x="2161" y="480" on="1"/>
        <pt x="2150" y="433" on="1"/>
        <pt x="2156" y="428" on="0"/>
        <pt x="2177" y="404" on="0"/>
        <pt x="2181" y="399" on="1"/>
        <pt x="2191" y="411" on="0"/>
      </contour>
      <contour>
        <pt x="1695" y="307" on="1"/>
        <pt x="1695" y="354" on="0"/>
        <pt x="1665" y="389" on="1"/>
        <pt x="1649" y="376" on="0"/>
        <pt x="1609" y="319" on="1"/>
        <pt x="1566" y="254" on="0"/>
        <pt x="1566" y="229" on="1"/>
        <pt x="1566" y="195" on="1"/>
        <pt x="1603" y="213" on="0"/>
        <pt x="1640" y="230" on="1"/>
        <pt x="1695" y="262" on="0"/>
      </contour>
      <contour>
        <pt x="1737" y="-158" on="1"/>
        <pt x="1710" y="-131" on="0"/>
        <pt x="1682" y="-104" on="1"/>
        <pt x="1650" y="-72" on="0"/>
        <pt x="1638" y="-72" on="1"/>
        <pt x="1583" y="-72" on="1"/>
        <pt x="1612" y="-184" on="0"/>
        <pt x="1690" y="-184" on="1"/>
        <pt x="1718" y="-184" on="0"/>
      </contour>
    </TTGlyph>
    <TTGlyph name="endash" xMin="326" yMin="-358" xMax="1350" yMax="1484">
      <contour>
        <pt x="1320" y="1448" on="1"/>
        <pt x="1317" y="1430" on="0"/>
        <pt x="1311" y="1406" on="1"/>
        <pt x="1231" y="1295" on="0"/>
        <pt x="1098" y="1136" on="1"/>
        <pt x="1092" y="1138" on="0"/>
        <pt x="1092" y="1162" on="1"/>
        <pt x="1092" y="1212" on="0"/>
        <pt x="1189" y="1339" on="1"/>
        <pt x="1264" y="1436" on="0"/>
        <pt x="1314" y="1484" on="1"/>
      </contour>
      <contour>
        <pt x="1251" y="906" on="1"/>
        <pt x="1251" y="878" on="0"/>
        <pt x="1224" y="809" on="0"/>
        <pt x="1217" y="809" on="1"/>
        <pt x="1201" y="809" on="0"/>
        <pt x="1178" y="862" on="1"/>
        <pt x="1178" y="899" on="0"/>
        <pt x="1188" y="939" on="1"/>
        <pt x="1199" y="983" on="0"/>
        <pt x="1212" y="983" on="1"/>
        <pt x="1221" y="983" on="0"/>
        <pt x="1251" y="925" on="0"/>
      </contour>
      <contour>
        <pt x="1045" y="1425" on="1"/>
        <pt x="1038" y="1407" on="0"/>
        <pt x="1022" y="1375" on="1"/>
        <pt x="951" y="1281" on="0"/>
        <pt x="807" y="1086" on="1"/>
        <pt x="787" y="1086" on="1"/>
        <pt x="789" y="1110" on="0"/>
        <pt x="792" y="1144" on="1"/>
        <pt x="849" y="1242" on="0"/>
        <pt x="1025" y="1473" on="1"/>
        <pt x="1045" y="1473" on="1"/>
      </contour>
      <contour>
        <pt x="679" y="1339" on="1"/>
        <pt x="677" y="1267" on="0"/>
        <pt x="626" y="1200" on="1"/>
        <pt x="589" y="1158" on="0"/>
        <pt x="552" y="1116" on="1"/>
        <pt x="534" y="1116" on="0"/>
        <pt x="515" y="1128" on="0"/>
        <pt x="516" y="1128" on="1"/>
        <pt x="521" y="1171" on="0"/>
        <pt x="546" y="1198" on="1"/>
        <pt x="589" y="1244" on="0"/>
        <pt x="601" y="1265" on="1"/>
        <pt x="587" y="1311" on="0"/>
        <pt x="561" y="1311" on="1"/>
        <pt x="550" y="1311" on="0"/>
        <pt x="508" y="1261" on="1"/>
        <pt x="530" y="1413" on="0"/>
        <pt x="580" y="1413" on="1"/>
        <pt x="629" y="1413" on="0"/>
      </contour>
      <contour>
        <pt x="1350" y="297" on="1"/>
        <pt x="1350" y="223" on="0"/>
        <pt x="1340" y="167" on="1"/>
        <pt x="1320" y="61" on="0"/>
        <pt x="1232" y="13" on="1"/>
        <pt x="1189" y="-10" on="0"/>
        <pt x="1107" y="-10" on="1"/>
        <pt x="1084" y="-10" on="0"/>
        <pt x="1065" y="0" on="1"/>
        <pt x="1058" y="-16" on="1"/>
        <pt x="1079" y="-84" on="0"/>
        <pt x="1079" y="-154" on="1"/>
        <pt x="1079" y="-233" on="0"/>
        <pt x="1059" y="-294" on="1"/>
        <pt x="1038" y="-358" on="0"/>
        <pt x="1006" y="-358" on="1"/>
        <pt x="984" y="-358" on="0"/>
        <pt x="974" y="-346" on="1"/>
        <pt x="957" y="-326" on="0"/>
        <pt x="934" y="-253" on="1"/>
        <pt x="919" y="-204" on="0"/>
        <pt x="906" y="-89" on="1"/>
        <pt x="901" y="-75" on="0"/>
        <pt x="879" y="-67" on="1"/>
        <pt x="871" y="-12" on="0"/>
        <pt x="863" y="-12" on="1"/>
        <pt x="860" y="-12" on="0"/>
        <pt x="850" y="-20" on="0"/>
        <pt x="847" y="-20" on="1"/>
        <pt x="841" y="-20" on="0"/>
        <pt x="783" y="-31" on="0"/>
        <pt x="778" y="-31" on="1"/>
        <pt x="687" y="-31" on="0"/>
        <pt x="647" y="82" on="1"/>
        <pt x="646" y="71" on="0"/>
        <pt x="643" y="-47" on="1"/>
        <pt x="640" y="-134" on="0"/>
        <pt x="625" y="-182" on="1"/>
        <pt x="606" y="-244" on="0"/>
        <pt x="505" y="-358" on="0"/>
        <pt x="470" y="-358" on="1"/>
        <pt x="441" y="-358" on="1"/>
        <pt x="399" y="-358" on="0"/>
        <pt x="362" y="-263" on="1"/>
        <pt x="326" y="-172" on="0"/>
        <pt x="326" y="-81" on="1"/>
        <pt x="326" y="-17" on="0"/>
        <pt x="350" y="93" on="1"/>
        <pt x="374" y="202" on="0"/>
        <pt x="394" y="235" on="1"/>
        <pt x="394" y="188" on="1"/>
        <pt x="395" y="172" on="0"/>
        <pt x="390" y="161" on="1"/>
        <pt x="387" y="154" on="0"/>
        <pt x="383" y="146" on="1"/>
        <pt x="369" y="15" on="0"/>
        <pt x="369" y="0" on="1"/>
        <pt x="369" y="-104" on="0"/>
        <pt x="407" y="-159" on="1"/>
        <pt x="439" y="-204" on="0"/>
        <pt x="485" y="-204" on="1"/>
        <pt x="516" y="-204" on="0"/>
        <pt x="555" y="-166" on="1"/>
        <pt x="606" y="-117" on="0"/>
        <pt x="606" y="-45" on="1"/>
        <pt x="558" y="881" on="1"/>
        <pt x="558" y="974" on="0"/>
        <pt x="587" y="1064" on="1"/>
        <pt x="609" y="843" on="0"/>
        <pt x="650" y="406" on="1"/>
        <pt x="668" y="211" on="0"/>
        <pt x="707" y="157" on="1"/>
        <pt x="731" y="123" on="0"/>
        <pt x="802" y="123" on="1"/>
        <pt x="874" y="123" on="0"/>
        <pt x="900" y="156" on="1"/>
        <pt x="920" y="260" on="0"/>
        <pt x="941" y="364" on="1"/>
        <pt x="983" y="563" on="0"/>
        <pt x="1016" y="563" on="1"/>
        <pt x="1033" y="563" on="0"/>
        <pt x="1045" y="479" on="1"/>
        <pt x="1053" y="418" on="0"/>
        <pt x="1053" y="389" on="1"/>
        <pt x="1053" y="344" on="0"/>
        <pt x="1034" y="229" on="1"/>
        <pt x="1028" y="188" on="0"/>
        <pt x="1010" y="147" on="1"/>
        <pt x="1010" y="112" on="0"/>
        <pt x="1023" y="112" on="1"/>
        <pt x="1094" y="112" on="1"/>
        <pt x="1111" y="112" on="0"/>
        <pt x="1253" y="166" on="1"/>
        <pt x="1282" y="177" on="0"/>
        <pt x="1311" y="232" on="1"/>
        <pt x="1314" y="257" on="0"/>
        <pt x="1300" y="307" on="1"/>
        <pt x="1296" y="304" on="0"/>
        <pt x="1279" y="266" on="1"/>
        <pt x="1265" y="235" on="0"/>
        <pt x="1251" y="235" on="1"/>
        <pt x="1227" y="235" on="0"/>
        <pt x="1208" y="289" on="1"/>
        <pt x="1191" y="339" on="0"/>
        <pt x="1191" y="394" on="1"/>
        <pt x="1191" y="448" on="0"/>
        <pt x="1208" y="538" on="1"/>
        <pt x="1229" y="655" on="0"/>
        <pt x="1258" y="655" on="1"/>
        <pt x="1295" y="655" on="0"/>
        <pt x="1326" y="492" on="1"/>
        <pt x="1350" y="363" on="0"/>
      </contour>
      <contour>
        <pt x="1272" y="411" on="1"/>
        <pt x="1269" y="434" on="0"/>
        <pt x="1250" y="480" on="0"/>
        <pt x="1243" y="480" on="1"/>
        <pt x="1238" y="433" on="1"/>
        <pt x="1241" y="428" on="0"/>
        <pt x="1251" y="404" on="0"/>
        <pt x="1253" y="399" on="1"/>
        <pt x="1258" y="411" on="0"/>
      </contour>
      <contour>
        <pt x="1010" y="307" on="1"/>
        <pt x="1010" y="354" on="0"/>
        <pt x="995" y="389" on="1"/>
        <pt x="987" y="376" on="0"/>
        <pt x="968" y="319" on="1"/>
        <pt x="946" y="254" on="0"/>
        <pt x="946" y="229" on="1"/>
        <pt x="946" y="195" on="1"/>
        <pt x="965" y="213" on="0"/>
        <pt x="983" y="230" on="1"/>
        <pt x="1010" y="262" on="0"/>
      </contour>
      <contour>
        <pt x="1031" y="-158" on="1"/>
        <pt x="1018" y="-131" on="0"/>
        <pt x="1004" y="-104" on="1"/>
        <pt x="988" y="-72" on="0"/>
        <pt x="982" y="-72" on="1"/>
        <pt x="955" y="-72" on="1"/>
        <pt x="969" y="-184" on="0"/>
        <pt x="1008" y="-184" on="1"/>
        <pt x="1022" y="-184" on="0"/>
      </contour>
    </TTGlyph>
    <TTGlyph name="equal" xMin="142" yMin="226" xMax="842" yMax="1588">
      <contour>
        <pt x="142" y="226" on="1"/>
        <pt x="142" y="1588" on="1"/>
        <pt x="842" y="1588" on="1"/>
        <pt x="842" y="226" on="1"/>
      </contour>
      <contour>
        <pt x="284" y="368" on="1"/>
        <pt x="700" y="368" on="1"/>
        <pt x="700" y="1447" on="1"/>
        <pt x="284" y="1447" on="1"/>
      </contour>
    </TTGlyph>
    <TTGlyph name="exclam" xMin="142" yMin="226" xMax="842" yMax="1588">
      <contour>
        <pt x="142" y="226" on="1"/>
        <pt x="142" y="1588" on="1"/>
        <pt x="842" y="1588" on="1"/>
        <pt x="842" y="226" on="1"/>
      </contour>
      <contour>
        <pt x="284" y="368" on="1"/>
        <pt x="700" y="368" on="1"/>
        <pt x="700" y="1447" on="1"/>
        <pt x="284" y="1447" on="1"/>
      </contour>
    </TTGlyph>
    <TTGlyph name="figuredash" xMin="326" yMin="-358" xMax="2763" yMax="1484">
      <contour>
        <pt x="2691" y="1448" on="1"/>
        <pt x="2685" y="1430" on="0"/>
        <pt x="2669" y="1406" on="1"/>
        <pt x="2479" y="1295" on="0"/>
        <pt x="2163" y="1136" on="1"/>
        <pt x="2149" y="1138" on="0"/>
        <pt x="2149" y="1162" on="1"/>
        <pt x="2149" y="1212" on="0"/>
        <pt x="2380" y="1339" on="1"/>
        <pt x="2558" y="1436" on="0"/>
        <pt x="2678" y="1484" on="1"/>
      </contour>
      <contour>
        <pt x="2528" y="906" on="1"/>
        <pt x="2528" y="878" on="0"/>
        <pt x="2463" y="809" on="0"/>
        <pt x="2446" y="809" on="1"/>
        <pt x="2409" y="809" on="0"/>
        <pt x="2354" y="862" on="1"/>
        <pt x="2354" y="899" on="0"/>
        <pt x="2378" y="939" on="1"/>
        <pt x="2404" y="983" on="0"/>
        <pt x="2435" y="983" on="1"/>
        <pt x="2455" y="983" on="0"/>
        <pt x="2528" y="925" on="0"/>
      </contour>
      <contour>
        <pt x="2036" y="1425" on="1"/>
        <pt x="2020" y="1407" on="0"/>
        <pt x="1982" y="1375" on="1"/>
        <pt x="1813" y="1281" on="0"/>
        <pt x="1470" y="1086" on="1"/>
        <pt x="1423" y="1086" on="1"/>
        <pt x="1428" y="1110" on="0"/>
        <pt x="1435" y="1144" on="1"/>
        <pt x="1570" y="1242" on="0"/>
        <pt x="1989" y="1473" on="1"/>
        <pt x="2036" y="1473" on="1"/>
      </contour>
      <contour>
        <pt x="1166" y="1339" on="1"/>
        <pt x="1161" y="1267" on="0"/>
        <pt x="1040" y="1200" on="1"/>
        <pt x="953" y="1158" on="0"/>
        <pt x="865" y="1116" on="1"/>
        <pt x="822" y="1116" on="0"/>
        <pt x="776" y="1128" on="0"/>
        <pt x="778" y="1128" on="1"/>
        <pt x="790" y="1171" on="0"/>
        <pt x="850" y="1198" on="1"/>
        <pt x="952" y="1244" on="0"/>
        <pt x="981" y="1265" on="1"/>
        <pt x="948" y="1311" on="0"/>
        <pt x="885" y="1311" on="1"/>
        <pt x="858" y="1311" on="0"/>
        <pt x="759" y="1261" on="1"/>
        <pt x="812" y="1413" on="0"/>
        <pt x="931" y="1413" on="1"/>
        <pt x="1046" y="1413" on="0"/>
      </contour>
      <contour>
        <pt x="2763" y="297" on="1"/>
        <pt x="2763" y="223" on="0"/>
        <pt x="2739" y="167" on="1"/>
        <pt x="2692" y="61" on="0"/>
        <pt x="2483" y="13" on="1"/>
        <pt x="2381" y="-10" on="0"/>
        <pt x="2185" y="-10" on="1"/>
        <pt x="2130" y="-10" on="0"/>
        <pt x="2084" y="0" on="1"/>
        <pt x="2067" y="-16" on="1"/>
        <pt x="2118" y="-84" on="0"/>
        <pt x="2118" y="-154" on="1"/>
        <pt x="2118" y="-233" on="0"/>
        <pt x="2071" y="-294" on="1"/>
        <pt x="2020" y="-358" on="0"/>
        <pt x="1944" y="-358" on="1"/>
        <pt x="1891" y="-358" on="0"/>
        <pt x="1867" y="-346" on="1"/>
        <pt x="1828" y="-326" on="0"/>
        <pt x="1774" y="-253" on="1"/>
        <pt x="1737" y="-204" on="0"/>
        <pt x="1706" y="-89" on="1"/>
        <pt x="1695" y="-75" on="0"/>
        <pt x="1642" y="-67" on="1"/>
        <pt x="1622" y="-12" on="0"/>
        <pt x="1603" y="-12" on="1"/>
        <pt x="1598" y="-12" on="0"/>
        <pt x="1574" y="-20" on="0"/>
        <pt x="1565" y="-20" on="1"/>
        <pt x="1552" y="-20" on="0"/>
        <pt x="1414" y="-31" on="0"/>
        <pt x="1402" y="-31" on="1"/>
        <pt x="1185" y="-31" on="0"/>
        <pt x="1090" y="82" on="1"/>
        <pt x="1088" y="71" on="0"/>
        <pt x="1080" y="-47" on="1"/>
        <pt x="1074" y="-134" on="0"/>
        <pt x="1038" y="-182" on="1"/>
        <pt x="993" y="-244" on="0"/>
        <pt x="751" y="-358" on="0"/>
        <pt x="668" y="-358" on="1"/>
        <pt x="599" y="-358" on="1"/>
        <pt x="500" y="-358" on="0"/>
        <pt x="411" y="-263" on="1"/>
        <pt x="326" y="-172" on="0"/>
        <pt x="326" y="-81" on="1"/>
        <pt x="326" y="-17" on="0"/>
        <pt x="384" y="93" on="1"/>
        <pt x="441" y="202" on="0"/>
        <pt x="489" y="235" on="1"/>
        <pt x="489" y="188" on="1"/>
        <pt x="490" y="172" on="0"/>
        <pt x="478" y="161" on="1"/>
        <pt x="470" y="154" on="0"/>
        <pt x="461" y="146" on="1"/>
        <pt x="428" y="15" on="0"/>
        <pt x="428" y="0" on="1"/>
        <pt x="428" y="-104" on="0"/>
        <pt x="519" y="-159" on="1"/>
        <pt x="595" y="-204" on="0"/>
        <pt x="705" y="-204" on="1"/>
        <pt x="777" y="-204" on="0"/>
        <pt x="872" y="-166" on="1"/>
        <pt x="992" y="-117" on="0"/>
        <pt x="992" y="-45" on="1"/>
        <pt x="879" y="881" on="1"/>
        <pt x="879" y="974" on="0"/>
        <pt x="947" y="1064" on="1"/>
        <pt x="999" y="843" on="0"/>
        <pt x="1097" y="406" on="1"/>
        <pt x="1139" y="211" on="0"/>
        <pt x="1232" y="157" on="1"/>
        <pt x="1290" y="123" on="0"/>
        <pt x="1458" y="123" on="1"/>
        <pt x="1631" y="123" on="0"/>
        <pt x="1691" y="156" on="1"/>
        <pt x="1740" y="260" on="0"/>
        <pt x="1789" y="364" on="1"/>
        <pt x="1890" y="563" on="0"/>
        <pt x="1969" y="563" on="1"/>
        <pt x="2009" y="563" on="0"/>
        <pt x="2036" y="479" on="1"/>
        <pt x="2057" y="418" on="0"/>
        <pt x="2057" y="389" on="1"/>
        <pt x="2057" y="344" on="0"/>
        <pt x="2012" y="229" on="1"/>
        <pt x="1996" y="188" on="0"/>
        <pt x="1954" y="147" on="1"/>
        <pt x="1954" y="112" on="0"/>
        <pt x="1985" y="112" on="1"/>
        <pt x="2154" y="112" on="1"/>
        <pt x="2195" y="112" on="0"/>
        <pt x="2532" y="166" on="1"/>
        <pt x="2602" y="177" on="0"/>
        <pt x="2671" y="232" on="1"/>
        <pt x="2677" y="257" on="0"/>
        <pt x="2644" y="307" on="1"/>
        <pt x="2634" y="304" on="0"/>
        <pt x="2594" y="266" on="1"/>
        <pt x="2560" y="235" on="0"/>
        <pt x="2528" y="235" on="1"/>
        <pt x="2470" y="235" on="0"/>
        <pt x="2426" y="289" on="1"/>
        <pt x="2385" y="339" on="0"/>
        <pt x="2385" y="394" on="1"/>
        <pt x="2385" y="448" on="0"/>
        <pt x="2424" y="538" on="1"/>
        <pt x="2475" y="655" on="0"/>
        <pt x="2543" y="655" on="1"/>
        <pt x="2633" y="655" on="0"/>
        <pt x="2706" y="492" on="1"/>
        <pt x="2763" y="363" on="0"/>
      </contour>
      <contour>
        <pt x="2578" y="411" on="1"/>
        <pt x="2571" y="434" on="0"/>
        <pt x="2525" y="480" on="0"/>
        <pt x="2509" y="480" on="1"/>
        <pt x="2497" y="433" on="1"/>
        <pt x="2503" y="428" on="0"/>
        <pt x="2528" y="404" on="0"/>
        <pt x="2533" y="399" on="1"/>
        <pt x="2545" y="411" on="0"/>
      </contour>
      <contour>
        <pt x="1955" y="307" on="1"/>
        <pt x="1955" y="354" on="0"/>
        <pt x="1919" y="389" on="1"/>
        <pt x="1900" y="376" on="0"/>
        <pt x="1853" y="319" on="1"/>
        <pt x="1801" y="254" on="0"/>
        <pt x="1802" y="229" on="1"/>
        <pt x="1802" y="195" on="1"/>
        <pt x="1846" y="213" on="0"/>
        <pt x="1890" y="230" on="1"/>
        <pt x="1955" y="262" on="0"/>
      </contour>
      <contour>
        <pt x="2005" y="-158" on="1"/>
        <pt x="1973" y="-131" on="0"/>
        <pt x="1940" y="-104" on="1"/>
        <pt x="1902" y="-72" on="0"/>
        <pt x="1887" y="-72" on="1"/>
        <pt x="1822" y="-72" on="1"/>
        <pt x="1856" y="-184" on="0"/>
        <pt x="1949" y="-184" on="1"/>
        <pt x="1982" y="-184" on="0"/>
      </contour>
    </TTGlyph>
    <TTGlyph name="gaffinalarabic" xMin="142" yMin="226" xMax="842" yMax="1588">
      <contour>
        <pt x="142" y="226" on="1"/>
        <pt x="142" y="1588" on="1"/>
        <pt x="842" y="1588" on="1"/>
        <pt x="842" y="226" on="1"/>
      </contour>
      <contour>
        <pt x="284" y="368" on="1"/>
        <pt x="700" y="368" on="1"/>
        <pt x="700" y="1447" on="1"/>
        <pt x="284" y="1447" on="1"/>
      </contour>
    </TTGlyph>
    <TTGlyph name="gafinitialarabic" xMin="142" yMin="226" xMax="842" yMax="1588">
      <contour>
        <pt x="142" y="226" on="1"/>
        <pt x="142" y="1588" on="1"/>
        <pt x="842" y="1588" on="1"/>
        <pt x="842" y="226" on="1"/>
      </contour>
      <contour>
        <pt x="284" y="368" on="1"/>
        <pt x="700" y="368" on="1"/>
        <pt x="700" y="1447" on="1"/>
        <pt x="284" y="1447" on="1"/>
      </contour>
    </TTGlyph>
    <TTGlyph name="gafmedialarabic" xMin="142" yMin="226" xMax="842" yMax="1588">
      <contour>
        <pt x="142" y="226" on="1"/>
        <pt x="142" y="1588" on="1"/>
        <pt x="842" y="1588" on="1"/>
        <pt x="842" y="226" on="1"/>
      </contour>
      <contour>
        <pt x="284" y="368" on="1"/>
        <pt x="700" y="368" on="1"/>
        <pt x="700" y="1447" on="1"/>
        <pt x="284" y="1447" on="1"/>
      </contour>
    </TTGlyph>
    <TTGlyph name="glyph41" xMin="142" yMin="226" xMax="842" yMax="1588">
      <contour>
        <pt x="142" y="226" on="1"/>
        <pt x="142" y="1588" on="1"/>
        <pt x="842" y="1588" on="1"/>
        <pt x="842" y="226" on="1"/>
      </contour>
      <contour>
        <pt x="284" y="368" on="1"/>
        <pt x="700" y="368" on="1"/>
        <pt x="700" y="1447" on="1"/>
        <pt x="284" y="1447" on="1"/>
      </contour>
    </TTGlyph>
    <TTGlyph name="glyph42" xMin="142" yMin="226" xMax="842" yMax="1588">
      <contour>
        <pt x="142" y="226" on="1"/>
        <pt x="142" y="1588" on="1"/>
        <pt x="842" y="1588" on="1"/>
        <pt x="842" y="226" on="1"/>
      </contour>
      <contour>
        <pt x="284" y="368" on="1"/>
        <pt x="700" y="368" on="1"/>
        <pt x="700" y="1447" on="1"/>
        <pt x="284" y="1447" on="1"/>
      </contour>
    </TTGlyph>
    <TTGlyph name="glyph43" xMin="142" yMin="226" xMax="842" yMax="1588">
      <contour>
        <pt x="142" y="226" on="1"/>
        <pt x="142" y="1588" on="1"/>
        <pt x="842" y="1588" on="1"/>
        <pt x="842" y="226" on="1"/>
      </contour>
      <contour>
        <pt x="284" y="368" on="1"/>
        <pt x="700" y="368" on="1"/>
        <pt x="700" y="1447" on="1"/>
        <pt x="284" y="1447" on="1"/>
      </contour>
    </TTGlyph>
    <TTGlyph name="glyph44" xMin="142" yMin="226" xMax="842" yMax="1588">
      <contour>
        <pt x="142" y="226" on="1"/>
        <pt x="142" y="1588" on="1"/>
        <pt x="842" y="1588" on="1"/>
        <pt x="842" y="226" on="1"/>
      </contour>
      <contour>
        <pt x="284" y="368" on="1"/>
        <pt x="700" y="368" on="1"/>
        <pt x="700" y="1447" on="1"/>
        <pt x="284" y="1447" on="1"/>
      </contour>
    </TTGlyph>
    <TTGlyph name="glyph45" xMin="142" yMin="226" xMax="842" yMax="1588">
      <contour>
        <pt x="142" y="226" on="1"/>
        <pt x="142" y="1588" on="1"/>
        <pt x="842" y="1588" on="1"/>
        <pt x="842" y="226" on="1"/>
      </contour>
      <contour>
        <pt x="284" y="368" on="1"/>
        <pt x="700" y="368" on="1"/>
        <pt x="700" y="1447" on="1"/>
        <pt x="284" y="1447" on="1"/>
      </contour>
    </TTGlyph>
    <TTGlyph name="glyph46" xMin="142" yMin="226" xMax="842" yMax="1588">
      <contour>
        <pt x="142" y="226" on="1"/>
        <pt x="142" y="1588" on="1"/>
        <pt x="842" y="1588" on="1"/>
        <pt x="842" y="226" on="1"/>
      </contour>
      <contour>
        <pt x="284" y="368" on="1"/>
        <pt x="700" y="368" on="1"/>
        <pt x="700" y="1447" on="1"/>
        <pt x="284" y="1447" on="1"/>
      </contour>
    </TTGlyph>
    <TTGlyph name="glyph47" xMin="142" yMin="226" xMax="842" yMax="1588">
      <contour>
        <pt x="142" y="226" on="1"/>
        <pt x="142" y="1588" on="1"/>
        <pt x="842" y="1588" on="1"/>
        <pt x="842" y="226" on="1"/>
      </contour>
      <contour>
        <pt x="284" y="368" on="1"/>
        <pt x="700" y="368" on="1"/>
        <pt x="700" y="1447" on="1"/>
        <pt x="284" y="1447" on="1"/>
      </contour>
    </TTGlyph>
    <TTGlyph name="glyph48" xMin="142" yMin="226" xMax="842" yMax="1588">
      <contour>
        <pt x="142" y="226" on="1"/>
        <pt x="142" y="1588" on="1"/>
        <pt x="842" y="1588" on="1"/>
        <pt x="842" y="226" on="1"/>
      </contour>
      <contour>
        <pt x="284" y="368" on="1"/>
        <pt x="700" y="368" on="1"/>
        <pt x="700" y="1447" on="1"/>
        <pt x="284" y="1447" on="1"/>
      </contour>
    </TTGlyph>
    <TTGlyph name="glyph50" xMin="142" yMin="226" xMax="842" yMax="1588">
      <contour>
        <pt x="142" y="226" on="1"/>
        <pt x="142" y="1588" on="1"/>
        <pt x="842" y="1588" on="1"/>
        <pt x="842" y="226" on="1"/>
      </contour>
      <contour>
        <pt x="284" y="368" on="1"/>
        <pt x="700" y="368" on="1"/>
        <pt x="700" y="1447" on="1"/>
        <pt x="284" y="1447" on="1"/>
      </contour>
    </TTGlyph>
    <TTGlyph name="glyph51" xMin="142" yMin="226" xMax="842" yMax="1588">
      <contour>
        <pt x="142" y="226" on="1"/>
        <pt x="142" y="1588" on="1"/>
        <pt x="842" y="1588" on="1"/>
        <pt x="842" y="226" on="1"/>
      </contour>
      <contour>
        <pt x="284" y="368" on="1"/>
        <pt x="700" y="368" on="1"/>
        <pt x="700" y="1447" on="1"/>
        <pt x="284" y="1447" on="1"/>
      </contour>
    </TTGlyph>
    <TTGlyph name="greater" xMin="142" yMin="226" xMax="842" yMax="1588">
      <contour>
        <pt x="142" y="226" on="1"/>
        <pt x="142" y="1588" on="1"/>
        <pt x="842" y="1588" on="1"/>
        <pt x="842" y="226" on="1"/>
      </contour>
      <contour>
        <pt x="284" y="368" on="1"/>
        <pt x="700" y="368" on="1"/>
        <pt x="700" y="1447" on="1"/>
        <pt x="284" y="1447" on="1"/>
      </contour>
    </TTGlyph>
    <TTGlyph name="hahhamzabovefinal" xMin="142" yMin="226" xMax="842" yMax="1588">
      <contour>
        <pt x="142" y="226" on="1"/>
        <pt x="142" y="1588" on="1"/>
        <pt x="842" y="1588" on="1"/>
        <pt x="842" y="226" on="1"/>
      </contour>
      <contour>
        <pt x="284" y="368" on="1"/>
        <pt x="700" y="368" on="1"/>
        <pt x="700" y="1447" on="1"/>
        <pt x="284" y="1447" on="1"/>
      </contour>
    </TTGlyph>
    <TTGlyph name="hahhamzaboveinitial" xMin="142" yMin="226" xMax="842" yMax="1588">
      <contour>
        <pt x="142" y="226" on="1"/>
        <pt x="142" y="1588" on="1"/>
        <pt x="842" y="1588" on="1"/>
        <pt x="842" y="226" on="1"/>
      </contour>
      <contour>
        <pt x="284" y="368" on="1"/>
        <pt x="700" y="368" on="1"/>
        <pt x="700" y="1447" on="1"/>
        <pt x="284" y="1447" on="1"/>
      </contour>
    </TTGlyph>
    <TTGlyph name="hahhamzabovemedial" xMin="142" yMin="226" xMax="842" yMax="1588">
      <contour>
        <pt x="142" y="226" on="1"/>
        <pt x="142" y="1588" on="1"/>
        <pt x="842" y="1588" on="1"/>
        <pt x="842" y="226" on="1"/>
      </contour>
      <contour>
        <pt x="284" y="368" on="1"/>
        <pt x="700" y="368" on="1"/>
        <pt x="700" y="1447" on="1"/>
        <pt x="284" y="1447" on="1"/>
      </contour>
    </TTGlyph>
    <TTGlyph name="hahthreedotsabovefinal" xMin="142" yMin="226" xMax="842" yMax="1588">
      <contour>
        <pt x="142" y="226" on="1"/>
        <pt x="142" y="1588" on="1"/>
        <pt x="842" y="1588" on="1"/>
        <pt x="842" y="226" on="1"/>
      </contour>
      <contour>
        <pt x="284" y="368" on="1"/>
        <pt x="700" y="368" on="1"/>
        <pt x="700" y="1447" on="1"/>
        <pt x="284" y="1447" on="1"/>
      </contour>
    </TTGlyph>
    <TTGlyph name="hahthreedotsaboveinitial" xMin="142" yMin="226" xMax="842" yMax="1588">
      <contour>
        <pt x="142" y="226" on="1"/>
        <pt x="142" y="1588" on="1"/>
        <pt x="842" y="1588" on="1"/>
        <pt x="842" y="226" on="1"/>
      </contour>
      <contour>
        <pt x="284" y="368" on="1"/>
        <pt x="700" y="368" on="1"/>
        <pt x="700" y="1447" on="1"/>
        <pt x="284" y="1447" on="1"/>
      </contour>
    </TTGlyph>
    <TTGlyph name="hahthreedotsabovemedial" xMin="142" yMin="226" xMax="842" yMax="1588">
      <contour>
        <pt x="142" y="226" on="1"/>
        <pt x="142" y="1588" on="1"/>
        <pt x="842" y="1588" on="1"/>
        <pt x="842" y="226" on="1"/>
      </contour>
      <contour>
        <pt x="284" y="368" on="1"/>
        <pt x="700" y="368" on="1"/>
        <pt x="700" y="1447" on="1"/>
        <pt x="284" y="1447" on="1"/>
      </contour>
    </TTGlyph>
    <TTGlyph name="hehdoachashmeefinalarabic" xMin="142" yMin="226" xMax="842" yMax="1588">
      <contour>
        <pt x="142" y="226" on="1"/>
        <pt x="142" y="1588" on="1"/>
        <pt x="842" y="1588" on="1"/>
        <pt x="842" y="226" on="1"/>
      </contour>
      <contour>
        <pt x="284" y="368" on="1"/>
        <pt x="700" y="368" on="1"/>
        <pt x="700" y="1447" on="1"/>
        <pt x="284" y="1447" on="1"/>
      </contour>
    </TTGlyph>
    <TTGlyph name="hehdoachashmeeinitialarabic" xMin="142" yMin="226" xMax="842" yMax="1588">
      <contour>
        <pt x="142" y="226" on="1"/>
        <pt x="142" y="1588" on="1"/>
        <pt x="842" y="1588" on="1"/>
        <pt x="842" y="226" on="1"/>
      </contour>
      <contour>
        <pt x="284" y="368" on="1"/>
        <pt x="700" y="368" on="1"/>
        <pt x="700" y="1447" on="1"/>
        <pt x="284" y="1447" on="1"/>
      </contour>
    </TTGlyph>
    <TTGlyph name="hehdoachashmeemedialarabic" xMin="142" yMin="226" xMax="842" yMax="1588">
      <contour>
        <pt x="142" y="226" on="1"/>
        <pt x="142" y="1588" on="1"/>
        <pt x="842" y="1588" on="1"/>
        <pt x="842" y="226" on="1"/>
      </contour>
      <contour>
        <pt x="284" y="368" on="1"/>
        <pt x="700" y="368" on="1"/>
        <pt x="700" y="1447" on="1"/>
        <pt x="284" y="1447" on="1"/>
      </contour>
    </TTGlyph>
    <TTGlyph name="hehfinalaltonearabic" xMin="142" yMin="226" xMax="842" yMax="1588">
      <contour>
        <pt x="142" y="226" on="1"/>
        <pt x="142" y="1588" on="1"/>
        <pt x="842" y="1588" on="1"/>
        <pt x="842" y="226" on="1"/>
      </contour>
      <contour>
        <pt x="284" y="368" on="1"/>
        <pt x="700" y="368" on="1"/>
        <pt x="700" y="1447" on="1"/>
        <pt x="284" y="1447" on="1"/>
      </contour>
    </TTGlyph>
    <TTGlyph name="hehhamzaabovefinalarabic" xMin="142" yMin="226" xMax="842" yMax="1588">
      <contour>
        <pt x="142" y="226" on="1"/>
        <pt x="142" y="1588" on="1"/>
        <pt x="842" y="1588" on="1"/>
        <pt x="842" y="226" on="1"/>
      </contour>
      <contour>
        <pt x="284" y="368" on="1"/>
        <pt x="700" y="368" on="1"/>
        <pt x="700" y="1447" on="1"/>
        <pt x="284" y="1447" on="1"/>
      </contour>
    </TTGlyph>
    <TTGlyph name="hehinitialaltonearabic" xMin="142" yMin="226" xMax="842" yMax="1588">
      <contour>
        <pt x="142" y="226" on="1"/>
        <pt x="142" y="1588" on="1"/>
        <pt x="842" y="1588" on="1"/>
        <pt x="842" y="226" on="1"/>
      </contour>
      <contour>
        <pt x="284" y="368" on="1"/>
        <pt x="700" y="368" on="1"/>
        <pt x="700" y="1447" on="1"/>
        <pt x="284" y="1447" on="1"/>
      </contour>
    </TTGlyph>
    <TTGlyph name="hehmedialaltonearabic" xMin="142" yMin="226" xMax="842" yMax="1588">
      <contour>
        <pt x="142" y="226" on="1"/>
        <pt x="142" y="1588" on="1"/>
        <pt x="842" y="1588" on="1"/>
        <pt x="842" y="226" on="1"/>
      </contour>
      <contour>
        <pt x="284" y="368" on="1"/>
        <pt x="700" y="368" on="1"/>
        <pt x="700" y="1447" on="1"/>
        <pt x="284" y="1447" on="1"/>
      </contour>
    </TTGlyph>
    <TTGlyph name="hyphen" xMin="326" yMin="-358" xMax="2763" yMax="1484">
      <contour>
        <pt x="2691" y="1448" on="1"/>
        <pt x="2685" y="1430" on="0"/>
        <pt x="2669" y="1406" on="1"/>
        <pt x="2479" y="1295" on="0"/>
        <pt x="2163" y="1136" on="1"/>
        <pt x="2149" y="1138" on="0"/>
        <pt x="2149" y="1162" on="1"/>
        <pt x="2149" y="1212" on="0"/>
        <pt x="2380" y="1339" on="1"/>
        <pt x="2558" y="1436" on="0"/>
        <pt x="2678" y="1484" on="1"/>
      </contour>
      <contour>
        <pt x="2528" y="906" on="1"/>
        <pt x="2528" y="878" on="0"/>
        <pt x="2463" y="809" on="0"/>
        <pt x="2446" y="809" on="1"/>
        <pt x="2409" y="809" on="0"/>
        <pt x="2354" y="862" on="1"/>
        <pt x="2354" y="899" on="0"/>
        <pt x="2378" y="939" on="1"/>
        <pt x="2404" y="983" on="0"/>
        <pt x="2435" y="983" on="1"/>
        <pt x="2455" y="983" on="0"/>
        <pt x="2528" y="925" on="0"/>
      </contour>
      <contour>
        <pt x="2036" y="1425" on="1"/>
        <pt x="2020" y="1407" on="0"/>
        <pt x="1982" y="1375" on="1"/>
        <pt x="1813" y="1281" on="0"/>
        <pt x="1470" y="1086" on="1"/>
        <pt x="1423" y="1086" on="1"/>
        <pt x="1428" y="1110" on="0"/>
        <pt x="1435" y="1144" on="1"/>
        <pt x="1570" y="1242" on="0"/>
        <pt x="1989" y="1473" on="1"/>
        <pt x="2036" y="1473" on="1"/>
      </contour>
      <contour>
        <pt x="1166" y="1339" on="1"/>
        <pt x="1161" y="1267" on="0"/>
        <pt x="1040" y="1200" on="1"/>
        <pt x="953" y="1158" on="0"/>
        <pt x="865" y="1116" on="1"/>
        <pt x="822" y="1116" on="0"/>
        <pt x="776" y="1128" on="0"/>
        <pt x="778" y="1128" on="1"/>
        <pt x="790" y="1171" on="0"/>
        <pt x="850" y="1198" on="1"/>
        <pt x="952" y="1244" on="0"/>
        <pt x="981" y="1265" on="1"/>
        <pt x="948" y="1311" on="0"/>
        <pt x="885" y="1311" on="1"/>
        <pt x="858" y="1311" on="0"/>
        <pt x="759" y="1261" on="1"/>
        <pt x="812" y="1413" on="0"/>
        <pt x="931" y="1413" on="1"/>
        <pt x="1046" y="1413" on="0"/>
      </contour>
      <contour>
        <pt x="2763" y="297" on="1"/>
        <pt x="2763" y="223" on="0"/>
        <pt x="2739" y="167" on="1"/>
        <pt x="2692" y="61" on="0"/>
        <pt x="2483" y="13" on="1"/>
        <pt x="2381" y="-10" on="0"/>
        <pt x="2185" y="-10" on="1"/>
        <pt x="2130" y="-10" on="0"/>
        <pt x="2084" y="0" on="1"/>
        <pt x="2067" y="-16" on="1"/>
        <pt x="2118" y="-84" on="0"/>
        <pt x="2118" y="-154" on="1"/>
        <pt x="2118" y="-233" on="0"/>
        <pt x="2071" y="-294" on="1"/>
        <pt x="2020" y="-358" on="0"/>
        <pt x="1944" y="-358" on="1"/>
        <pt x="1891" y="-358" on="0"/>
        <pt x="1867" y="-346" on="1"/>
        <pt x="1828" y="-326" on="0"/>
        <pt x="1774" y="-253" on="1"/>
        <pt x="1737" y="-204" on="0"/>
        <pt x="1706" y="-89" on="1"/>
        <pt x="1695" y="-75" on="0"/>
        <pt x="1642" y="-67" on="1"/>
        <pt x="1622" y="-12" on="0"/>
        <pt x="1603" y="-12" on="1"/>
        <pt x="1598" y="-12" on="0"/>
        <pt x="1574" y="-20" on="0"/>
        <pt x="1565" y="-20" on="1"/>
        <pt x="1552" y="-20" on="0"/>
        <pt x="1414" y="-31" on="0"/>
        <pt x="1402" y="-31" on="1"/>
        <pt x="1185" y="-31" on="0"/>
        <pt x="1090" y="82" on="1"/>
        <pt x="1088" y="71" on="0"/>
        <pt x="1080" y="-47" on="1"/>
        <pt x="1074" y="-134" on="0"/>
        <pt x="1038" y="-182" on="1"/>
        <pt x="993" y="-244" on="0"/>
        <pt x="751" y="-358" on="0"/>
        <pt x="668" y="-358" on="1"/>
        <pt x="599" y="-358" on="1"/>
        <pt x="500" y="-358" on="0"/>
        <pt x="411" y="-263" on="1"/>
        <pt x="326" y="-172" on="0"/>
        <pt x="326" y="-81" on="1"/>
        <pt x="326" y="-17" on="0"/>
        <pt x="384" y="93" on="1"/>
        <pt x="441" y="202" on="0"/>
        <pt x="489" y="235" on="1"/>
        <pt x="489" y="188" on="1"/>
        <pt x="490" y="172" on="0"/>
        <pt x="478" y="161" on="1"/>
        <pt x="470" y="154" on="0"/>
        <pt x="461" y="146" on="1"/>
        <pt x="428" y="15" on="0"/>
        <pt x="428" y="0" on="1"/>
        <pt x="428" y="-104" on="0"/>
        <pt x="519" y="-159" on="1"/>
        <pt x="595" y="-204" on="0"/>
        <pt x="705" y="-204" on="1"/>
        <pt x="777" y="-204" on="0"/>
        <pt x="872" y="-166" on="1"/>
        <pt x="992" y="-117" on="0"/>
        <pt x="992" y="-45" on="1"/>
        <pt x="879" y="881" on="1"/>
        <pt x="879" y="974" on="0"/>
        <pt x="947" y="1064" on="1"/>
        <pt x="999" y="843" on="0"/>
        <pt x="1097" y="406" on="1"/>
        <pt x="1139" y="211" on="0"/>
        <pt x="1232" y="157" on="1"/>
        <pt x="1290" y="123" on="0"/>
        <pt x="1458" y="123" on="1"/>
        <pt x="1631" y="123" on="0"/>
        <pt x="1691" y="156" on="1"/>
        <pt x="1740" y="260" on="0"/>
        <pt x="1789" y="364" on="1"/>
        <pt x="1890" y="563" on="0"/>
        <pt x="1969" y="563" on="1"/>
        <pt x="2009" y="563" on="0"/>
        <pt x="2036" y="479" on="1"/>
        <pt x="2057" y="418" on="0"/>
        <pt x="2057" y="389" on="1"/>
        <pt x="2057" y="344" on="0"/>
        <pt x="2012" y="229" on="1"/>
        <pt x="1996" y="188" on="0"/>
        <pt x="1954" y="147" on="1"/>
        <pt x="1954" y="112" on="0"/>
        <pt x="1985" y="112" on="1"/>
        <pt x="2154" y="112" on="1"/>
        <pt x="2195" y="112" on="0"/>
        <pt x="2532" y="166" on="1"/>
        <pt x="2602" y="177" on="0"/>
        <pt x="2671" y="232" on="1"/>
        <pt x="2677" y="257" on="0"/>
        <pt x="2644" y="307" on="1"/>
        <pt x="2634" y="304" on="0"/>
        <pt x="2594" y="266" on="1"/>
        <pt x="2560" y="235" on="0"/>
        <pt x="2528" y="235" on="1"/>
        <pt x="2470" y="235" on="0"/>
        <pt x="2426" y="289" on="1"/>
        <pt x="2385" y="339" on="0"/>
        <pt x="2385" y="394" on="1"/>
        <pt x="2385" y="448" on="0"/>
        <pt x="2424" y="538" on="1"/>
        <pt x="2475" y="655" on="0"/>
        <pt x="2543" y="655" on="1"/>
        <pt x="2633" y="655" on="0"/>
        <pt x="2706" y="492" on="1"/>
        <pt x="2763" y="363" on="0"/>
      </contour>
      <contour>
        <pt x="2578" y="411" on="1"/>
        <pt x="2571" y="434" on="0"/>
        <pt x="2525" y="480" on="0"/>
        <pt x="2509" y="480" on="1"/>
        <pt x="2497" y="433" on="1"/>
        <pt x="2503" y="428" on="0"/>
        <pt x="2528" y="404" on="0"/>
        <pt x="2533" y="399" on="1"/>
        <pt x="2545" y="411" on="0"/>
      </contour>
      <contour>
        <pt x="1955" y="307" on="1"/>
        <pt x="1955" y="354" on="0"/>
        <pt x="1919" y="389" on="1"/>
        <pt x="1900" y="376" on="0"/>
        <pt x="1853" y="319" on="1"/>
        <pt x="1801" y="254" on="0"/>
        <pt x="1802" y="229" on="1"/>
        <pt x="1802" y="195" on="1"/>
        <pt x="1846" y="213" on="0"/>
        <pt x="1890" y="230" on="1"/>
        <pt x="1955" y="262" on="0"/>
      </contour>
      <contour>
        <pt x="2005" y="-158" on="1"/>
        <pt x="1973" y="-131" on="0"/>
        <pt x="1940" y="-104" on="1"/>
        <pt x="1902" y="-72" on="0"/>
        <pt x="1887" y="-72" on="1"/>
        <pt x="1822" y="-72" on="1"/>
        <pt x="1856" y="-184" on="0"/>
        <pt x="1949" y="-184" on="1"/>
        <pt x="1982" y="-184" on="0"/>
      </contour>
    </TTGlyph>
    <TTGlyph name="irghizufinal" xMin="142" yMin="226" xMax="842" yMax="1588">
      <contour>
        <pt x="142" y="226" on="1"/>
        <pt x="142" y="1588" on="1"/>
        <pt x="842" y="1588" on="1"/>
        <pt x="842" y="226" on="1"/>
      </contour>
      <contour>
        <pt x="284" y="368" on="1"/>
        <pt x="700" y="368" on="1"/>
        <pt x="700" y="1447" on="1"/>
        <pt x="284" y="1447" on="1"/>
      </contour>
    </TTGlyph>
    <TTGlyph name="jehfinalarabic" xMin="142" yMin="226" xMax="842" yMax="1588">
      <contour>
        <pt x="142" y="226" on="1"/>
        <pt x="142" y="1588" on="1"/>
        <pt x="842" y="1588" on="1"/>
        <pt x="842" y="226" on="1"/>
      </contour>
      <contour>
        <pt x="284" y="368" on="1"/>
        <pt x="700" y="368" on="1"/>
        <pt x="700" y="1447" on="1"/>
        <pt x="284" y="1447" on="1"/>
      </contour>
    </TTGlyph>
    <TTGlyph name="kafringfinal" xMin="142" yMin="226" xMax="842" yMax="1588">
      <contour>
        <pt x="142" y="226" on="1"/>
        <pt x="142" y="1588" on="1"/>
        <pt x="842" y="1588" on="1"/>
        <pt x="842" y="226" on="1"/>
      </contour>
      <contour>
        <pt x="284" y="368" on="1"/>
        <pt x="700" y="368" on="1"/>
        <pt x="700" y="1447" on="1"/>
        <pt x="284" y="1447" on="1"/>
      </contour>
    </TTGlyph>
    <TTGlyph name="kafringinitial" xMin="142" yMin="226" xMax="842" yMax="1588">
      <contour>
        <pt x="142" y="226" on="1"/>
        <pt x="142" y="1588" on="1"/>
        <pt x="842" y="1588" on="1"/>
        <pt x="842" y="226" on="1"/>
      </contour>
      <contour>
        <pt x="284" y="368" on="1"/>
        <pt x="700" y="368" on="1"/>
        <pt x="700" y="1447" on="1"/>
        <pt x="284" y="1447" on="1"/>
      </contour>
    </TTGlyph>
    <TTGlyph name="kafringmedial" xMin="142" yMin="226" xMax="842" yMax="1588">
      <contour>
        <pt x="142" y="226" on="1"/>
        <pt x="142" y="1588" on="1"/>
        <pt x="842" y="1588" on="1"/>
        <pt x="842" y="226" on="1"/>
      </contour>
      <contour>
        <pt x="284" y="368" on="1"/>
        <pt x="700" y="368" on="1"/>
        <pt x="700" y="1447" on="1"/>
        <pt x="284" y="1447" on="1"/>
      </contour>
    </TTGlyph>
    <TTGlyph name="kashidaautoarabic" xMin="142" yMin="226" xMax="842" yMax="1588">
      <contour>
        <pt x="142" y="226" on="1"/>
        <pt x="142" y="1588" on="1"/>
        <pt x="842" y="1588" on="1"/>
        <pt x="842" y="226" on="1"/>
      </contour>
      <contour>
        <pt x="284" y="368" on="1"/>
        <pt x="700" y="368" on="1"/>
        <pt x="700" y="1447" on="1"/>
        <pt x="284" y="1447" on="1"/>
      </contour>
    </TTGlyph>
    <TTGlyph name="kashidaautonosidebearingarabic" xMin="142" yMin="226" xMax="842" yMax="1588">
      <contour>
        <pt x="142" y="226" on="1"/>
        <pt x="142" y="1588" on="1"/>
        <pt x="842" y="1588" on="1"/>
        <pt x="842" y="226" on="1"/>
      </contour>
      <contour>
        <pt x="284" y="368" on="1"/>
        <pt x="700" y="368" on="1"/>
        <pt x="700" y="1447" on="1"/>
        <pt x="284" y="1447" on="1"/>
      </contour>
    </TTGlyph>
    <TTGlyph name="kehehfinalarabic" xMin="142" yMin="226" xMax="842" yMax="1588">
      <contour>
        <pt x="142" y="226" on="1"/>
        <pt x="142" y="1588" on="1"/>
        <pt x="842" y="1588" on="1"/>
        <pt x="842" y="226" on="1"/>
      </contour>
      <contour>
        <pt x="284" y="368" on="1"/>
        <pt x="700" y="368" on="1"/>
        <pt x="700" y="1447" on="1"/>
        <pt x="284" y="1447" on="1"/>
      </contour>
    </TTGlyph>
    <TTGlyph name="kehehinitialarabic" xMin="142" yMin="226" xMax="842" yMax="1588">
      <contour>
        <pt x="142" y="226" on="1"/>
        <pt x="142" y="1588" on="1"/>
        <pt x="842" y="1588" on="1"/>
        <pt x="842" y="226" on="1"/>
      </contour>
      <contour>
        <pt x="284" y="368" on="1"/>
        <pt x="700" y="368" on="1"/>
        <pt x="700" y="1447" on="1"/>
        <pt x="284" y="1447" on="1"/>
      </contour>
    </TTGlyph>
    <TTGlyph name="kehehmedialarabic" xMin="142" yMin="226" xMax="842" yMax="1588">
      <contour>
        <pt x="142" y="226" on="1"/>
        <pt x="142" y="1588" on="1"/>
        <pt x="842" y="1588" on="1"/>
        <pt x="842" y="226" on="1"/>
      </contour>
      <contour>
        <pt x="284" y="368" on="1"/>
        <pt x="700" y="368" on="1"/>
        <pt x="700" y="1447" on="1"/>
        <pt x="284" y="1447" on="1"/>
      </contour>
    </TTGlyph>
    <TTGlyph name="kirghizyifinal" xMin="142" yMin="226" xMax="842" yMax="1588">
      <contour>
        <pt x="142" y="226" on="1"/>
        <pt x="142" y="1588" on="1"/>
        <pt x="842" y="1588" on="1"/>
        <pt x="842" y="226" on="1"/>
      </contour>
      <contour>
        <pt x="284" y="368" on="1"/>
        <pt x="700" y="368" on="1"/>
        <pt x="700" y="1447" on="1"/>
        <pt x="284" y="1447" on="1"/>
      </contour>
    </TTGlyph>
    <TTGlyph name="lammeemjeeminitialarabic" xMin="142" yMin="226" xMax="842" yMax="1588">
      <contour>
        <pt x="142" y="226" on="1"/>
        <pt x="142" y="1588" on="1"/>
        <pt x="842" y="1588" on="1"/>
        <pt x="842" y="226" on="1"/>
      </contour>
      <contour>
        <pt x="284" y="368" on="1"/>
        <pt x="700" y="368" on="1"/>
        <pt x="700" y="1447" on="1"/>
        <pt x="284" y="1447" on="1"/>
      </contour>
    </TTGlyph>
    <TTGlyph name="lammeemkhahinitialarabic" xMin="142" yMin="226" xMax="842" yMax="1588">
      <contour>
        <pt x="142" y="226" on="1"/>
        <pt x="142" y="1588" on="1"/>
        <pt x="842" y="1588" on="1"/>
        <pt x="842" y="226" on="1"/>
      </contour>
      <contour>
        <pt x="284" y="368" on="1"/>
        <pt x="700" y="368" on="1"/>
        <pt x="700" y="1447" on="1"/>
        <pt x="284" y="1447" on="1"/>
      </contour>
    </TTGlyph>
    <TTGlyph name="lamthreedotsabovefinal" xMin="142" yMin="226" xMax="842" yMax="1588">
      <contour>
        <pt x="142" y="226" on="1"/>
        <pt x="142" y="1588" on="1"/>
        <pt x="842" y="1588" on="1"/>
        <pt x="842" y="226" on="1"/>
      </contour>
      <contour>
        <pt x="284" y="368" on="1"/>
        <pt x="700" y="368" on="1"/>
        <pt x="700" y="1447" on="1"/>
        <pt x="284" y="1447" on="1"/>
      </contour>
    </TTGlyph>
    <TTGlyph name="lamthreedotsaboveinitial" xMin="142" yMin="226" xMax="842" yMax="1588">
      <contour>
        <pt x="142" y="226" on="1"/>
        <pt x="142" y="1588" on="1"/>
        <pt x="842" y="1588" on="1"/>
        <pt x="842" y="226" on="1"/>
      </contour>
      <contour>
        <pt x="284" y="368" on="1"/>
        <pt x="700" y="368" on="1"/>
        <pt x="700" y="1447" on="1"/>
        <pt x="284" y="1447" on="1"/>
      </contour>
    </TTGlyph>
    <TTGlyph name="lamthreedotsabovemedial" xMin="142" yMin="226" xMax="842" yMax="1588">
      <contour>
        <pt x="142" y="226" on="1"/>
        <pt x="142" y="1588" on="1"/>
        <pt x="842" y="1588" on="1"/>
        <pt x="842" y="226" on="1"/>
      </contour>
      <contour>
        <pt x="284" y="368" on="1"/>
        <pt x="700" y="368" on="1"/>
        <pt x="700" y="1447" on="1"/>
        <pt x="284" y="1447" on="1"/>
      </contour>
    </TTGlyph>
    <TTGlyph name="less" xMin="142" yMin="226" xMax="842" yMax="1588">
      <contour>
        <pt x="142" y="226" on="1"/>
        <pt x="142" y="1588" on="1"/>
        <pt x="842" y="1588" on="1"/>
        <pt x="842" y="226" on="1"/>
      </contour>
      <contour>
        <pt x="284" y="368" on="1"/>
        <pt x="700" y="368" on="1"/>
        <pt x="700" y="1447" on="1"/>
        <pt x="284" y="1447" on="1"/>
      </contour>
    </TTGlyph>
    <TTGlyph name="meemmeemisolatedarabic" xMin="142" yMin="226" xMax="842" yMax="1588">
      <contour>
        <pt x="142" y="226" on="1"/>
        <pt x="142" y="1588" on="1"/>
        <pt x="842" y="1588" on="1"/>
        <pt x="842" y="226" on="1"/>
      </contour>
      <contour>
        <pt x="284" y="368" on="1"/>
        <pt x="700" y="368" on="1"/>
        <pt x="700" y="1447" on="1"/>
        <pt x="284" y="1447" on="1"/>
      </contour>
    </TTGlyph>
    <TTGlyph name="multiply" xMin="142" yMin="226" xMax="842" yMax="1588">
      <contour>
        <pt x="142" y="226" on="1"/>
        <pt x="142" y="1588" on="1"/>
        <pt x="842" y="1588" on="1"/>
        <pt x="842" y="226" on="1"/>
      </contour>
      <contour>
        <pt x="284" y="368" on="1"/>
        <pt x="700" y="368" on="1"/>
        <pt x="700" y="1447" on="1"/>
        <pt x="284" y="1447" on="1"/>
      </contour>
    </TTGlyph>
    <TTGlyph name="noonghunnafinalarabic" xMin="142" yMin="226" xMax="842" yMax="1588">
      <contour>
        <pt x="142" y="226" on="1"/>
        <pt x="142" y="1588" on="1"/>
        <pt x="842" y="1588" on="1"/>
        <pt x="842" y="226" on="1"/>
      </contour>
      <contour>
        <pt x="284" y="368" on="1"/>
        <pt x="700" y="368" on="1"/>
        <pt x="700" y="1447" on="1"/>
        <pt x="284" y="1447" on="1"/>
      </contour>
    </TTGlyph>
    <TTGlyph name="noonjeemisolatedarabic" xMin="142" yMin="226" xMax="842" yMax="1588">
      <contour>
        <pt x="142" y="226" on="1"/>
        <pt x="142" y="1588" on="1"/>
        <pt x="842" y="1588" on="1"/>
        <pt x="842" y="226" on="1"/>
      </contour>
      <contour>
        <pt x="284" y="368" on="1"/>
        <pt x="700" y="368" on="1"/>
        <pt x="700" y="1447" on="1"/>
        <pt x="284" y="1447" on="1"/>
      </contour>
    </TTGlyph>
    <TTGlyph name="noonmeemisolatedarabic" xMin="142" yMin="226" xMax="842" yMax="1588">
      <contour>
        <pt x="142" y="226" on="1"/>
        <pt x="142" y="1588" on="1"/>
        <pt x="842" y="1588" on="1"/>
        <pt x="842" y="226" on="1"/>
      </contour>
      <contour>
        <pt x="284" y="368" on="1"/>
        <pt x="700" y="368" on="1"/>
        <pt x="700" y="1447" on="1"/>
        <pt x="284" y="1447" on="1"/>
      </contour>
    </TTGlyph>
    <TTGlyph name="noonringfinal" xMin="142" yMin="226" xMax="842" yMax="1588">
      <contour>
        <pt x="142" y="226" on="1"/>
        <pt x="142" y="1588" on="1"/>
        <pt x="842" y="1588" on="1"/>
        <pt x="842" y="226" on="1"/>
      </contour>
      <contour>
        <pt x="284" y="368" on="1"/>
        <pt x="700" y="368" on="1"/>
        <pt x="700" y="1447" on="1"/>
        <pt x="284" y="1447" on="1"/>
      </contour>
    </TTGlyph>
    <TTGlyph name="noonringinitial" xMin="142" yMin="226" xMax="842" yMax="1588">
      <contour>
        <pt x="142" y="226" on="1"/>
        <pt x="142" y="1588" on="1"/>
        <pt x="842" y="1588" on="1"/>
        <pt x="842" y="226" on="1"/>
      </contour>
      <contour>
        <pt x="284" y="368" on="1"/>
        <pt x="700" y="368" on="1"/>
        <pt x="700" y="1447" on="1"/>
        <pt x="284" y="1447" on="1"/>
      </contour>
    </TTGlyph>
    <TTGlyph name="noonringmedial" xMin="142" yMin="226" xMax="842" yMax="1588">
      <contour>
        <pt x="142" y="226" on="1"/>
        <pt x="142" y="1588" on="1"/>
        <pt x="842" y="1588" on="1"/>
        <pt x="842" y="226" on="1"/>
      </contour>
      <contour>
        <pt x="284" y="368" on="1"/>
        <pt x="700" y="368" on="1"/>
        <pt x="700" y="1447" on="1"/>
        <pt x="284" y="1447" on="1"/>
      </contour>
    </TTGlyph>
    <TTGlyph name="numbersign" xMin="142" yMin="226" xMax="842" yMax="1588">
      <contour>
        <pt x="142" y="226" on="1"/>
        <pt x="142" y="1588" on="1"/>
        <pt x="842" y="1588" on="1"/>
        <pt x="842" y="226" on="1"/>
      </contour>
      <contour>
        <pt x="284" y="368" on="1"/>
        <pt x="700" y="368" on="1"/>
        <pt x="700" y="1447" on="1"/>
        <pt x="284" y="1447" on="1"/>
      </contour>
    </TTGlyph>
    <TTGlyph name="parenleft" xMin="142" yMin="226" xMax="842" yMax="1588">
      <contour>
        <pt x="142" y="226" on="1"/>
        <pt x="142" y="1588" on="1"/>
        <pt x="842" y="1588" on="1"/>
        <pt x="842" y="226" on="1"/>
      </contour>
      <contour>
        <pt x="284" y="368" on="1"/>
        <pt x="700" y="368" on="1"/>
        <pt x="700" y="1447" on="1"/>
        <pt x="284" y="1447" on="1"/>
      </contour>
    </TTGlyph>
    <TTGlyph name="parenright" xMin="142" yMin="226" xMax="842" yMax="1588">
      <contour>
        <pt x="142" y="226" on="1"/>
        <pt x="142" y="1588" on="1"/>
        <pt x="842" y="1588" on="1"/>
        <pt x="842" y="226" on="1"/>
      </contour>
      <contour>
        <pt x="284" y="368" on="1"/>
        <pt x="700" y="368" on="1"/>
        <pt x="700" y="1447" on="1"/>
        <pt x="284" y="1447" on="1"/>
      </contour>
    </TTGlyph>
    <TTGlyph name="pashtoefinal" xMin="142" yMin="226" xMax="842" yMax="1588">
      <contour>
        <pt x="142" y="226" on="1"/>
        <pt x="142" y="1588" on="1"/>
        <pt x="842" y="1588" on="1"/>
        <pt x="842" y="226" on="1"/>
      </contour>
      <contour>
        <pt x="284" y="368" on="1"/>
        <pt x="700" y="368" on="1"/>
        <pt x="700" y="1447" on="1"/>
        <pt x="284" y="1447" on="1"/>
      </contour>
    </TTGlyph>
    <TTGlyph name="pashtoeinitial" xMin="142" yMin="226" xMax="842" yMax="1588">
      <contour>
        <pt x="142" y="226" on="1"/>
        <pt x="142" y="1588" on="1"/>
        <pt x="842" y="1588" on="1"/>
        <pt x="842" y="226" on="1"/>
      </contour>
      <contour>
        <pt x="284" y="368" on="1"/>
        <pt x="700" y="368" on="1"/>
        <pt x="700" y="1447" on="1"/>
        <pt x="284" y="1447" on="1"/>
      </contour>
    </TTGlyph>
    <TTGlyph name="pashtoemedial" xMin="142" yMin="226" xMax="842" yMax="1588">
      <contour>
        <pt x="142" y="226" on="1"/>
        <pt x="142" y="1588" on="1"/>
        <pt x="842" y="1588" on="1"/>
        <pt x="842" y="226" on="1"/>
      </contour>
      <contour>
        <pt x="284" y="368" on="1"/>
        <pt x="700" y="368" on="1"/>
        <pt x="700" y="1447" on="1"/>
        <pt x="284" y="1447" on="1"/>
      </contour>
    </TTGlyph>
    <TTGlyph name="pehfinalarabic" xMin="142" yMin="226" xMax="842" yMax="1588">
      <contour>
        <pt x="142" y="226" on="1"/>
        <pt x="142" y="1588" on="1"/>
        <pt x="842" y="1588" on="1"/>
        <pt x="842" y="226" on="1"/>
      </contour>
      <contour>
        <pt x="284" y="368" on="1"/>
        <pt x="700" y="368" on="1"/>
        <pt x="700" y="1447" on="1"/>
        <pt x="284" y="1447" on="1"/>
      </contour>
    </TTGlyph>
    <TTGlyph name="pehinitialarabic" xMin="142" yMin="226" xMax="842" yMax="1588">
      <contour>
        <pt x="142" y="226" on="1"/>
        <pt x="142" y="1588" on="1"/>
        <pt x="842" y="1588" on="1"/>
        <pt x="842" y="226" on="1"/>
      </contour>
      <contour>
        <pt x="284" y="368" on="1"/>
        <pt x="700" y="368" on="1"/>
        <pt x="700" y="1447" on="1"/>
        <pt x="284" y="1447" on="1"/>
      </contour>
    </TTGlyph>
    <TTGlyph name="pehmedialarabic" xMin="142" yMin="226" xMax="842" yMax="1588">
      <contour>
        <pt x="142" y="226" on="1"/>
        <pt x="142" y="1588" on="1"/>
        <pt x="842" y="1588" on="1"/>
        <pt x="842" y="226" on="1"/>
      </contour>
      <contour>
        <pt x="284" y="368" on="1"/>
        <pt x="700" y="368" on="1"/>
        <pt x="700" y="1447" on="1"/>
        <pt x="284" y="1447" on="1"/>
      </contour>
    </TTGlyph>
    <TTGlyph name="percent" xMin="142" yMin="226" xMax="842" yMax="1588">
      <contour>
        <pt x="142" y="226" on="1"/>
        <pt x="142" y="1588" on="1"/>
        <pt x="842" y="1588" on="1"/>
        <pt x="842" y="226" on="1"/>
      </contour>
      <contour>
        <pt x="284" y="368" on="1"/>
        <pt x="700" y="368" on="1"/>
        <pt x="700" y="1447" on="1"/>
        <pt x="284" y="1447" on="1"/>
      </contour>
    </TTGlyph>
    <TTGlyph name="period" xMin="142" yMin="226" xMax="842" yMax="1588">
      <contour>
        <pt x="142" y="226" on="1"/>
        <pt x="142" y="1588" on="1"/>
        <pt x="842" y="1588" on="1"/>
        <pt x="842" y="226" on="1"/>
      </contour>
      <contour>
        <pt x="284" y="368" on="1"/>
        <pt x="700" y="368" on="1"/>
        <pt x="700" y="1447" on="1"/>
        <pt x="284" y="1447" on="1"/>
      </contour>
    </TTGlyph>
    <TTGlyph name="plus" xMin="142" yMin="226" xMax="842" yMax="1588">
      <contour>
        <pt x="142" y="226" on="1"/>
        <pt x="142" y="1588" on="1"/>
        <pt x="842" y="1588" on="1"/>
        <pt x="842" y="226" on="1"/>
      </contour>
      <contour>
        <pt x="284" y="368" on="1"/>
        <pt x="700" y="368" on="1"/>
        <pt x="700" y="1447" on="1"/>
        <pt x="284" y="1447" on="1"/>
      </contour>
    </TTGlyph>
    <TTGlyph name="quotedbl" xMin="142" yMin="226" xMax="842" yMax="1588">
      <contour>
        <pt x="142" y="226" on="1"/>
        <pt x="142" y="1588" on="1"/>
        <pt x="842" y="1588" on="1"/>
        <pt x="842" y="226" on="1"/>
      </contour>
      <contour>
        <pt x="284" y="368" on="1"/>
        <pt x="700" y="368" on="1"/>
        <pt x="700" y="1447" on="1"/>
        <pt x="284" y="1447" on="1"/>
      </contour>
    </TTGlyph>
    <TTGlyph name="quotesingle" xMin="142" yMin="226" xMax="842" yMax="1588">
      <contour>
        <pt x="142" y="226" on="1"/>
        <pt x="142" y="1588" on="1"/>
        <pt x="842" y="1588" on="1"/>
        <pt x="842" y="226" on="1"/>
      </contour>
      <contour>
        <pt x="284" y="368" on="1"/>
        <pt x="700" y="368" on="1"/>
        <pt x="700" y="1447" on="1"/>
        <pt x="284" y="1447" on="1"/>
      </contour>
    </TTGlyph>
    <TTGlyph name="rehdotbelowdotabovefinal" xMin="142" yMin="226" xMax="842" yMax="1588">
      <contour>
        <pt x="142" y="226" on="1"/>
        <pt x="142" y="1588" on="1"/>
        <pt x="842" y="1588" on="1"/>
        <pt x="842" y="226" on="1"/>
      </contour>
      <contour>
        <pt x="284" y="368" on="1"/>
        <pt x="700" y="368" on="1"/>
        <pt x="700" y="1447" on="1"/>
        <pt x="284" y="1447" on="1"/>
      </contour>
    </TTGlyph>
    <TTGlyph name="rehringfinal" xMin="142" yMin="226" xMax="842" yMax="1588">
      <contour>
        <pt x="142" y="226" on="1"/>
        <pt x="142" y="1588" on="1"/>
        <pt x="842" y="1588" on="1"/>
        <pt x="842" y="226" on="1"/>
      </contour>
      <contour>
        <pt x="284" y="368" on="1"/>
        <pt x="700" y="368" on="1"/>
        <pt x="700" y="1447" on="1"/>
        <pt x="284" y="1447" on="1"/>
      </contour>
    </TTGlyph>
    <TTGlyph name="rrehfinalarabic" xMin="142" yMin="226" xMax="842" yMax="1588">
      <contour>
        <pt x="142" y="226" on="1"/>
        <pt x="142" y="1588" on="1"/>
        <pt x="842" y="1588" on="1"/>
        <pt x="842" y="226" on="1"/>
      </contour>
      <contour>
        <pt x="284" y="368" on="1"/>
        <pt x="700" y="368" on="1"/>
        <pt x="700" y="1447" on="1"/>
        <pt x="284" y="1447" on="1"/>
      </contour>
    </TTGlyph>
    <TTGlyph name="seendotbelowdotabovefinal" xMin="142" yMin="226" xMax="842" yMax="1588">
      <contour>
        <pt x="142" y="226" on="1"/>
        <pt x="142" y="1588" on="1"/>
        <pt x="842" y="1588" on="1"/>
        <pt x="842" y="226" on="1"/>
      </contour>
      <contour>
        <pt x="284" y="368" on="1"/>
        <pt x="700" y="368" on="1"/>
        <pt x="700" y="1447" on="1"/>
        <pt x="284" y="1447" on="1"/>
      </contour>
    </TTGlyph>
    <TTGlyph name="seendotbelowdotaboveinitial" xMin="142" yMin="226" xMax="842" yMax="1588">
      <contour>
        <pt x="142" y="226" on="1"/>
        <pt x="142" y="1588" on="1"/>
        <pt x="842" y="1588" on="1"/>
        <pt x="842" y="226" on="1"/>
      </contour>
      <contour>
        <pt x="284" y="368" on="1"/>
        <pt x="700" y="368" on="1"/>
        <pt x="700" y="1447" on="1"/>
        <pt x="284" y="1447" on="1"/>
      </contour>
    </TTGlyph>
    <TTGlyph name="seendotbelowdotabovemedial" xMin="142" yMin="226" xMax="842" yMax="1588">
      <contour>
        <pt x="142" y="226" on="1"/>
        <pt x="142" y="1588" on="1"/>
        <pt x="842" y="1588" on="1"/>
        <pt x="842" y="226" on="1"/>
      </contour>
      <contour>
        <pt x="284" y="368" on="1"/>
        <pt x="700" y="368" on="1"/>
        <pt x="700" y="1447" on="1"/>
        <pt x="284" y="1447" on="1"/>
      </contour>
    </TTGlyph>
    <TTGlyph name="shaddadammaarabic" xMin="142" yMin="226" xMax="842" yMax="1588">
      <contour>
        <pt x="142" y="226" on="1"/>
        <pt x="142" y="1588" on="1"/>
        <pt x="842" y="1588" on="1"/>
        <pt x="842" y="226" on="1"/>
      </contour>
      <contour>
        <pt x="284" y="368" on="1"/>
        <pt x="700" y="368" on="1"/>
        <pt x="700" y="1447" on="1"/>
        <pt x="284" y="1447" on="1"/>
      </contour>
    </TTGlyph>
    <TTGlyph name="shaddadammatanarabic" xMin="142" yMin="226" xMax="842" yMax="1588">
      <contour>
        <pt x="142" y="226" on="1"/>
        <pt x="142" y="1588" on="1"/>
        <pt x="842" y="1588" on="1"/>
        <pt x="842" y="226" on="1"/>
      </contour>
      <contour>
        <pt x="284" y="368" on="1"/>
        <pt x="700" y="368" on="1"/>
        <pt x="700" y="1447" on="1"/>
        <pt x="284" y="1447" on="1"/>
      </contour>
    </TTGlyph>
    <TTGlyph name="shaddafathaarabic" xMin="142" yMin="226" xMax="842" yMax="1588">
      <contour>
        <pt x="142" y="226" on="1"/>
        <pt x="142" y="1588" on="1"/>
        <pt x="842" y="1588" on="1"/>
        <pt x="842" y="226" on="1"/>
      </contour>
      <contour>
        <pt x="284" y="368" on="1"/>
        <pt x="700" y="368" on="1"/>
        <pt x="700" y="1447" on="1"/>
        <pt x="284" y="1447" on="1"/>
      </contour>
    </TTGlyph>
    <TTGlyph name="shaddakasraarabic" xMin="142" yMin="226" xMax="842" yMax="1588">
      <contour>
        <pt x="142" y="226" on="1"/>
        <pt x="142" y="1588" on="1"/>
        <pt x="842" y="1588" on="1"/>
        <pt x="842" y="226" on="1"/>
      </contour>
      <contour>
        <pt x="284" y="368" on="1"/>
        <pt x="700" y="368" on="1"/>
        <pt x="700" y="1447" on="1"/>
        <pt x="284" y="1447" on="1"/>
      </contour>
    </TTGlyph>
    <TTGlyph name="shaddakasratanarabic" xMin="142" yMin="226" xMax="842" yMax="1588">
      <contour>
        <pt x="142" y="226" on="1"/>
        <pt x="142" y="1588" on="1"/>
        <pt x="842" y="1588" on="1"/>
        <pt x="842" y="226" on="1"/>
      </contour>
      <contour>
        <pt x="284" y="368" on="1"/>
        <pt x="700" y="368" on="1"/>
        <pt x="700" y="1447" on="1"/>
        <pt x="284" y="1447" on="1"/>
      </contour>
    </TTGlyph>
    <TTGlyph name="slash" xMin="142" yMin="226" xMax="842" yMax="1588">
      <contour>
        <pt x="142" y="226" on="1"/>
        <pt x="142" y="1588" on="1"/>
        <pt x="842" y="1588" on="1"/>
        <pt x="842" y="226" on="1"/>
      </contour>
      <contour>
        <pt x="284" y="368" on="1"/>
        <pt x="700" y="368" on="1"/>
        <pt x="700" y="1447" on="1"/>
        <pt x="284" y="1447" on="1"/>
      </contour>
    </TTGlyph>
    <TTGlyph name="space" xMin="142" yMin="226" xMax="842" yMax="1588">
      <contour>
        <pt x="142" y="226" on="1"/>
        <pt x="142" y="1588" on="1"/>
        <pt x="842" y="1588" on="1"/>
        <pt x="842" y="226" on="1"/>
      </contour>
      <contour>
        <pt x="284" y="368" on="1"/>
        <pt x="700" y="368" on="1"/>
        <pt x="700" y="1447" on="1"/>
        <pt x="284" y="1447" on="1"/>
      </contour>
    </TTGlyph>
    <TTGlyph name="tchehfinalarabic" xMin="142" yMin="226" xMax="842" yMax="1588">
      <contour>
        <pt x="142" y="226" on="1"/>
        <pt x="142" y="1588" on="1"/>
        <pt x="842" y="1588" on="1"/>
        <pt x="842" y="226" on="1"/>
      </contour>
      <contour>
        <pt x="284" y="368" on="1"/>
        <pt x="700" y="368" on="1"/>
        <pt x="700" y="1447" on="1"/>
        <pt x="284" y="1447" on="1"/>
      </contour>
    </TTGlyph>
    <TTGlyph name="tchehinitialarabic" xMin="142" yMin="226" xMax="842" yMax="1588">
      <contour>
        <pt x="142" y="226" on="1"/>
        <pt x="142" y="1588" on="1"/>
        <pt x="842" y="1588" on="1"/>
        <pt x="842" y="226" on="1"/>
      </contour>
      <contour>
        <pt x="284" y="368" on="1"/>
        <pt x="700" y="368" on="1"/>
        <pt x="700" y="1447" on="1"/>
        <pt x="284" y="1447" on="1"/>
      </contour>
    </TTGlyph>
    <TTGlyph name="tchehmedialarabic" xMin="142" yMin="226" xMax="842" yMax="1588">
      <contour>
        <pt x="142" y="226" on="1"/>
        <pt x="142" y="1588" on="1"/>
        <pt x="842" y="1588" on="1"/>
        <pt x="842" y="226" on="1"/>
      </contour>
      <contour>
        <pt x="284" y="368" on="1"/>
        <pt x="700" y="368" on="1"/>
        <pt x="700" y="1447" on="1"/>
        <pt x="284" y="1447" on="1"/>
      </contour>
    </TTGlyph>
    <TTGlyph name="tehhahisolatedarabic" xMin="142" yMin="226" xMax="842" yMax="1588">
      <contour>
        <pt x="142" y="226" on="1"/>
        <pt x="142" y="1588" on="1"/>
        <pt x="842" y="1588" on="1"/>
        <pt x="842" y="226" on="1"/>
      </contour>
      <contour>
        <pt x="284" y="368" on="1"/>
        <pt x="700" y="368" on="1"/>
        <pt x="700" y="1447" on="1"/>
        <pt x="284" y="1447" on="1"/>
      </contour>
    </TTGlyph>
    <TTGlyph name="tehjeemisolatedarabic" xMin="142" yMin="226" xMax="842" yMax="1588">
      <contour>
        <pt x="142" y="226" on="1"/>
        <pt x="142" y="1588" on="1"/>
        <pt x="842" y="1588" on="1"/>
        <pt x="842" y="226" on="1"/>
      </contour>
      <contour>
        <pt x="284" y="368" on="1"/>
        <pt x="700" y="368" on="1"/>
        <pt x="700" y="1447" on="1"/>
        <pt x="284" y="1447" on="1"/>
      </contour>
    </TTGlyph>
    <TTGlyph name="tehmeemisolatedarabic" xMin="142" yMin="226" xMax="842" yMax="1588">
      <contour>
        <pt x="142" y="226" on="1"/>
        <pt x="142" y="1588" on="1"/>
        <pt x="842" y="1588" on="1"/>
        <pt x="842" y="226" on="1"/>
      </contour>
      <contour>
        <pt x="284" y="368" on="1"/>
        <pt x="700" y="368" on="1"/>
        <pt x="700" y="1447" on="1"/>
        <pt x="284" y="1447" on="1"/>
      </contour>
    </TTGlyph>
    <TTGlyph name="tehnoonfinalarabic" xMin="142" yMin="226" xMax="842" yMax="1588">
      <contour>
        <pt x="142" y="226" on="1"/>
        <pt x="142" y="1588" on="1"/>
        <pt x="842" y="1588" on="1"/>
        <pt x="842" y="226" on="1"/>
      </contour>
      <contour>
        <pt x="284" y="368" on="1"/>
        <pt x="700" y="368" on="1"/>
        <pt x="700" y="1447" on="1"/>
        <pt x="284" y="1447" on="1"/>
      </contour>
    </TTGlyph>
    <TTGlyph name="tehringfinal" xMin="142" yMin="226" xMax="842" yMax="1588">
      <contour>
        <pt x="142" y="226" on="1"/>
        <pt x="142" y="1588" on="1"/>
        <pt x="842" y="1588" on="1"/>
        <pt x="842" y="226" on="1"/>
      </contour>
      <contour>
        <pt x="284" y="368" on="1"/>
        <pt x="700" y="368" on="1"/>
        <pt x="700" y="1447" on="1"/>
        <pt x="284" y="1447" on="1"/>
      </contour>
    </TTGlyph>
    <TTGlyph name="tehringinitial" xMin="142" yMin="226" xMax="842" yMax="1588">
      <contour>
        <pt x="142" y="226" on="1"/>
        <pt x="142" y="1588" on="1"/>
        <pt x="842" y="1588" on="1"/>
        <pt x="842" y="226" on="1"/>
      </contour>
      <contour>
        <pt x="284" y="368" on="1"/>
        <pt x="700" y="368" on="1"/>
        <pt x="700" y="1447" on="1"/>
        <pt x="284" y="1447" on="1"/>
      </contour>
    </TTGlyph>
    <TTGlyph name="tehringmedial" xMin="142" yMin="226" xMax="842" yMax="1588">
      <contour>
        <pt x="142" y="226" on="1"/>
        <pt x="142" y="1588" on="1"/>
        <pt x="842" y="1588" on="1"/>
        <pt x="842" y="226" on="1"/>
      </contour>
      <contour>
        <pt x="284" y="368" on="1"/>
        <pt x="700" y="368" on="1"/>
        <pt x="700" y="1447" on="1"/>
        <pt x="284" y="1447" on="1"/>
      </contour>
    </TTGlyph>
    <TTGlyph name="ttehfinalarabic" xMin="142" yMin="226" xMax="842" yMax="1588">
      <contour>
        <pt x="142" y="226" on="1"/>
        <pt x="142" y="1588" on="1"/>
        <pt x="842" y="1588" on="1"/>
        <pt x="842" y="226" on="1"/>
      </contour>
      <contour>
        <pt x="284" y="368" on="1"/>
        <pt x="700" y="368" on="1"/>
        <pt x="700" y="1447" on="1"/>
        <pt x="284" y="1447" on="1"/>
      </contour>
    </TTGlyph>
    <TTGlyph name="ttehinitialarabic" xMin="142" yMin="226" xMax="842" yMax="1588">
      <contour>
        <pt x="142" y="226" on="1"/>
        <pt x="142" y="1588" on="1"/>
        <pt x="842" y="1588" on="1"/>
        <pt x="842" y="226" on="1"/>
      </contour>
      <contour>
        <pt x="284" y="368" on="1"/>
        <pt x="700" y="368" on="1"/>
        <pt x="700" y="1447" on="1"/>
        <pt x="284" y="1447" on="1"/>
      </contour>
    </TTGlyph>
    <TTGlyph name="ttehmedialarabic" xMin="142" yMin="226" xMax="842" yMax="1588">
      <contour>
        <pt x="142" y="226" on="1"/>
        <pt x="142" y="1588" on="1"/>
        <pt x="842" y="1588" on="1"/>
        <pt x="842" y="226" on="1"/>
      </contour>
      <contour>
        <pt x="284" y="368" on="1"/>
        <pt x="700" y="368" on="1"/>
        <pt x="700" y="1447" on="1"/>
        <pt x="284" y="1447" on="1"/>
      </contour>
    </TTGlyph>
    <TTGlyph name="uni000D" xMin="142" yMin="226" xMax="842" yMax="1588">
      <contour>
        <pt x="142" y="226" on="1"/>
        <pt x="142" y="1588" on="1"/>
        <pt x="842" y="1588" on="1"/>
        <pt x="842" y="226" on="1"/>
      </contour>
      <contour>
        <pt x="284" y="368" on="1"/>
        <pt x="700" y="368" on="1"/>
        <pt x="700" y="1447" on="1"/>
        <pt x="284" y="1447" on="1"/>
      </contour>
    </TTGlyph>
    <TTGlyph name="uni00A0" xMin="142" yMin="226" xMax="842" yMax="1588">
      <contour>
        <pt x="142" y="226" on="1"/>
        <pt x="142" y="1588" on="1"/>
        <pt x="842" y="1588" on="1"/>
        <pt x="842" y="226" on="1"/>
      </contour>
      <contour>
        <pt x="284" y="368" on="1"/>
        <pt x="700" y="368" on="1"/>
        <pt x="700" y="1447" on="1"/>
        <pt x="284" y="1447" on="1"/>
      </contour>
    </TTGlyph>
    <TTGlyph name="uni00AD" xMin="142" yMin="226" xMax="842" yMax="1588">
      <contour>
        <pt x="142" y="226" on="1"/>
        <pt x="142" y="1588" on="1"/>
        <pt x="842" y="1588" on="1"/>
        <pt x="842" y="226" on="1"/>
      </contour>
      <contour>
        <pt x="284" y="368" on="1"/>
        <pt x="700" y="368" on="1"/>
        <pt x="700" y="1447" on="1"/>
        <pt x="284" y="1447" on="1"/>
      </contour>
    </TTGlyph>
    <TTGlyph name="uni0653" xMin="142" yMin="226" xMax="842" yMax="1588">
      <contour>
        <pt x="142" y="226" on="1"/>
        <pt x="142" y="1588" on="1"/>
        <pt x="842" y="1588" on="1"/>
        <pt x="842" y="226" on="1"/>
      </contour>
      <contour>
        <pt x="284" y="368" on="1"/>
        <pt x="700" y="368" on="1"/>
        <pt x="700" y="1447" on="1"/>
        <pt x="284" y="1447" on="1"/>
      </contour>
    </TTGlyph>
    <TTGlyph name="uni0654" xMin="142" yMin="226" xMax="842" yMax="1588">
      <contour>
        <pt x="142" y="226" on="1"/>
        <pt x="142" y="1588" on="1"/>
        <pt x="842" y="1588" on="1"/>
        <pt x="842" y="226" on="1"/>
      </contour>
      <contour>
        <pt x="284" y="368" on="1"/>
        <pt x="700" y="368" on="1"/>
        <pt x="700" y="1447" on="1"/>
        <pt x="284" y="1447" on="1"/>
      </contour>
    </TTGlyph>
    <TTGlyph name="uni0655" xMin="142" yMin="226" xMax="842" yMax="1588">
      <contour>
        <pt x="142" y="226" on="1"/>
        <pt x="142" y="1588" on="1"/>
        <pt x="842" y="1588" on="1"/>
        <pt x="842" y="226" on="1"/>
      </contour>
      <contour>
        <pt x="284" y="368" on="1"/>
        <pt x="700" y="368" on="1"/>
        <pt x="700" y="1447" on="1"/>
        <pt x="284" y="1447" on="1"/>
      </contour>
    </TTGlyph>
    <TTGlyph name="uni066B" xMin="142" yMin="226" xMax="842" yMax="1588">
      <contour>
        <pt x="142" y="226" on="1"/>
        <pt x="142" y="1588" on="1"/>
        <pt x="842" y="1588" on="1"/>
        <pt x="842" y="226" on="1"/>
      </contour>
      <contour>
        <pt x="284" y="368" on="1"/>
        <pt x="700" y="368" on="1"/>
        <pt x="700" y="1447" on="1"/>
        <pt x="284" y="1447" on="1"/>
      </contour>
    </TTGlyph>
    <TTGlyph name="uni066C" xMin="142" yMin="226" xMax="842" yMax="1588">
      <contour>
        <pt x="142" y="226" on="1"/>
        <pt x="142" y="1588" on="1"/>
        <pt x="842" y="1588" on="1"/>
        <pt x="842" y="226" on="1"/>
      </contour>
      <contour>
        <pt x="284" y="368" on="1"/>
        <pt x="700" y="368" on="1"/>
        <pt x="700" y="1447" on="1"/>
        <pt x="284" y="1447" on="1"/>
      </contour>
    </TTGlyph>
    <TTGlyph name="uni0671" xMin="142" yMin="226" xMax="842" yMax="1588">
      <contour>
        <pt x="142" y="226" on="1"/>
        <pt x="142" y="1588" on="1"/>
        <pt x="842" y="1588" on="1"/>
        <pt x="842" y="226" on="1"/>
      </contour>
      <contour>
        <pt x="284" y="368" on="1"/>
        <pt x="700" y="368" on="1"/>
        <pt x="700" y="1447" on="1"/>
        <pt x="284" y="1447" on="1"/>
      </contour>
    </TTGlyph>
    <TTGlyph name="uni067C" xMin="142" yMin="226" xMax="842" yMax="1588">
      <contour>
        <pt x="142" y="226" on="1"/>
        <pt x="142" y="1588" on="1"/>
        <pt x="842" y="1588" on="1"/>
        <pt x="842" y="226" on="1"/>
      </contour>
      <contour>
        <pt x="284" y="368" on="1"/>
        <pt x="700" y="368" on="1"/>
        <pt x="700" y="1447" on="1"/>
        <pt x="284" y="1447" on="1"/>
      </contour>
    </TTGlyph>
    <TTGlyph name="uni0681" xMin="142" yMin="226" xMax="842" yMax="1588">
      <contour>
        <pt x="142" y="226" on="1"/>
        <pt x="142" y="1588" on="1"/>
        <pt x="842" y="1588" on="1"/>
        <pt x="842" y="226" on="1"/>
      </contour>
      <contour>
        <pt x="284" y="368" on="1"/>
        <pt x="700" y="368" on="1"/>
        <pt x="700" y="1447" on="1"/>
        <pt x="284" y="1447" on="1"/>
      </contour>
    </TTGlyph>
    <TTGlyph name="uni0685" xMin="142" yMin="226" xMax="842" yMax="1588">
      <contour>
        <pt x="142" y="226" on="1"/>
        <pt x="142" y="1588" on="1"/>
        <pt x="842" y="1588" on="1"/>
        <pt x="842" y="226" on="1"/>
      </contour>
      <contour>
        <pt x="284" y="368" on="1"/>
        <pt x="700" y="368" on="1"/>
        <pt x="700" y="1447" on="1"/>
        <pt x="284" y="1447" on="1"/>
      </contour>
    </TTGlyph>
    <TTGlyph name="uni0689" xMin="142" yMin="226" xMax="842" yMax="1588">
      <contour>
        <pt x="142" y="226" on="1"/>
        <pt x="142" y="1588" on="1"/>
        <pt x="842" y="1588" on="1"/>
        <pt x="842" y="226" on="1"/>
      </contour>
      <contour>
        <pt x="284" y="368" on="1"/>
        <pt x="700" y="368" on="1"/>
        <pt x="700" y="1447" on="1"/>
        <pt x="284" y="1447" on="1"/>
      </contour>
    </TTGlyph>
    <TTGlyph name="uni0693" xMin="142" yMin="226" xMax="842" yMax="1588">
      <contour>
        <pt x="142" y="226" on="1"/>
        <pt x="142" y="1588" on="1"/>
        <pt x="842" y="1588" on="1"/>
        <pt x="842" y="226" on="1"/>
      </contour>
      <contour>
        <pt x="284" y="368" on="1"/>
        <pt x="700" y="368" on="1"/>
        <pt x="700" y="1447" on="1"/>
        <pt x="284" y="1447" on="1"/>
      </contour>
    </TTGlyph>
    <TTGlyph name="uni0696" xMin="142" yMin="226" xMax="842" yMax="1588">
      <contour>
        <pt x="142" y="226" on="1"/>
        <pt x="142" y="1588" on="1"/>
        <pt x="842" y="1588" on="1"/>
        <pt x="842" y="226" on="1"/>
      </contour>
      <contour>
        <pt x="284" y="368" on="1"/>
        <pt x="700" y="368" on="1"/>
        <pt x="700" y="1447" on="1"/>
        <pt x="284" y="1447" on="1"/>
      </contour>
    </TTGlyph>
    <TTGlyph name="uni069A" xMin="142" yMin="226" xMax="842" yMax="1588">
      <contour>
        <pt x="142" y="226" on="1"/>
        <pt x="142" y="1588" on="1"/>
        <pt x="842" y="1588" on="1"/>
        <pt x="842" y="226" on="1"/>
      </contour>
      <contour>
        <pt x="284" y="368" on="1"/>
        <pt x="700" y="368" on="1"/>
        <pt x="700" y="1447" on="1"/>
        <pt x="284" y="1447" on="1"/>
      </contour>
    </TTGlyph>
    <TTGlyph name="uni06A9" xMin="142" yMin="226" xMax="842" yMax="1588">
      <contour>
        <pt x="142" y="226" on="1"/>
        <pt x="142" y="1588" on="1"/>
        <pt x="842" y="1588" on="1"/>
        <pt x="842" y="226" on="1"/>
      </contour>
      <contour>
        <pt x="284" y="368" on="1"/>
        <pt x="700" y="368" on="1"/>
        <pt x="700" y="1447" on="1"/>
        <pt x="284" y="1447" on="1"/>
      </contour>
    </TTGlyph>
    <TTGlyph name="uni06AB" xMin="142" yMin="226" xMax="842" yMax="1588">
      <contour>
        <pt x="142" y="226" on="1"/>
        <pt x="142" y="1588" on="1"/>
        <pt x="842" y="1588" on="1"/>
        <pt x="842" y="226" on="1"/>
      </contour>
      <contour>
        <pt x="284" y="368" on="1"/>
        <pt x="700" y="368" on="1"/>
        <pt x="700" y="1447" on="1"/>
        <pt x="284" y="1447" on="1"/>
      </contour>
    </TTGlyph>
    <TTGlyph name="uni06B7" xMin="142" yMin="226" xMax="842" yMax="1588">
      <contour>
        <pt x="142" y="226" on="1"/>
        <pt x="142" y="1588" on="1"/>
        <pt x="842" y="1588" on="1"/>
        <pt x="842" y="226" on="1"/>
      </contour>
      <contour>
        <pt x="284" y="368" on="1"/>
        <pt x="700" y="368" on="1"/>
        <pt x="700" y="1447" on="1"/>
        <pt x="284" y="1447" on="1"/>
      </contour>
    </TTGlyph>
    <TTGlyph name="uni06BC" xMin="142" yMin="226" xMax="842" yMax="1588">
      <contour>
        <pt x="142" y="226" on="1"/>
        <pt x="142" y="1588" on="1"/>
        <pt x="842" y="1588" on="1"/>
        <pt x="842" y="226" on="1"/>
      </contour>
      <contour>
        <pt x="284" y="368" on="1"/>
        <pt x="700" y="368" on="1"/>
        <pt x="700" y="1447" on="1"/>
        <pt x="284" y="1447" on="1"/>
      </contour>
    </TTGlyph>
    <TTGlyph name="uni06BE" xMin="142" yMin="226" xMax="842" yMax="1588">
      <contour>
        <pt x="142" y="226" on="1"/>
        <pt x="142" y="1588" on="1"/>
        <pt x="842" y="1588" on="1"/>
        <pt x="842" y="226" on="1"/>
      </contour>
      <contour>
        <pt x="284" y="368" on="1"/>
        <pt x="700" y="368" on="1"/>
        <pt x="700" y="1447" on="1"/>
        <pt x="284" y="1447" on="1"/>
      </contour>
    </TTGlyph>
    <TTGlyph name="uni06C2" xMin="142" yMin="226" xMax="842" yMax="1588">
      <contour>
        <pt x="142" y="226" on="1"/>
        <pt x="142" y="1588" on="1"/>
        <pt x="842" y="1588" on="1"/>
        <pt x="842" y="226" on="1"/>
      </contour>
      <contour>
        <pt x="284" y="368" on="1"/>
        <pt x="700" y="368" on="1"/>
        <pt x="700" y="1447" on="1"/>
        <pt x="284" y="1447" on="1"/>
      </contour>
    </TTGlyph>
    <TTGlyph name="uni06C7" xMin="142" yMin="226" xMax="842" yMax="1588">
      <contour>
        <pt x="142" y="226" on="1"/>
        <pt x="142" y="1588" on="1"/>
        <pt x="842" y="1588" on="1"/>
        <pt x="842" y="226" on="1"/>
      </contour>
      <contour>
        <pt x="284" y="368" on="1"/>
        <pt x="700" y="368" on="1"/>
        <pt x="700" y="1447" on="1"/>
        <pt x="284" y="1447" on="1"/>
      </contour>
    </TTGlyph>
    <TTGlyph name="uni06C9" xMin="142" yMin="226" xMax="842" yMax="1588">
      <contour>
        <pt x="142" y="226" on="1"/>
        <pt x="142" y="1588" on="1"/>
        <pt x="842" y="1588" on="1"/>
        <pt x="842" y="226" on="1"/>
      </contour>
      <contour>
        <pt x="284" y="368" on="1"/>
        <pt x="700" y="368" on="1"/>
        <pt x="700" y="1447" on="1"/>
        <pt x="284" y="1447" on="1"/>
      </contour>
    </TTGlyph>
    <TTGlyph name="uni06CC" xMin="142" yMin="226" xMax="842" yMax="1588">
      <contour>
        <pt x="142" y="226" on="1"/>
        <pt x="142" y="1588" on="1"/>
        <pt x="842" y="1588" on="1"/>
        <pt x="842" y="226" on="1"/>
      </contour>
      <contour>
        <pt x="284" y="368" on="1"/>
        <pt x="700" y="368" on="1"/>
        <pt x="700" y="1447" on="1"/>
        <pt x="284" y="1447" on="1"/>
      </contour>
    </TTGlyph>
    <TTGlyph name="uni06CD" xMin="142" yMin="226" xMax="842" yMax="1588">
      <contour>
        <pt x="142" y="226" on="1"/>
        <pt x="142" y="1588" on="1"/>
        <pt x="842" y="1588" on="1"/>
        <pt x="842" y="226" on="1"/>
      </contour>
      <contour>
        <pt x="284" y="368" on="1"/>
        <pt x="700" y="368" on="1"/>
        <pt x="700" y="1447" on="1"/>
        <pt x="284" y="1447" on="1"/>
      </contour>
    </TTGlyph>
    <TTGlyph name="uni06D0" xMin="142" yMin="226" xMax="842" yMax="1588">
      <contour>
        <pt x="142" y="226" on="1"/>
        <pt x="142" y="1588" on="1"/>
        <pt x="842" y="1588" on="1"/>
        <pt x="842" y="226" on="1"/>
      </contour>
      <contour>
        <pt x="284" y="368" on="1"/>
        <pt x="700" y="368" on="1"/>
        <pt x="700" y="1447" on="1"/>
        <pt x="284" y="1447" on="1"/>
      </contour>
    </TTGlyph>
    <TTGlyph name="uni06D1" xMin="142" yMin="226" xMax="842" yMax="1588">
      <contour>
        <pt x="142" y="226" on="1"/>
        <pt x="142" y="1588" on="1"/>
        <pt x="842" y="1588" on="1"/>
        <pt x="842" y="226" on="1"/>
      </contour>
      <contour>
        <pt x="284" y="368" on="1"/>
        <pt x="700" y="368" on="1"/>
        <pt x="700" y="1447" on="1"/>
        <pt x="284" y="1447" on="1"/>
      </contour>
    </TTGlyph>
    <TTGlyph name="uni06D3" xMin="142" yMin="226" xMax="842" yMax="1588">
      <contour>
        <pt x="142" y="226" on="1"/>
        <pt x="142" y="1588" on="1"/>
        <pt x="842" y="1588" on="1"/>
        <pt x="842" y="226" on="1"/>
      </contour>
      <contour>
        <pt x="284" y="368" on="1"/>
        <pt x="700" y="368" on="1"/>
        <pt x="700" y="1447" on="1"/>
        <pt x="284" y="1447" on="1"/>
      </contour>
    </TTGlyph>
    <TTGlyph name="uni06D4" xMin="142" yMin="226" xMax="842" yMax="1588">
      <contour>
        <pt x="142" y="226" on="1"/>
        <pt x="142" y="1588" on="1"/>
        <pt x="842" y="1588" on="1"/>
        <pt x="842" y="226" on="1"/>
      </contour>
      <contour>
        <pt x="284" y="368" on="1"/>
        <pt x="700" y="368" on="1"/>
        <pt x="700" y="1447" on="1"/>
        <pt x="284" y="1447" on="1"/>
      </contour>
    </TTGlyph>
    <TTGlyph name="uni06F0" xMin="142" yMin="226" xMax="842" yMax="1588">
      <contour>
        <pt x="142" y="226" on="1"/>
        <pt x="142" y="1588" on="1"/>
        <pt x="842" y="1588" on="1"/>
        <pt x="842" y="226" on="1"/>
      </contour>
      <contour>
        <pt x="284" y="368" on="1"/>
        <pt x="700" y="368" on="1"/>
        <pt x="700" y="1447" on="1"/>
        <pt x="284" y="1447" on="1"/>
      </contour>
    </TTGlyph>
    <TTGlyph name="uni06F1" xMin="142" yMin="226" xMax="842" yMax="1588">
      <contour>
        <pt x="142" y="226" on="1"/>
        <pt x="142" y="1588" on="1"/>
        <pt x="842" y="1588" on="1"/>
        <pt x="842" y="226" on="1"/>
      </contour>
      <contour>
        <pt x="284" y="368" on="1"/>
        <pt x="700" y="368" on="1"/>
        <pt x="700" y="1447" on="1"/>
        <pt x="284" y="1447" on="1"/>
      </contour>
    </TTGlyph>
    <TTGlyph name="uni06F2" xMin="142" yMin="226" xMax="842" yMax="1588">
      <contour>
        <pt x="142" y="226" on="1"/>
        <pt x="142" y="1588" on="1"/>
        <pt x="842" y="1588" on="1"/>
        <pt x="842" y="226" on="1"/>
      </contour>
      <contour>
        <pt x="284" y="368" on="1"/>
        <pt x="700" y="368" on="1"/>
        <pt x="700" y="1447" on="1"/>
        <pt x="284" y="1447" on="1"/>
      </contour>
    </TTGlyph>
    <TTGlyph name="uni06F3" xMin="142" yMin="226" xMax="842" yMax="1588">
      <contour>
        <pt x="142" y="226" on="1"/>
        <pt x="142" y="1588" on="1"/>
        <pt x="842" y="1588" on="1"/>
        <pt x="842" y="226" on="1"/>
      </contour>
      <contour>
        <pt x="284" y="368" on="1"/>
        <pt x="700" y="368" on="1"/>
        <pt x="700" y="1447" on="1"/>
        <pt x="284" y="1447" on="1"/>
      </contour>
    </TTGlyph>
    <TTGlyph name="uni06F4" xMin="142" yMin="226" xMax="842" yMax="1588">
      <contour>
        <pt x="142" y="226" on="1"/>
        <pt x="142" y="1588" on="1"/>
        <pt x="842" y="1588" on="1"/>
        <pt x="842" y="226" on="1"/>
      </contour>
      <contour>
        <pt x="284" y="368" on="1"/>
        <pt x="700" y="368" on="1"/>
        <pt x="700" y="1447" on="1"/>
        <pt x="284" y="1447" on="1"/>
      </contour>
    </TTGlyph>
    <TTGlyph name="uni06F5" xMin="142" yMin="226" xMax="842" yMax="1588">
      <contour>
        <pt x="142" y="226" on="1"/>
        <pt x="142" y="1588" on="1"/>
        <pt x="842" y="1588" on="1"/>
        <pt x="842" y="226" on="1"/>
      </contour>
      <contour>
        <pt x="284" y="368" on="1"/>
        <pt x="700" y="368" on="1"/>
        <pt x="700" y="1447" on="1"/>
        <pt x="284" y="1447" on="1"/>
      </contour>
    </TTGlyph>
    <TTGlyph name="uni06F6" xMin="142" yMin="226" xMax="842" yMax="1588">
      <contour>
        <pt x="142" y="226" on="1"/>
        <pt x="142" y="1588" on="1"/>
        <pt x="842" y="1588" on="1"/>
        <pt x="842" y="226" on="1"/>
      </contour>
      <contour>
        <pt x="284" y="368" on="1"/>
        <pt x="700" y="368" on="1"/>
        <pt x="700" y="1447" on="1"/>
        <pt x="284" y="1447" on="1"/>
      </contour>
    </TTGlyph>
    <TTGlyph name="uni06F7" xMin="142" yMin="226" xMax="842" yMax="1588">
      <contour>
        <pt x="142" y="226" on="1"/>
        <pt x="142" y="1588" on="1"/>
        <pt x="842" y="1588" on="1"/>
        <pt x="842" y="226" on="1"/>
      </contour>
      <contour>
        <pt x="284" y="368" on="1"/>
        <pt x="700" y="368" on="1"/>
        <pt x="700" y="1447" on="1"/>
        <pt x="284" y="1447" on="1"/>
      </contour>
    </TTGlyph>
    <TTGlyph name="uni06F8" xMin="142" yMin="226" xMax="842" yMax="1588">
      <contour>
        <pt x="142" y="226" on="1"/>
        <pt x="142" y="1588" on="1"/>
        <pt x="842" y="1588" on="1"/>
        <pt x="842" y="226" on="1"/>
      </contour>
      <contour>
        <pt x="284" y="368" on="1"/>
        <pt x="700" y="368" on="1"/>
        <pt x="700" y="1447" on="1"/>
        <pt x="284" y="1447" on="1"/>
      </contour>
    </TTGlyph>
    <TTGlyph name="uni06F9" xMin="142" yMin="226" xMax="842" yMax="1588">
      <contour>
        <pt x="142" y="226" on="1"/>
        <pt x="142" y="1588" on="1"/>
        <pt x="842" y="1588" on="1"/>
        <pt x="842" y="226" on="1"/>
      </contour>
      <contour>
        <pt x="284" y="368" on="1"/>
        <pt x="700" y="368" on="1"/>
        <pt x="700" y="1447" on="1"/>
        <pt x="284" y="1447" on="1"/>
      </contour>
    </TTGlyph>
    <TTGlyph name="uni2010" xMin="326" yMin="-358" xMax="2763" yMax="1484">
      <contour>
        <pt x="2691" y="1448" on="1"/>
        <pt x="2685" y="1430" on="0"/>
        <pt x="2669" y="1406" on="1"/>
        <pt x="2479" y="1295" on="0"/>
        <pt x="2163" y="1136" on="1"/>
        <pt x="2149" y="1138" on="0"/>
        <pt x="2149" y="1162" on="1"/>
        <pt x="2149" y="1212" on="0"/>
        <pt x="2380" y="1339" on="1"/>
        <pt x="2558" y="1436" on="0"/>
        <pt x="2678" y="1484" on="1"/>
      </contour>
      <contour>
        <pt x="2528" y="906" on="1"/>
        <pt x="2528" y="878" on="0"/>
        <pt x="2463" y="809" on="0"/>
        <pt x="2446" y="809" on="1"/>
        <pt x="2409" y="809" on="0"/>
        <pt x="2354" y="862" on="1"/>
        <pt x="2354" y="899" on="0"/>
        <pt x="2378" y="939" on="1"/>
        <pt x="2404" y="983" on="0"/>
        <pt x="2435" y="983" on="1"/>
        <pt x="2455" y="983" on="0"/>
        <pt x="2528" y="925" on="0"/>
      </contour>
      <contour>
        <pt x="2036" y="1425" on="1"/>
        <pt x="2020" y="1407" on="0"/>
        <pt x="1982" y="1375" on="1"/>
        <pt x="1813" y="1281" on="0"/>
        <pt x="1470" y="1086" on="1"/>
        <pt x="1423" y="1086" on="1"/>
        <pt x="1428" y="1110" on="0"/>
        <pt x="1435" y="1144" on="1"/>
        <pt x="1570" y="1242" on="0"/>
        <pt x="1989" y="1473" on="1"/>
        <pt x="2036" y="1473" on="1"/>
      </contour>
      <contour>
        <pt x="1166" y="1339" on="1"/>
        <pt x="1161" y="1267" on="0"/>
        <pt x="1040" y="1200" on="1"/>
        <pt x="953" y="1158" on="0"/>
        <pt x="865" y="1116" on="1"/>
        <pt x="822" y="1116" on="0"/>
        <pt x="776" y="1128" on="0"/>
        <pt x="778" y="1128" on="1"/>
        <pt x="790" y="1171" on="0"/>
        <pt x="850" y="1198" on="1"/>
        <pt x="952" y="1244" on="0"/>
        <pt x="981" y="1265" on="1"/>
        <pt x="948" y="1311" on="0"/>
        <pt x="885" y="1311" on="1"/>
        <pt x="858" y="1311" on="0"/>
        <pt x="759" y="1261" on="1"/>
        <pt x="812" y="1413" on="0"/>
        <pt x="931" y="1413" on="1"/>
        <pt x="1046" y="1413" on="0"/>
      </contour>
      <contour>
        <pt x="2763" y="297" on="1"/>
        <pt x="2763" y="223" on="0"/>
        <pt x="2739" y="167" on="1"/>
        <pt x="2692" y="61" on="0"/>
        <pt x="2483" y="13" on="1"/>
        <pt x="2381" y="-10" on="0"/>
        <pt x="2185" y="-10" on="1"/>
        <pt x="2130" y="-10" on="0"/>
        <pt x="2084" y="0" on="1"/>
        <pt x="2067" y="-16" on="1"/>
        <pt x="2118" y="-84" on="0"/>
        <pt x="2118" y="-154" on="1"/>
        <pt x="2118" y="-233" on="0"/>
        <pt x="2071" y="-294" on="1"/>
        <pt x="2020" y="-358" on="0"/>
        <pt x="1944" y="-358" on="1"/>
        <pt x="1891" y="-358" on="0"/>
        <pt x="1867" y="-346" on="1"/>
        <pt x="1828" y="-326" on="0"/>
        <pt x="1774" y="-253" on="1"/>
        <pt x="1737" y="-204" on="0"/>
        <pt x="1706" y="-89" on="1"/>
        <pt x="1695" y="-75" on="0"/>
        <pt x="1642" y="-67" on="1"/>
        <pt x="1622" y="-12" on="0"/>
        <pt x="1603" y="-12" on="1"/>
        <pt x="1598" y="-12" on="0"/>
        <pt x="1574" y="-20" on="0"/>
        <pt x="1565" y="-20" on="1"/>
        <pt x="1552" y="-20" on="0"/>
        <pt x="1414" y="-31" on="0"/>
        <pt x="1402" y="-31" on="1"/>
        <pt x="1185" y="-31" on="0"/>
        <pt x="1090" y="82" on="1"/>
        <pt x="1088" y="71" on="0"/>
        <pt x="1080" y="-47" on="1"/>
        <pt x="1074" y="-134" on="0"/>
        <pt x="1038" y="-182" on="1"/>
        <pt x="993" y="-244" on="0"/>
        <pt x="751" y="-358" on="0"/>
        <pt x="668" y="-358" on="1"/>
        <pt x="599" y="-358" on="1"/>
        <pt x="500" y="-358" on="0"/>
        <pt x="411" y="-263" on="1"/>
        <pt x="326" y="-172" on="0"/>
        <pt x="326" y="-81" on="1"/>
        <pt x="326" y="-17" on="0"/>
        <pt x="384" y="93" on="1"/>
        <pt x="441" y="202" on="0"/>
        <pt x="489" y="235" on="1"/>
        <pt x="489" y="188" on="1"/>
        <pt x="490" y="172" on="0"/>
        <pt x="478" y="161" on="1"/>
        <pt x="470" y="154" on="0"/>
        <pt x="461" y="146" on="1"/>
        <pt x="428" y="15" on="0"/>
        <pt x="428" y="0" on="1"/>
        <pt x="428" y="-104" on="0"/>
        <pt x="519" y="-159" on="1"/>
        <pt x="595" y="-204" on="0"/>
        <pt x="705" y="-204" on="1"/>
        <pt x="777" y="-204" on="0"/>
        <pt x="872" y="-166" on="1"/>
        <pt x="992" y="-117" on="0"/>
        <pt x="992" y="-45" on="1"/>
        <pt x="879" y="881" on="1"/>
        <pt x="879" y="974" on="0"/>
        <pt x="947" y="1064" on="1"/>
        <pt x="999" y="843" on="0"/>
        <pt x="1097" y="406" on="1"/>
        <pt x="1139" y="211" on="0"/>
        <pt x="1232" y="157" on="1"/>
        <pt x="1290" y="123" on="0"/>
        <pt x="1458" y="123" on="1"/>
        <pt x="1631" y="123" on="0"/>
        <pt x="1691" y="156" on="1"/>
        <pt x="1740" y="260" on="0"/>
        <pt x="1789" y="364" on="1"/>
        <pt x="1890" y="563" on="0"/>
        <pt x="1969" y="563" on="1"/>
        <pt x="2009" y="563" on="0"/>
        <pt x="2036" y="479" on="1"/>
        <pt x="2057" y="418" on="0"/>
        <pt x="2057" y="389" on="1"/>
        <pt x="2057" y="344" on="0"/>
        <pt x="2012" y="229" on="1"/>
        <pt x="1996" y="188" on="0"/>
        <pt x="1954" y="147" on="1"/>
        <pt x="1954" y="112" on="0"/>
        <pt x="1985" y="112" on="1"/>
        <pt x="2154" y="112" on="1"/>
        <pt x="2195" y="112" on="0"/>
        <pt x="2532" y="166" on="1"/>
        <pt x="2602" y="177" on="0"/>
        <pt x="2671" y="232" on="1"/>
        <pt x="2677" y="257" on="0"/>
        <pt x="2644" y="307" on="1"/>
        <pt x="2634" y="304" on="0"/>
        <pt x="2594" y="266" on="1"/>
        <pt x="2560" y="235" on="0"/>
        <pt x="2528" y="235" on="1"/>
        <pt x="2470" y="235" on="0"/>
        <pt x="2426" y="289" on="1"/>
        <pt x="2385" y="339" on="0"/>
        <pt x="2385" y="394" on="1"/>
        <pt x="2385" y="448" on="0"/>
        <pt x="2424" y="538" on="1"/>
        <pt x="2475" y="655" on="0"/>
        <pt x="2543" y="655" on="1"/>
        <pt x="2633" y="655" on="0"/>
        <pt x="2706" y="492" on="1"/>
        <pt x="2763" y="363" on="0"/>
      </contour>
      <contour>
        <pt x="2578" y="411" on="1"/>
        <pt x="2571" y="434" on="0"/>
        <pt x="2525" y="480" on="0"/>
        <pt x="2509" y="480" on="1"/>
        <pt x="2497" y="433" on="1"/>
        <pt x="2503" y="428" on="0"/>
        <pt x="2528" y="404" on="0"/>
        <pt x="2533" y="399" on="1"/>
        <pt x="2545" y="411" on="0"/>
      </contour>
      <contour>
        <pt x="1955" y="307" on="1"/>
        <pt x="1955" y="354" on="0"/>
        <pt x="1919" y="389" on="1"/>
        <pt x="1900" y="376" on="0"/>
        <pt x="1853" y="319" on="1"/>
        <pt x="1801" y="254" on="0"/>
        <pt x="1802" y="229" on="1"/>
        <pt x="1802" y="195" on="1"/>
        <pt x="1846" y="213" on="0"/>
        <pt x="1890" y="230" on="1"/>
        <pt x="1955" y="262" on="0"/>
      </contour>
      <contour>
        <pt x="2005" y="-158" on="1"/>
        <pt x="1973" y="-131" on="0"/>
        <pt x="1940" y="-104" on="1"/>
        <pt x="1902" y="-72" on="0"/>
        <pt x="1887" y="-72" on="1"/>
        <pt x="1822" y="-72" on="1"/>
        <pt x="1856" y="-184" on="0"/>
        <pt x="1949" y="-184" on="1"/>
        <pt x="1982" y="-184" on="0"/>
      </contour>
    </TTGlyph>
    <TTGlyph name="uni2011" xMin="326" yMin="-358" xMax="2763" yMax="1484">
      <contour>
        <pt x="2691" y="1448" on="1"/>
        <pt x="2685" y="1430" on="0"/>
        <pt x="2669" y="1406" on="1"/>
        <pt x="2479" y="1295" on="0"/>
        <pt x="2163" y="1136" on="1"/>
        <pt x="2149" y="1138" on="0"/>
        <pt x="2149" y="1162" on="1"/>
        <pt x="2149" y="1212" on="0"/>
        <pt x="2380" y="1339" on="1"/>
        <pt x="2558" y="1436" on="0"/>
        <pt x="2678" y="1484" on="1"/>
      </contour>
      <contour>
        <pt x="2528" y="906" on="1"/>
        <pt x="2528" y="878" on="0"/>
        <pt x="2463" y="809" on="0"/>
        <pt x="2446" y="809" on="1"/>
        <pt x="2409" y="809" on="0"/>
        <pt x="2354" y="862" on="1"/>
        <pt x="2354" y="899" on="0"/>
        <pt x="2378" y="939" on="1"/>
        <pt x="2404" y="983" on="0"/>
        <pt x="2435" y="983" on="1"/>
        <pt x="2455" y="983" on="0"/>
        <pt x="2528" y="925" on="0"/>
      </contour>
      <contour>
        <pt x="2036" y="1425" on="1"/>
        <pt x="2020" y="1407" on="0"/>
        <pt x="1982" y="1375" on="1"/>
        <pt x="1813" y="1281" on="0"/>
        <pt x="1470" y="1086" on="1"/>
        <pt x="1423" y="1086" on="1"/>
        <pt x="1428" y="1110" on="0"/>
        <pt x="1435" y="1144" on="1"/>
        <pt x="1570" y="1242" on="0"/>
        <pt x="1989" y="1473" on="1"/>
        <pt x="2036" y="1473" on="1"/>
      </contour>
      <contour>
        <pt x="1166" y="1339" on="1"/>
        <pt x="1161" y="1267" on="0"/>
        <pt x="1040" y="1200" on="1"/>
        <pt x="953" y="1158" on="0"/>
        <pt x="865" y="1116" on="1"/>
        <pt x="822" y="1116" on="0"/>
        <pt x="776" y="1128" on="0"/>
        <pt x="778" y="1128" on="1"/>
        <pt x="790" y="1171" on="0"/>
        <pt x="850" y="1198" on="1"/>
        <pt x="952" y="1244" on="0"/>
        <pt x="981" y="1265" on="1"/>
        <pt x="948" y="1311" on="0"/>
        <pt x="885" y="1311" on="1"/>
        <pt x="858" y="1311" on="0"/>
        <pt x="759" y="1261" on="1"/>
        <pt x="812" y="1413" on="0"/>
        <pt x="931" y="1413" on="1"/>
        <pt x="1046" y="1413" on="0"/>
      </contour>
      <contour>
        <pt x="2763" y="297" on="1"/>
        <pt x="2763" y="223" on="0"/>
        <pt x="2739" y="167" on="1"/>
        <pt x="2692" y="61" on="0"/>
        <pt x="2483" y="13" on="1"/>
        <pt x="2381" y="-10" on="0"/>
        <pt x="2185" y="-10" on="1"/>
        <pt x="2130" y="-10" on="0"/>
        <pt x="2084" y="0" on="1"/>
        <pt x="2067" y="-16" on="1"/>
        <pt x="2118" y="-84" on="0"/>
        <pt x="2118" y="-154" on="1"/>
        <pt x="2118" y="-233" on="0"/>
        <pt x="2071" y="-294" on="1"/>
        <pt x="2020" y="-358" on="0"/>
        <pt x="1944" y="-358" on="1"/>
        <pt x="1891" y="-358" on="0"/>
        <pt x="1867" y="-346" on="1"/>
        <pt x="1828" y="-326" on="0"/>
        <pt x="1774" y="-253" on="1"/>
        <pt x="1737" y="-204" on="0"/>
        <pt x="1706" y="-89" on="1"/>
        <pt x="1695" y="-75" on="0"/>
        <pt x="1642" y="-67" on="1"/>
        <pt x="1622" y="-12" on="0"/>
        <pt x="1603" y="-12" on="1"/>
        <pt x="1598" y="-12" on="0"/>
        <pt x="1574" y="-20" on="0"/>
        <pt x="1565" y="-20" on="1"/>
        <pt x="1552" y="-20" on="0"/>
        <pt x="1414" y="-31" on="0"/>
        <pt x="1402" y="-31" on="1"/>
        <pt x="1185" y="-31" on="0"/>
        <pt x="1090" y="82" on="1"/>
        <pt x="1088" y="71" on="0"/>
        <pt x="1080" y="-47" on="1"/>
        <pt x="1074" y="-134" on="0"/>
        <pt x="1038" y="-182" on="1"/>
        <pt x="993" y="-244" on="0"/>
        <pt x="751" y="-358" on="0"/>
        <pt x="668" y="-358" on="1"/>
        <pt x="599" y="-358" on="1"/>
        <pt x="500" y="-358" on="0"/>
        <pt x="411" y="-263" on="1"/>
        <pt x="326" y="-172" on="0"/>
        <pt x="326" y="-81" on="1"/>
        <pt x="326" y="-17" on="0"/>
        <pt x="384" y="93" on="1"/>
        <pt x="441" y="202" on="0"/>
        <pt x="489" y="235" on="1"/>
        <pt x="489" y="188" on="1"/>
        <pt x="490" y="172" on="0"/>
        <pt x="478" y="161" on="1"/>
        <pt x="470" y="154" on="0"/>
        <pt x="461" y="146" on="1"/>
        <pt x="428" y="15" on="0"/>
        <pt x="428" y="0" on="1"/>
        <pt x="428" y="-104" on="0"/>
        <pt x="519" y="-159" on="1"/>
        <pt x="595" y="-204" on="0"/>
        <pt x="705" y="-204" on="1"/>
        <pt x="777" y="-204" on="0"/>
        <pt x="872" y="-166" on="1"/>
        <pt x="992" y="-117" on="0"/>
        <pt x="992" y="-45" on="1"/>
        <pt x="879" y="881" on="1"/>
        <pt x="879" y="974" on="0"/>
        <pt x="947" y="1064" on="1"/>
        <pt x="999" y="843" on="0"/>
        <pt x="1097" y="406" on="1"/>
        <pt x="1139" y="211" on="0"/>
        <pt x="1232" y="157" on="1"/>
        <pt x="1290" y="123" on="0"/>
        <pt x="1458" y="123" on="1"/>
        <pt x="1631" y="123" on="0"/>
        <pt x="1691" y="156" on="1"/>
        <pt x="1740" y="260" on="0"/>
        <pt x="1789" y="364" on="1"/>
        <pt x="1890" y="563" on="0"/>
        <pt x="1969" y="563" on="1"/>
        <pt x="2009" y="563" on="0"/>
        <pt x="2036" y="479" on="1"/>
        <pt x="2057" y="418" on="0"/>
        <pt x="2057" y="389" on="1"/>
        <pt x="2057" y="344" on="0"/>
        <pt x="2012" y="229" on="1"/>
        <pt x="1996" y="188" on="0"/>
        <pt x="1954" y="147" on="1"/>
        <pt x="1954" y="112" on="0"/>
        <pt x="1985" y="112" on="1"/>
        <pt x="2154" y="112" on="1"/>
        <pt x="2195" y="112" on="0"/>
        <pt x="2532" y="166" on="1"/>
        <pt x="2602" y="177" on="0"/>
        <pt x="2671" y="232" on="1"/>
        <pt x="2677" y="257" on="0"/>
        <pt x="2644" y="307" on="1"/>
        <pt x="2634" y="304" on="0"/>
        <pt x="2594" y="266" on="1"/>
        <pt x="2560" y="235" on="0"/>
        <pt x="2528" y="235" on="1"/>
        <pt x="2470" y="235" on="0"/>
        <pt x="2426" y="289" on="1"/>
        <pt x="2385" y="339" on="0"/>
        <pt x="2385" y="394" on="1"/>
        <pt x="2385" y="448" on="0"/>
        <pt x="2424" y="538" on="1"/>
        <pt x="2475" y="655" on="0"/>
        <pt x="2543" y="655" on="1"/>
        <pt x="2633" y="655" on="0"/>
        <pt x="2706" y="492" on="1"/>
        <pt x="2763" y="363" on="0"/>
      </contour>
      <contour>
        <pt x="2578" y="411" on="1"/>
        <pt x="2571" y="434" on="0"/>
        <pt x="2525" y="480" on="0"/>
        <pt x="2509" y="480" on="1"/>
        <pt x="2497" y="433" on="1"/>
        <pt x="2503" y="428" on="0"/>
        <pt x="2528" y="404" on="0"/>
        <pt x="2533" y="399" on="1"/>
        <pt x="2545" y="411" on="0"/>
      </contour>
      <contour>
        <pt x="1955" y="307" on="1"/>
        <pt x="1955" y="354" on="0"/>
        <pt x="1919" y="389" on="1"/>
        <pt x="1900" y="376" on="0"/>
        <pt x="1853" y="319" on="1"/>
        <pt x="1801" y="254" on="0"/>
        <pt x="1802" y="229" on="1"/>
        <pt x="1802" y="195" on="1"/>
        <pt x="1846" y="213" on="0"/>
        <pt x="1890" y="230" on="1"/>
        <pt x="1955" y="262" on="0"/>
      </contour>
      <contour>
        <pt x="2005" y="-158" on="1"/>
        <pt x="1973" y="-131" on="0"/>
        <pt x="1940" y="-104" on="1"/>
        <pt x="1902" y="-72" on="0"/>
        <pt x="1887" y="-72" on="1"/>
        <pt x="1822" y="-72" on="1"/>
        <pt x="1856" y="-184" on="0"/>
        <pt x="1949" y="-184" on="1"/>
        <pt x="1982" y="-184" on="0"/>
      </contour>
    </TTGlyph>
    <TTGlyph name="uniE000" xMin="0" yMin="0" xMax="1805" yMax="1805">
      <contour>
        <pt x="0" y="1805" on="1"/>
        <pt x="1805" y="1805" on="1"/>
        <pt x="1805" y="0" on="1"/>
        <pt x="0" y="0" on="1"/>
      </contour>
    </TTGlyph>
    <TTGlyph name="uniFB51" xMin="327" yMin="-307" xMax="3285" yMax="1525">
      <contour>
        <pt x="3285" y="1325" on="1"/>
        <pt x="3285" y="1282" on="0"/>
        <pt x="3101" y="1162" on="1"/>
        <pt x="2987" y="1088" on="0"/>
        <pt x="2872" y="1014" on="1"/>
        <pt x="2838" y="1014" on="1"/>
        <pt x="2825" y="1027" on="0"/>
        <pt x="2825" y="1044" on="1"/>
        <pt x="2825" y="1089" on="0"/>
        <pt x="2861" y="1111" on="1"/>
        <pt x="3043" y="1228" on="0"/>
        <pt x="3272" y="1351" on="1"/>
        <pt x="3285" y="1349" on="0"/>
      </contour>
      <contour>
        <pt x="2824" y="1525" on="1"/>
        <pt x="2818" y="1466" on="0"/>
        <pt x="2715" y="1399" on="1"/>
        <pt x="2636" y="1353" on="0"/>
        <pt x="2556" y="1307" on="1"/>
        <pt x="2491" y="1261" on="0"/>
        <pt x="2371" y="1178" on="1"/>
        <pt x="2334" y="1178" on="1"/>
        <pt x="2334" y="1232" on="1"/>
        <pt x="2333" y="1254" on="0"/>
        <pt x="2544" y="1391" on="1"/>
        <pt x="2751" y="1525" on="0"/>
        <pt x="2770" y="1525" on="1"/>
      </contour>
      <contour>
        <pt x="2620" y="817" on="1"/>
        <pt x="2620" y="798" on="0"/>
        <pt x="2599" y="753" on="1"/>
        <pt x="2572" y="696" on="0"/>
        <pt x="2543" y="696" on="1"/>
        <pt x="2523" y="696" on="0"/>
        <pt x="2436" y="763" on="0"/>
        <pt x="2436" y="778" on="1"/>
        <pt x="2436" y="797" on="0"/>
        <pt x="2464" y="837" on="1"/>
        <pt x="2495" y="881" on="0"/>
        <pt x="2518" y="881" on="1"/>
        <pt x="2554" y="881" on="0"/>
      </contour>
      <contour>
        <pt x="2661" y="312" on="1"/>
        <pt x="2661" y="276" on="0"/>
        <pt x="2642" y="202" on="1"/>
        <pt x="2620" y="115" on="0"/>
        <pt x="2596" y="105" on="1"/>
        <pt x="2502" y="66" on="0"/>
        <pt x="2476" y="62" on="1"/>
        <pt x="2472" y="61" on="0"/>
        <pt x="2395" y="61" on="1"/>
        <pt x="2298" y="61" on="0"/>
        <pt x="2284" y="75" on="1"/>
        <pt x="2240" y="118" on="0"/>
        <pt x="2223" y="198" on="1"/>
        <pt x="2210" y="261" on="0"/>
        <pt x="2210" y="364" on="1"/>
        <pt x="2128" y="1044" on="1"/>
        <pt x="2128" y="1078" on="0"/>
        <pt x="2160" y="1135" on="1"/>
        <pt x="2189" y="1185" on="0"/>
        <pt x="2205" y="1198" on="1"/>
        <pt x="2213" y="1185" on="0"/>
        <pt x="2227" y="1163" on="1"/>
        <pt x="2256" y="898" on="0"/>
        <pt x="2309" y="415" on="1"/>
        <pt x="2309" y="415" on="0"/>
        <pt x="2309" y="333" on="1"/>
        <pt x="2309" y="280" on="0"/>
        <pt x="2325" y="253" on="1"/>
        <pt x="2345" y="221" on="0"/>
        <pt x="2373" y="215" on="1"/>
        <pt x="2376" y="215" on="0"/>
        <pt x="2431" y="215" on="1"/>
        <pt x="2486" y="215" on="0"/>
        <pt x="2491" y="215" on="1"/>
        <pt x="2520" y="221" on="0"/>
        <pt x="2559" y="252" on="1"/>
        <pt x="2551" y="272" on="0"/>
        <pt x="2515" y="338" on="1"/>
        <pt x="2487" y="390" on="0"/>
        <pt x="2487" y="404" on="1"/>
        <pt x="2487" y="446" on="0"/>
        <pt x="2531" y="511" on="1"/>
        <pt x="2570" y="501" on="0"/>
        <pt x="2661" y="365" on="0"/>
      </contour>
      <contour>
        <pt x="3275" y="153" on="1"/>
        <pt x="3275" y="106" on="0"/>
        <pt x="3216" y="-17" on="1"/>
        <pt x="3168" y="-117" on="0"/>
        <pt x="3138" y="-162" on="1"/>
        <pt x="3073" y="-252" on="0"/>
        <pt x="2975" y="-294" on="1"/>
        <pt x="2944" y="-307" on="0"/>
        <pt x="2815" y="-307" on="1"/>
        <pt x="2586" y="-307" on="0"/>
        <pt x="2529" y="-263" on="1"/>
        <pt x="2529" y="-226" on="1"/>
        <pt x="2763" y="-217" on="0"/>
        <pt x="2884" y="-172" on="1"/>
        <pt x="3085" y="-96" on="0"/>
        <pt x="3183" y="108" on="1"/>
        <pt x="3176" y="143" on="1"/>
        <pt x="3103" y="92" on="0"/>
        <pt x="3080" y="92" on="1"/>
        <pt x="3019" y="92" on="0"/>
        <pt x="2980" y="152" on="1"/>
        <pt x="2948" y="205" on="0"/>
        <pt x="2948" y="271" on="1"/>
        <pt x="2948" y="310" on="0"/>
        <pt x="2984" y="386" on="1"/>
        <pt x="3029" y="481" on="0"/>
        <pt x="3086" y="481" on="1"/>
        <pt x="3167" y="481" on="0"/>
        <pt x="3228" y="335" on="1"/>
        <pt x="3275" y="221" on="0"/>
      </contour>
      <contour>
        <pt x="1924" y="1418" on="1"/>
        <pt x="1924" y="1376" on="0"/>
        <pt x="1754" y="1278" on="1"/>
        <pt x="1494" y="1128" on="0"/>
        <pt x="1449" y="1096" on="1"/>
        <pt x="1412" y="1096" on="1"/>
        <pt x="1412" y="1150" on="1"/>
        <pt x="1412" y="1171" on="0"/>
        <pt x="1606" y="1285" on="1"/>
        <pt x="1797" y="1396" on="0"/>
        <pt x="1911" y="1443" on="1"/>
        <pt x="1924" y="1442" on="0"/>
      </contour>
      <contour>
        <pt x="2006" y="235" on="1"/>
        <pt x="2006" y="146" on="0"/>
        <pt x="1980" y="66" on="1"/>
        <pt x="1939" y="30" on="0"/>
        <pt x="1822" y="3" on="1"/>
        <pt x="1721" y="-20" on="0"/>
        <pt x="1657" y="-20" on="1"/>
        <pt x="1545" y="-20" on="0"/>
        <pt x="1545" y="61" on="1"/>
        <pt x="1545" y="102" on="0"/>
        <pt x="1579" y="153" on="1"/>
        <pt x="1609" y="143" on="0"/>
        <pt x="1689" y="143" on="1"/>
        <pt x="1844" y="143" on="0"/>
        <pt x="1914" y="201" on="1"/>
        <pt x="1916" y="223" on="0"/>
        <pt x="1901" y="248" on="1"/>
        <pt x="1845" y="333" on="0"/>
        <pt x="1782" y="387" on="1"/>
        <pt x="1756" y="403" on="0"/>
        <pt x="1711" y="431" on="1"/>
        <pt x="1698" y="439" on="0"/>
        <pt x="1698" y="481" on="1"/>
        <pt x="1698" y="563" on="0"/>
        <pt x="1765" y="563" on="1"/>
        <pt x="1822" y="563" on="0"/>
        <pt x="1910" y="451" on="1"/>
        <pt x="1983" y="358" on="0"/>
        <pt x="1992" y="324" on="1"/>
        <pt x="2006" y="268" on="0"/>
      </contour>
      <contour>
        <pt x="933" y="1084" on="1"/>
        <pt x="932" y="1001" on="0"/>
        <pt x="806" y="927" on="1"/>
        <pt x="693" y="860" on="0"/>
        <pt x="603" y="860" on="1"/>
        <pt x="591" y="860" on="0"/>
        <pt x="444" y="890" on="0"/>
        <pt x="434" y="890" on="1"/>
        <pt x="429" y="890" on="0"/>
        <pt x="328" y="819" on="1"/>
        <pt x="328" y="854" on="1"/>
        <pt x="327" y="885" on="0"/>
        <pt x="388" y="945" on="1"/>
        <pt x="444" y="1004" on="0"/>
        <pt x="465" y="1004" on="1"/>
        <pt x="474" y="1004" on="0"/>
        <pt x="600" y="963" on="0"/>
        <pt x="613" y="963" on="1"/>
        <pt x="705" y="963" on="0"/>
        <pt x="776" y="1002" on="1"/>
        <pt x="906" y="1073" on="0"/>
      </contour>
      <contour>
        <pt x="767" y="640" on="1"/>
        <pt x="767" y="567" on="0"/>
        <pt x="710" y="492" on="1"/>
        <pt x="702" y="541" on="0"/>
        <pt x="682" y="628" on="1"/>
        <pt x="676" y="642" on="0"/>
        <pt x="646" y="695" on="1"/>
        <pt x="624" y="736" on="0"/>
        <pt x="624" y="752" on="1"/>
        <pt x="624" y="819" on="0"/>
        <pt x="669" y="819" on="1"/>
        <pt x="712" y="819" on="0"/>
        <pt x="742" y="747" on="1"/>
        <pt x="767" y="689" on="0"/>
      </contour>
      <contour>
        <pt x="1350" y="686" on="1"/>
        <pt x="1350" y="645" on="0"/>
        <pt x="1317" y="594" on="1"/>
        <pt x="1285" y="594" on="1"/>
        <pt x="1272" y="594" on="0"/>
        <pt x="1225" y="635" on="0"/>
        <pt x="1213" y="635" on="1"/>
        <pt x="1153" y="635" on="0"/>
        <pt x="1074" y="546" on="1"/>
        <pt x="1002" y="466" on="0"/>
        <pt x="1002" y="430" on="1"/>
        <pt x="1002" y="364" on="0"/>
        <pt x="1143" y="351" on="1"/>
        <pt x="1295" y="338" on="0"/>
        <pt x="1305" y="321" on="1"/>
        <pt x="1330" y="276" on="0"/>
        <pt x="1330" y="246" on="1"/>
        <pt x="1330" y="229" on="0"/>
        <pt x="1295" y="116" on="1"/>
        <pt x="1279" y="63" on="0"/>
        <pt x="1235" y="43" on="1"/>
        <pt x="1129" y="-4" on="0"/>
        <pt x="1024" y="-52" on="1"/>
        <pt x="897" y="-102" on="0"/>
        <pt x="782" y="-102" on="1"/>
        <pt x="769" y="-102" on="0"/>
        <pt x="754" y="-113" on="0"/>
        <pt x="742" y="-113" on="1"/>
        <pt x="646" y="-113" on="0"/>
        <pt x="536" y="-63" on="1"/>
        <pt x="378" y="9" on="0"/>
        <pt x="378" y="138" on="1"/>
        <pt x="378" y="190" on="0"/>
        <pt x="419" y="286" on="1"/>
        <pt x="466" y="398" on="0"/>
        <pt x="519" y="419" on="1"/>
        <pt x="519" y="383" on="0"/>
        <pt x="480" y="233" on="0"/>
        <pt x="480" y="225" on="1"/>
        <pt x="480" y="135" on="0"/>
        <pt x="588" y="83" on="1"/>
        <pt x="675" y="41" on="0"/>
        <pt x="777" y="41" on="1"/>
        <pt x="856" y="41" on="0"/>
        <pt x="997" y="84" on="1"/>
        <pt x="1151" y="131" on="0"/>
        <pt x="1186" y="179" on="1"/>
        <pt x="1177" y="195" on="0"/>
        <pt x="1158" y="199" on="1"/>
        <pt x="1145" y="202" on="0"/>
        <pt x="1120" y="198" on="1"/>
        <pt x="1090" y="194" on="0"/>
        <pt x="1084" y="194" on="1"/>
        <pt x="1038" y="194" on="0"/>
        <pt x="974" y="230" on="1"/>
        <pt x="900" y="272" on="0"/>
        <pt x="900" y="323" on="1"/>
        <pt x="900" y="435" on="0"/>
        <pt x="1015" y="606" on="1"/>
        <pt x="1138" y="788" on="0"/>
        <pt x="1243" y="788" on="1"/>
        <pt x="1287" y="788" on="0"/>
        <pt x="1320" y="755" on="1"/>
        <pt x="1350" y="724" on="0"/>
      </contour>
      <contour>
        <pt x="3121" y="270" on="1"/>
        <pt x="3090" y="316" on="0"/>
        <pt x="3062" y="316" on="1"/>
        <pt x="3057" y="274" on="0"/>
        <pt x="3074" y="256" on="1"/>
      </contour>
    </TTGlyph>
    <TTGlyph name="uniFB52" xMin="323" yMin="-358" xMax="3834" yMax="1780">
      <contour>
        <pt x="3823" y="1733" on="1"/>
        <pt x="3752" y="1674" on="0"/>
        <pt x="3608" y="1604" on="1"/>
        <pt x="3399" y="1502" on="0"/>
        <pt x="3370" y="1485" on="1"/>
        <pt x="3334" y="1485" on="1"/>
        <pt x="3334" y="1519" on="1"/>
        <pt x="3333" y="1555" on="0"/>
        <pt x="3505" y="1646" on="1"/>
        <pt x="3641" y="1713" on="0"/>
        <pt x="3777" y="1780" on="1"/>
        <pt x="3823" y="1780" on="1"/>
      </contour>
      <contour>
        <pt x="3834" y="1316" on="1"/>
        <pt x="3813" y="1273" on="0"/>
        <pt x="3753" y="1261" on="1"/>
        <pt x="3705" y="1253" on="0"/>
        <pt x="3656" y="1245" on="1"/>
        <pt x="3596" y="1226" on="0"/>
        <pt x="3479" y="1168" on="1"/>
        <pt x="3479" y="1176" on="0"/>
        <pt x="3482" y="1212" on="1"/>
        <pt x="3484" y="1244" on="0"/>
        <pt x="3483" y="1262" on="1"/>
        <pt x="3480" y="1266" on="0"/>
        <pt x="3458" y="1289" on="1"/>
        <pt x="3445" y="1302" on="0"/>
        <pt x="3445" y="1316" on="1"/>
        <pt x="3445" y="1362" on="0"/>
        <pt x="3531" y="1431" on="1"/>
        <pt x="3610" y="1495" on="0"/>
        <pt x="3640" y="1495" on="1"/>
        <pt x="3659" y="1495" on="0"/>
        <pt x="3711" y="1443" on="0"/>
        <pt x="3711" y="1423" on="1"/>
        <pt x="3711" y="1404" on="0"/>
        <pt x="3678" y="1362" on="0"/>
        <pt x="3660" y="1362" on="1"/>
        <pt x="3646" y="1362" on="0"/>
        <pt x="3619" y="1379" on="1"/>
        <pt x="3587" y="1398" on="0"/>
        <pt x="3574" y="1402" on="1"/>
        <pt x="3557" y="1385" on="1"/>
        <pt x="3557" y="1367" on="0"/>
        <pt x="3575" y="1353" on="1"/>
        <pt x="3647" y="1331" on="0"/>
        <pt x="3691" y="1331" on="1"/>
        <pt x="3816" y="1331" on="0"/>
      </contour>
      <contour>
        <pt x="3138" y="1448" on="1"/>
        <pt x="3138" y="1398" on="0"/>
        <pt x="2847" y="1280" on="1"/>
        <pt x="2791" y="1292" on="1"/>
        <pt x="2792" y="1321" on="0"/>
        <pt x="2849" y="1351" on="1"/>
        <pt x="2926" y="1391" on="0"/>
        <pt x="2944" y="1409" on="1"/>
        <pt x="2930" y="1443" on="0"/>
        <pt x="2887" y="1443" on="1"/>
        <pt x="2873" y="1443" on="0"/>
        <pt x="2830" y="1416" on="1"/>
        <pt x="2775" y="1380" on="0"/>
        <pt x="2757" y="1372" on="1"/>
        <pt x="2754" y="1405" on="0"/>
        <pt x="2822" y="1473" on="1"/>
        <pt x="2894" y="1546" on="0"/>
        <pt x="2949" y="1546" on="1"/>
        <pt x="3009" y="1546" on="0"/>
        <pt x="3138" y="1482" on="1"/>
      </contour>
      <contour>
        <pt x="3773" y="251" on="1"/>
        <pt x="3773" y="206" on="0"/>
        <pt x="3754" y="152" on="1"/>
        <pt x="3729" y="86" on="0"/>
        <pt x="3693" y="83" on="1"/>
        <pt x="3579" y="1024" on="1"/>
        <pt x="3579" y="1063" on="0"/>
        <pt x="3598" y="1112" on="1"/>
        <pt x="3622" y="1172" on="0"/>
        <pt x="3658" y="1187" on="1"/>
      </contour>
      <contour>
        <pt x="2493" y="1479" on="1"/>
        <pt x="2493" y="1475" on="0"/>
        <pt x="2478" y="1435" on="1"/>
        <pt x="2459" y="1423" on="0"/>
        <pt x="2255" y="1328" on="1"/>
        <pt x="2110" y="1257" on="0"/>
        <pt x="1821" y="1126" on="1"/>
        <pt x="1807" y="1140" on="0"/>
        <pt x="1807" y="1162" on="1"/>
        <pt x="1807" y="1207" on="0"/>
        <pt x="1841" y="1224" on="1"/>
        <pt x="2041" y="1318" on="0"/>
        <pt x="2436" y="1504" on="1"/>
        <pt x="2481" y="1504" on="1"/>
        <pt x="2493" y="1503" on="0"/>
      </contour>
      <contour>
        <pt x="1858" y="599" on="1"/>
        <pt x="1858" y="587" on="0"/>
        <pt x="1853" y="551" on="1"/>
        <pt x="1848" y="511" on="0"/>
        <pt x="1847" y="488" on="1"/>
        <pt x="1857" y="473" on="1"/>
        <pt x="1798" y="473" on="1"/>
        <pt x="1791" y="527" on="0"/>
        <pt x="1784" y="581" on="1"/>
        <pt x="1771" y="644" on="0"/>
        <pt x="1743" y="688" on="1"/>
        <pt x="1732" y="705" on="0"/>
        <pt x="1677" y="768" on="1"/>
        <pt x="1644" y="807" on="0"/>
        <pt x="1644" y="840" on="1"/>
        <pt x="1644" y="901" on="0"/>
        <pt x="1689" y="901" on="1"/>
        <pt x="1721" y="901" on="0"/>
        <pt x="1778" y="817" on="1"/>
        <pt x="1803" y="789" on="0"/>
        <pt x="1844" y="713" on="1"/>
        <pt x="1858" y="666" on="0"/>
      </contour>
      <contour>
        <pt x="3445" y="630" on="1"/>
        <pt x="3445" y="608" on="0"/>
        <pt x="3420" y="546" on="1"/>
        <pt x="3390" y="475" on="0"/>
        <pt x="3358" y="442" on="1"/>
        <pt x="3238" y="317" on="0"/>
        <pt x="2978" y="317" on="1"/>
        <pt x="2837" y="317" on="1"/>
        <pt x="2793" y="317" on="0"/>
        <pt x="2712" y="366" on="1"/>
        <pt x="2627" y="417" on="0"/>
        <pt x="2589" y="471" on="1"/>
        <pt x="2538" y="443" on="0"/>
        <pt x="2422" y="343" on="1"/>
        <pt x="2519" y="297" on="0"/>
        <pt x="2660" y="283" on="1"/>
        <pt x="2902" y="257" on="0"/>
        <pt x="2910" y="256" on="1"/>
        <pt x="2923" y="242" on="0"/>
        <pt x="2923" y="220" on="1"/>
        <pt x="2923" y="173" on="0"/>
        <pt x="2878" y="146" on="1"/>
        <pt x="2840" y="123" on="0"/>
        <pt x="2790" y="123" on="1"/>
        <pt x="2781" y="123" on="0"/>
        <pt x="2676" y="133" on="0"/>
        <pt x="2662" y="133" on="1"/>
        <pt x="2598" y="133" on="0"/>
        <pt x="2520" y="107" on="1"/>
        <pt x="2438" y="80" on="0"/>
        <pt x="2356" y="54" on="1"/>
        <pt x="2258" y="26" on="0"/>
        <pt x="2071" y="-4" on="1"/>
        <pt x="1908" y="-31" on="0"/>
        <pt x="1879" y="-31" on="1"/>
        <pt x="1699" y="-31" on="1"/>
        <pt x="1607" y="-31" on="0"/>
        <pt x="1596" y="-27" on="1"/>
        <pt x="1575" y="-22" on="0"/>
        <pt x="1521" y="26" on="1"/>
        <pt x="1472" y="71" on="0"/>
        <pt x="1459" y="71" on="1"/>
        <pt x="1447" y="71" on="0"/>
        <pt x="1403" y="47" on="1"/>
        <pt x="1352" y="19" on="0"/>
        <pt x="1332" y="13" on="1"/>
        <pt x="1060" y="-72" on="0"/>
        <pt x="809" y="-72" on="1"/>
        <pt x="644" y="-72" on="0"/>
        <pt x="510" y="-15" on="1"/>
        <pt x="323" y="62" on="0"/>
        <pt x="323" y="220" on="1"/>
        <pt x="323" y="348" on="0"/>
        <pt x="441" y="440" on="1"/>
        <pt x="466" y="415" on="1"/>
        <pt x="425" y="333" on="0"/>
        <pt x="425" y="297" on="1"/>
        <pt x="425" y="82" on="0"/>
        <pt x="875" y="82" on="1"/>
        <pt x="1238" y="82" on="0"/>
        <pt x="1411" y="176" on="1"/>
        <pt x="1449" y="221" on="0"/>
        <pt x="1527" y="286" on="1"/>
        <pt x="1534" y="268" on="0"/>
        <pt x="1528" y="238" on="1"/>
        <pt x="1521" y="200" on="0"/>
        <pt x="1521" y="194" on="1"/>
        <pt x="1521" y="102" on="0"/>
        <pt x="1751" y="102" on="1"/>
        <pt x="2079" y="102" on="0"/>
        <pt x="2310" y="181" on="1"/>
        <pt x="2296" y="202" on="0"/>
        <pt x="2232" y="225" on="1"/>
        <pt x="2175" y="246" on="0"/>
        <pt x="2149" y="247" on="1"/>
        <pt x="2023" y="247" on="1"/>
        <pt x="2023" y="280" on="1"/>
        <pt x="2023" y="334" on="0"/>
        <pt x="2123" y="382" on="1"/>
        <pt x="2130" y="386" on="0"/>
        <pt x="2230" y="422" on="1"/>
        <pt x="2304" y="442" on="0"/>
        <pt x="2424" y="483" on="1"/>
        <pt x="2474" y="504" on="0"/>
        <pt x="2544" y="564" on="1"/>
        <pt x="2634" y="639" on="0"/>
        <pt x="2642" y="645" on="1"/>
        <pt x="2672" y="605" on="0"/>
        <pt x="2704" y="565" on="1"/>
        <pt x="2748" y="512" on="0"/>
        <pt x="2795" y="512" on="1"/>
        <pt x="2827" y="512" on="0"/>
        <pt x="3171" y="768" on="0"/>
        <pt x="3246" y="768" on="1"/>
        <pt x="3298" y="768" on="0"/>
        <pt x="3367" y="727" on="1"/>
        <pt x="3445" y="680" on="0"/>
      </contour>
      <contour>
        <pt x="1223" y="1080" on="1"/>
        <pt x="1223" y="1061" on="0"/>
        <pt x="1186" y="1024" on="0"/>
        <pt x="1168" y="1024" on="1"/>
        <pt x="1156" y="1024" on="0"/>
        <pt x="1104" y="1054" on="0"/>
        <pt x="1091" y="1054" on="1"/>
        <pt x="1098" y="1054" on="0"/>
        <pt x="765" y="778" on="0"/>
        <pt x="715" y="779" on="1"/>
        <pt x="651" y="779" on="1"/>
        <pt x="679" y="829" on="0"/>
        <pt x="808" y="922" on="1"/>
        <pt x="962" y="1035" on="0"/>
        <pt x="1009" y="1081" on="1"/>
        <pt x="1002" y="1108" on="0"/>
        <pt x="951" y="1140" on="1"/>
        <pt x="906" y="1169" on="0"/>
        <pt x="906" y="1213" on="1"/>
        <pt x="906" y="1257" on="0"/>
        <pt x="960" y="1328" on="1"/>
        <pt x="1018" y="1402" on="0"/>
        <pt x="1065" y="1402" on="1"/>
        <pt x="1118" y="1402" on="0"/>
        <pt x="1127" y="1312" on="1"/>
        <pt x="1129" y="1247" on="0"/>
        <pt x="1132" y="1182" on="1"/>
        <pt x="1132" y="1177" on="0"/>
        <pt x="1133" y="1176" on="1"/>
        <pt x="1140" y="1166" on="0"/>
        <pt x="1186" y="1126" on="1"/>
        <pt x="1223" y="1094" on="0"/>
      </contour>
      <contour>
        <pt x="1070" y="-261" on="1"/>
        <pt x="1070" y="-287" on="0"/>
        <pt x="1029" y="-325" on="1"/>
        <pt x="992" y="-358" on="0"/>
        <pt x="983" y="-358" on="1"/>
        <pt x="958" y="-358" on="0"/>
        <pt x="855" y="-284" on="1"/>
        <pt x="896" y="-163" on="0"/>
        <pt x="952" y="-163" on="1"/>
        <pt x="978" y="-163" on="0"/>
        <pt x="1070" y="-242" on="0"/>
      </contour>
      <contour>
        <pt x="3311" y="560" on="1"/>
        <pt x="3239" y="614" on="0"/>
        <pt x="3174" y="614" on="1"/>
        <pt x="3088" y="614" on="0"/>
        <pt x="2954" y="474" on="1"/>
        <pt x="2975" y="474" on="0"/>
        <pt x="3062" y="460" on="0"/>
        <pt x="3071" y="460" on="1"/>
        <pt x="3098" y="460" on="0"/>
        <pt x="3289" y="525" on="1"/>
        <pt x="3311" y="542" on="0"/>
      </contour>
      <contour>
        <pt x="1059" y="1230" on="1"/>
        <pt x="1059" y="1266" on="1"/>
        <pt x="1046" y="1273" on="0"/>
        <pt x="1022" y="1289" on="1"/>
        <pt x="1022" y="1286" on="0"/>
        <pt x="998" y="1279" on="0"/>
        <pt x="998" y="1264" on="1"/>
        <pt x="998" y="1249" on="0"/>
        <pt x="1010" y="1233" on="0"/>
        <pt x="1010" y="1230" on="1"/>
      </contour>
    </TTGlyph>
    <TTGlyph name="uniFB53" xMin="208" yMin="-337" xMax="2933" yMax="1701">
      <contour>
        <pt x="2931" y="1493" on="1"/>
        <pt x="2933" y="1482" on="0"/>
        <pt x="2933" y="1471" on="1"/>
        <pt x="2933" y="1367" on="0"/>
        <pt x="2838" y="1298" on="1"/>
        <pt x="2757" y="1239" on="0"/>
        <pt x="2671" y="1239" on="1"/>
        <pt x="2659" y="1239" on="0"/>
        <pt x="2579" y="1270" on="0"/>
        <pt x="2568" y="1270" on="1"/>
        <pt x="2557" y="1270" on="0"/>
        <pt x="2465" y="1208" on="1"/>
        <pt x="2450" y="1210" on="0"/>
        <pt x="2450" y="1234" on="1"/>
        <pt x="2450" y="1262" on="0"/>
        <pt x="2513" y="1316" on="1"/>
        <pt x="2568" y="1362" on="0"/>
        <pt x="2587" y="1368" on="1"/>
        <pt x="2608" y="1364" on="0"/>
        <pt x="2647" y="1374" on="1"/>
        <pt x="2660" y="1383" on="0"/>
        <pt x="2743" y="1475" on="1"/>
        <pt x="2797" y="1536" on="0"/>
        <pt x="2850" y="1536" on="1"/>
        <pt x="2886" y="1536" on="0"/>
      </contour>
      <contour>
        <pt x="2245" y="1560" on="1"/>
        <pt x="2245" y="1495" on="0"/>
        <pt x="2079" y="1432" on="1"/>
        <pt x="1946" y="1382" on="0"/>
        <pt x="1908" y="1382" on="1"/>
        <pt x="1896" y="1382" on="0"/>
        <pt x="1857" y="1394" on="0"/>
        <pt x="1847" y="1394" on="1"/>
        <pt x="1860" y="1425" on="0"/>
        <pt x="1937" y="1451" on="1"/>
        <pt x="2028" y="1481" on="0"/>
        <pt x="2062" y="1512" on="1"/>
        <pt x="2064" y="1534" on="0"/>
        <pt x="2024" y="1543" on="1"/>
        <pt x="1959" y="1556" on="0"/>
        <pt x="1954" y="1556" on="1"/>
        <pt x="1956" y="1556" on="0"/>
        <pt x="1848" y="1511" on="1"/>
        <pt x="1826" y="1520" on="1"/>
        <pt x="1939" y="1659" on="0"/>
        <pt x="2015" y="1659" on="1"/>
        <pt x="2022" y="1659" on="0"/>
        <pt x="2245" y="1595" on="1"/>
      </contour>
      <contour>
        <pt x="2819" y="250" on="1"/>
        <pt x="2811" y="237" on="0"/>
        <pt x="2806" y="156" on="1"/>
        <pt x="2801" y="97" on="0"/>
        <pt x="2740" y="61" on="1"/>
        <pt x="2594" y="1009" on="1"/>
        <pt x="2603" y="1051" on="0"/>
        <pt x="2612" y="1093" on="1"/>
        <pt x="2627" y="1153" on="0"/>
        <pt x="2662" y="1177" on="1"/>
      </contour>
      <contour>
        <pt x="1773" y="1293" on="1"/>
        <pt x="1537" y="1093" on="0"/>
        <pt x="1359" y="1013" on="1"/>
        <pt x="1334" y="1038" on="0"/>
        <pt x="1334" y="1049" on="1"/>
        <pt x="1334" y="1092" on="0"/>
        <pt x="1523" y="1217" on="1"/>
        <pt x="1630" y="1284" on="0"/>
        <pt x="1737" y="1350" on="1"/>
        <pt x="1773" y="1350" on="1"/>
      </contour>
      <contour>
        <pt x="1375" y="1692" on="1"/>
        <pt x="1377" y="1637" on="0"/>
        <pt x="1157" y="1522" on="1"/>
        <pt x="953" y="1415" on="0"/>
        <pt x="848" y="1352" on="1"/>
        <pt x="833" y="1366" on="0"/>
        <pt x="833" y="1387" on="1"/>
        <pt x="833" y="1428" on="0"/>
        <pt x="885" y="1466" on="1"/>
        <pt x="932" y="1493" on="0"/>
        <pt x="979" y="1520" on="1"/>
        <pt x="1102" y="1596" on="0"/>
        <pt x="1352" y="1701" on="1"/>
      </contour>
      <contour>
        <pt x="1283" y="1273" on="1"/>
        <pt x="1283" y="1256" on="0"/>
        <pt x="1202" y="1141" on="0"/>
        <pt x="1187" y="1139" on="1"/>
        <pt x="1150" y="1136" on="0"/>
        <pt x="1085" y="1122" on="1"/>
        <pt x="1013" y="1095" on="0"/>
        <pt x="1012" y="1095" on="1"/>
        <pt x="956" y="1095" on="0"/>
        <pt x="956" y="1167" on="1"/>
        <pt x="956" y="1194" on="0"/>
        <pt x="975" y="1233" on="1"/>
        <pt x="998" y="1280" on="0"/>
        <pt x="1026" y="1278" on="1"/>
        <pt x="1026" y="1215" on="1"/>
        <pt x="1045" y="1197" on="0"/>
        <pt x="1061" y="1197" on="1"/>
        <pt x="1083" y="1239" on="0"/>
        <pt x="1140" y="1321" on="1"/>
        <pt x="1153" y="1295" on="0"/>
        <pt x="1177" y="1248" on="1"/>
        <pt x="1207" y="1264" on="0"/>
        <pt x="1221" y="1301" on="1"/>
        <pt x="1240" y="1353" on="0"/>
        <pt x="1245" y="1361" on="1"/>
        <pt x="1283" y="1361" on="1"/>
      </contour>
      <contour>
        <pt x="2562" y="244" on="1"/>
        <pt x="2538" y="164" on="0"/>
        <pt x="2495" y="143" on="1"/>
        <pt x="2473" y="133" on="0"/>
        <pt x="2399" y="133" on="1"/>
        <pt x="2388" y="133" on="0"/>
        <pt x="2305" y="143" on="0"/>
        <pt x="2292" y="143" on="1"/>
        <pt x="2254" y="143" on="0"/>
        <pt x="2017" y="75" on="1"/>
        <pt x="1691" y="-20" on="0"/>
        <pt x="1591" y="-20" on="1"/>
        <pt x="1538" y="-20" on="0"/>
        <pt x="1492" y="-7" on="1"/>
        <pt x="1479" y="-4" on="0"/>
        <pt x="1448" y="25" on="1"/>
        <pt x="1420" y="51" on="0"/>
        <pt x="1406" y="51" on="1"/>
        <pt x="1393" y="51" on="0"/>
        <pt x="1168" y="-40" on="0"/>
        <pt x="1155" y="-40" on="1"/>
        <pt x="1073" y="-40" on="1"/>
        <pt x="1037" y="-40" on="0"/>
        <pt x="908" y="-18" on="1"/>
        <pt x="856" y="-8" on="0"/>
        <pt x="800" y="58" on="1"/>
        <pt x="752" y="116" on="0"/>
        <pt x="737" y="167" on="1"/>
        <pt x="731" y="170" on="0"/>
        <pt x="715" y="184" on="1"/>
        <pt x="619" y="113" on="0"/>
        <pt x="580" y="100" on="1"/>
        <pt x="557" y="92" on="0"/>
        <pt x="485" y="92" on="1"/>
        <pt x="342" y="92" on="0"/>
        <pt x="342" y="153" on="1"/>
        <pt x="342" y="220" on="0"/>
        <pt x="387" y="265" on="1"/>
        <pt x="419" y="298" on="0"/>
        <pt x="532" y="374" on="1"/>
        <pt x="629" y="440" on="0"/>
        <pt x="666" y="489" on="1"/>
        <pt x="683" y="512" on="0"/>
        <pt x="688" y="569" on="1"/>
        <pt x="694" y="640" on="0"/>
        <pt x="702" y="664" on="1"/>
        <pt x="739" y="664" on="1"/>
        <pt x="764" y="521" on="0"/>
        <pt x="790" y="378" on="1"/>
        <pt x="814" y="239" on="0"/>
        <pt x="870" y="184" on="1"/>
        <pt x="941" y="112" on="0"/>
        <pt x="1109" y="112" on="1"/>
        <pt x="1268" y="112" on="0"/>
        <pt x="1326" y="155" on="1"/>
        <pt x="1365" y="200" on="0"/>
        <pt x="1445" y="265" on="1"/>
        <pt x="1445" y="205" on="0"/>
        <pt x="1459" y="182" on="1"/>
        <pt x="1476" y="156" on="0"/>
        <pt x="1582" y="112" on="0"/>
        <pt x="1626" y="112" on="1"/>
        <pt x="1711" y="112" on="0"/>
        <pt x="1929" y="172" on="1"/>
        <pt x="1929" y="169" on="0"/>
        <pt x="1949" y="188" on="1"/>
        <pt x="1909" y="211" on="0"/>
        <pt x="1810" y="244" on="1"/>
        <pt x="1714" y="276" on="0"/>
        <pt x="1693" y="276" on="1"/>
        <pt x="1683" y="276" on="0"/>
        <pt x="1632" y="267" on="0"/>
        <pt x="1603" y="267" on="1"/>
        <pt x="1591" y="268" on="0"/>
        <pt x="1591" y="292" on="1"/>
        <pt x="1591" y="360" on="0"/>
        <pt x="1748" y="415" on="1"/>
        <pt x="1759" y="419" on="0"/>
        <pt x="1775" y="419" on="1"/>
        <pt x="1786" y="419" on="0"/>
        <pt x="1815" y="410" on="0"/>
        <pt x="1826" y="410" on="1"/>
        <pt x="1892" y="410" on="0"/>
        <pt x="1950" y="437" on="1"/>
        <pt x="1942" y="646" on="0"/>
        <pt x="1883" y="976" on="1"/>
        <pt x="1881" y="991" on="0"/>
        <pt x="1863" y="1037" on="1"/>
        <pt x="1846" y="1079" on="0"/>
        <pt x="1846" y="1095" on="1"/>
        <pt x="1846" y="1132" on="0"/>
        <pt x="1883" y="1189" on="1"/>
        <pt x="1916" y="1240" on="0"/>
        <pt x="1943" y="1259" on="1"/>
        <pt x="1964" y="1248" on="0"/>
        <pt x="1967" y="1208" on="1"/>
        <pt x="1969" y="1151" on="0"/>
        <pt x="1971" y="1144" on="1"/>
        <pt x="1995" y="1128" on="0"/>
        <pt x="2051" y="1092" on="1"/>
        <pt x="2045" y="1067" on="0"/>
        <pt x="2022" y="999" on="1"/>
        <pt x="2000" y="940" on="0"/>
        <pt x="2000" y="927" on="1"/>
        <pt x="2000" y="927" on="0"/>
        <pt x="2026" y="740" on="1"/>
        <pt x="2053" y="544" on="0"/>
        <pt x="2058" y="446" on="1"/>
        <pt x="2049" y="416" on="0"/>
        <pt x="2043" y="356" on="1"/>
        <pt x="2140" y="303" on="0"/>
        <pt x="2301" y="283" on="1"/>
        <pt x="2516" y="256" on="0"/>
      </contour>
      <contour>
        <pt x="2236" y="-148" on="1"/>
        <pt x="2195" y="-199" on="0"/>
        <pt x="2178" y="-240" on="1"/>
        <pt x="2176" y="-245" on="0"/>
        <pt x="2143" y="-245" on="1"/>
        <pt x="2113" y="-245" on="0"/>
        <pt x="2071" y="-212" on="1"/>
        <pt x="2031" y="-181" on="0"/>
        <pt x="2031" y="-163" on="1"/>
        <pt x="2031" y="-146" on="0"/>
        <pt x="2064" y="-105" on="1"/>
        <pt x="2100" y="-61" on="0"/>
        <pt x="2122" y="-61" on="1"/>
        <pt x="2170" y="-61" on="0"/>
      </contour>
      <contour>
        <pt x="1355" y="588" on="1"/>
        <pt x="1355" y="551" on="0"/>
        <pt x="1323" y="524" on="1"/>
        <pt x="1295" y="501" on="0"/>
        <pt x="1268" y="501" on="1"/>
        <pt x="1248" y="501" on="0"/>
        <pt x="1215" y="517" on="1"/>
        <pt x="1171" y="538" on="0"/>
        <pt x="1171" y="569" on="1"/>
        <pt x="1171" y="597" on="0"/>
        <pt x="1231" y="665" on="0"/>
        <pt x="1263" y="665" on="1"/>
        <pt x="1292" y="665" on="0"/>
        <pt x="1355" y="618" on="0"/>
      </contour>
      <contour>
        <pt x="822" y="960" on="1"/>
        <pt x="822" y="933" on="0"/>
        <pt x="800" y="888" on="1"/>
        <pt x="772" y="829" on="0"/>
        <pt x="736" y="829" on="1"/>
        <pt x="725" y="829" on="0"/>
        <pt x="681" y="870" on="0"/>
        <pt x="664" y="870" on="1"/>
        <pt x="651" y="870" on="0"/>
        <pt x="590" y="809" on="0"/>
        <pt x="577" y="809" on="1"/>
        <pt x="546" y="809" on="0"/>
        <pt x="509" y="842" on="1"/>
        <pt x="474" y="872" on="0"/>
        <pt x="474" y="890" on="1"/>
        <pt x="474" y="926" on="0"/>
        <pt x="509" y="956" on="1"/>
        <pt x="540" y="983" on="0"/>
        <pt x="562" y="983" on="1"/>
        <pt x="578" y="983" on="0"/>
        <pt x="653" y="952" on="1"/>
        <pt x="712" y="1013" on="0"/>
        <pt x="731" y="1013" on="1"/>
        <pt x="767" y="1013" on="0"/>
      </contour>
      <contour>
        <pt x="740" y="-77" on="1"/>
        <pt x="740" y="-123" on="0"/>
        <pt x="626" y="-178" on="1"/>
        <pt x="564" y="-203" on="0"/>
        <pt x="502" y="-228" on="1"/>
        <pt x="414" y="-267" on="0"/>
        <pt x="233" y="-337" on="1"/>
        <pt x="224" y="-333" on="0"/>
        <pt x="208" y="-322" on="0"/>
        <pt x="208" y="-307" on="1"/>
        <pt x="208" y="-258" on="0"/>
        <pt x="416" y="-172" on="1"/>
        <pt x="691" y="-58" on="0"/>
        <pt x="704" y="-51" on="1"/>
        <pt x="740" y="-51" on="0"/>
      </contour>
      <contour>
        <pt x="2839" y="1398" on="1"/>
        <pt x="2829" y="1407" on="0"/>
        <pt x="2827" y="1422" on="1"/>
        <pt x="2781" y="1422" on="1"/>
        <pt x="2742" y="1384" on="0"/>
        <pt x="2728" y="1352" on="1"/>
        <pt x="2775" y="1352" on="1"/>
        <pt x="2811" y="1369" on="0"/>
      </contour>
      <contour>
        <pt x="700" y="297" on="1"/>
        <pt x="700" y="310" on="0"/>
        <pt x="676" y="358" on="1"/>
        <pt x="627" y="334" on="0"/>
        <pt x="579" y="310" on="1"/>
        <pt x="520" y="275" on="0"/>
        <pt x="517" y="247" on="1"/>
        <pt x="642" y="247" on="1"/>
        <pt x="662" y="246" on="0"/>
        <pt x="700" y="278" on="0"/>
      </contour>
    </TTGlyph>
    <TTGlyph name="uniFB54" xMin="362" yMin="-330" xMax="3607" yMax="1769">
      <contour>
        <pt x="3607" y="1768" on="1"/>
        <pt x="3600" y="1749" on="0"/>
        <pt x="3582" y="1699" on="1"/>
        <pt x="3391" y="1593" on="0"/>
        <pt x="3110" y="1462" on="1"/>
        <pt x="3096" y="1476" on="0"/>
        <pt x="3096" y="1493" on="1"/>
        <pt x="3096" y="1509" on="0"/>
        <pt x="3134" y="1562" on="0"/>
        <pt x="3150" y="1570" on="1"/>
        <pt x="3536" y="1769" on="0"/>
        <pt x="3553" y="1768" on="1"/>
      </contour>
      <contour>
        <pt x="3587" y="1293" on="1"/>
        <pt x="3565" y="1248" on="0"/>
        <pt x="3553" y="1239" on="1"/>
        <pt x="3477" y="1237" on="0"/>
        <pt x="3430" y="1223" on="1"/>
        <pt x="3405" y="1216" on="0"/>
        <pt x="3336" y="1183" on="1"/>
        <pt x="3277" y="1155" on="0"/>
        <pt x="3264" y="1156" on="1"/>
        <pt x="3209" y="1156" on="1"/>
        <pt x="3241" y="1212" on="0"/>
        <pt x="3235" y="1241" on="1"/>
        <pt x="3235" y="1242" on="0"/>
        <pt x="3208" y="1273" on="0"/>
        <pt x="3208" y="1288" on="1"/>
        <pt x="3208" y="1330" on="0"/>
        <pt x="3293" y="1403" on="1"/>
        <pt x="3373" y="1472" on="0"/>
        <pt x="3408" y="1472" on="1"/>
        <pt x="3436" y="1472" on="0"/>
        <pt x="3485" y="1426" on="0"/>
        <pt x="3485" y="1401" on="1"/>
        <pt x="3485" y="1384" on="0"/>
        <pt x="3437" y="1339" on="0"/>
        <pt x="3418" y="1339" on="1"/>
        <pt x="3406" y="1339" on="0"/>
        <pt x="3375" y="1370" on="1"/>
        <pt x="3348" y="1370" on="1"/>
        <pt x="3331" y="1353" on="1"/>
        <pt x="3356" y="1308" on="0"/>
        <pt x="3433" y="1308" on="1"/>
        <pt x="3446" y="1308" on="0"/>
        <pt x="3492" y="1315" on="1"/>
        <pt x="3546" y="1323" on="0"/>
        <pt x="3563" y="1325" on="1"/>
        <pt x="3570" y="1319" on="0"/>
      </contour>
      <contour>
        <pt x="3567" y="300" on="1"/>
        <pt x="3546" y="138" on="0"/>
        <pt x="3513" y="50" on="1"/>
        <pt x="3476" y="50" on="1"/>
        <pt x="3372" y="996" on="1"/>
        <pt x="3372" y="1094" on="0"/>
        <pt x="3415" y="1174" on="1"/>
        <pt x="3453" y="1174" on="1"/>
      </contour>
      <contour>
        <pt x="2932" y="1401" on="1"/>
        <pt x="2932" y="1355" on="0"/>
        <pt x="2811" y="1285" on="1"/>
        <pt x="2707" y="1224" on="0"/>
        <pt x="2671" y="1219" on="1"/>
        <pt x="2639" y="1214" on="0"/>
        <pt x="2569" y="1196" on="1"/>
        <pt x="2539" y="1196" on="0"/>
        <pt x="2503" y="1208" on="0"/>
        <pt x="2503" y="1208" on="1"/>
        <pt x="2510" y="1248" on="0"/>
        <pt x="2600" y="1282" on="1"/>
        <pt x="2707" y="1322" on="0"/>
        <pt x="2727" y="1343" on="1"/>
        <pt x="2688" y="1370" on="0"/>
        <pt x="2640" y="1370" on="1"/>
        <pt x="2616" y="1370" on="0"/>
        <pt x="2513" y="1330" on="1"/>
        <pt x="2513" y="1366" on="1"/>
        <pt x="2583" y="1437" on="0"/>
        <pt x="2594" y="1445" on="1"/>
        <pt x="2633" y="1472" on="0"/>
        <pt x="2697" y="1472" on="1"/>
        <pt x="2770" y="1472" on="0"/>
        <pt x="2920" y="1430" on="1"/>
        <pt x="2920" y="1426" on="0"/>
        <pt x="2932" y="1416" on="0"/>
      </contour>
      <contour>
        <pt x="2195" y="1426" on="1"/>
        <pt x="2195" y="1380" on="0"/>
        <pt x="2050" y="1305" on="1"/>
        <pt x="1962" y="1264" on="0"/>
        <pt x="1874" y="1223" on="1"/>
        <pt x="1796" y="1179" on="0"/>
        <pt x="1646" y="1103" on="1"/>
        <pt x="1632" y="1118" on="0"/>
        <pt x="1632" y="1140" on="1"/>
        <pt x="1632" y="1187" on="0"/>
        <pt x="1675" y="1212" on="1"/>
        <pt x="1989" y="1388" on="0"/>
        <pt x="2181" y="1452" on="1"/>
        <pt x="2195" y="1450" on="0"/>
      </contour>
      <contour>
        <pt x="1724" y="555" on="1"/>
        <pt x="1724" y="483" on="0"/>
        <pt x="1700" y="438" on="1"/>
        <pt x="1670" y="446" on="0"/>
        <pt x="1662" y="496" on="1"/>
        <pt x="1650" y="571" on="0"/>
        <pt x="1649" y="574" on="1"/>
        <pt x="1633" y="612" on="0"/>
        <pt x="1572" y="696" on="1"/>
        <pt x="1519" y="769" on="0"/>
        <pt x="1519" y="781" on="1"/>
        <pt x="1519" y="780" on="0"/>
        <pt x="1552" y="847" on="1"/>
        <pt x="1588" y="847" on="1"/>
        <pt x="1724" y="718" on="0"/>
      </contour>
      <contour>
        <pt x="3260" y="591" on="1"/>
        <pt x="3260" y="548" on="0"/>
        <pt x="3215" y="472" on="1"/>
        <pt x="3175" y="402" on="0"/>
        <pt x="3155" y="390" on="1"/>
        <pt x="3037" y="323" on="0"/>
        <pt x="2968" y="301" on="1"/>
        <pt x="2885" y="274" on="0"/>
        <pt x="2768" y="274" on="1"/>
        <pt x="2684" y="274" on="0"/>
        <pt x="2586" y="301" on="1"/>
        <pt x="2477" y="330" on="0"/>
        <pt x="2444" y="371" on="1"/>
        <pt x="2428" y="395" on="0"/>
        <pt x="2412" y="419" on="1"/>
        <pt x="2391" y="448" on="0"/>
        <pt x="2374" y="448" on="1"/>
        <pt x="2362" y="448" on="0"/>
        <pt x="2225" y="338" on="1"/>
        <pt x="2225" y="331" on="0"/>
        <pt x="2243" y="317" on="1"/>
        <pt x="2374" y="278" on="0"/>
        <pt x="2725" y="233" on="1"/>
        <pt x="2748" y="210" on="0"/>
        <pt x="2748" y="193" on="1"/>
        <pt x="2748" y="161" on="0"/>
        <pt x="2696" y="129" on="1"/>
        <pt x="2648" y="100" on="0"/>
        <pt x="2615" y="100" on="1"/>
        <pt x="2603" y="100" on="0"/>
        <pt x="2469" y="120" on="0"/>
        <pt x="2456" y="120" on="1"/>
        <pt x="2467" y="120" on="0"/>
        <pt x="2344" y="93" on="1"/>
        <pt x="2298" y="84" on="0"/>
        <pt x="2211" y="66" on="1"/>
        <pt x="2078" y="34" on="0"/>
        <pt x="1945" y="1" on="1"/>
        <pt x="1830" y="-22" on="0"/>
        <pt x="1673" y="-22" on="1"/>
        <pt x="1592" y="-22" on="0"/>
        <pt x="1560" y="-11" on="1"/>
        <pt x="1496" y="11" on="0"/>
        <pt x="1431" y="90" on="1"/>
        <pt x="1192" y="-53" on="0"/>
        <pt x="890" y="-53" on="1"/>
        <pt x="692" y="-53" on="0"/>
        <pt x="558" y="-5" on="1"/>
        <pt x="362" y="64" on="0"/>
        <pt x="362" y="223" on="1"/>
        <pt x="362" y="260" on="0"/>
        <pt x="412" y="338" on="1"/>
        <pt x="452" y="401" on="0"/>
        <pt x="478" y="428" on="1"/>
        <pt x="515" y="428" on="0"/>
        <pt x="515" y="402" on="1"/>
        <pt x="515" y="392" on="0"/>
        <pt x="474" y="304" on="0"/>
        <pt x="474" y="290" on="1"/>
        <pt x="474" y="190" on="0"/>
        <pt x="622" y="131" on="1"/>
        <pt x="725" y="90" on="0"/>
        <pt x="797" y="90" on="1"/>
        <pt x="940" y="90" on="1"/>
        <pt x="1153" y="90" on="0"/>
        <pt x="1358" y="174" on="1"/>
        <pt x="1384" y="184" on="0"/>
        <pt x="1429" y="224" on="1"/>
        <pt x="1490" y="279" on="0"/>
        <pt x="1497" y="283" on="1"/>
        <pt x="1485" y="255" on="0"/>
        <pt x="1485" y="230" on="1"/>
        <pt x="1485" y="160" on="0"/>
        <pt x="1575" y="125" on="1"/>
        <pt x="1638" y="100" on="0"/>
        <pt x="1714" y="100" on="1"/>
        <pt x="1800" y="100" on="0"/>
        <pt x="1932" y="120" on="1"/>
        <pt x="2081" y="142" on="0"/>
        <pt x="2123" y="167" on="1"/>
        <pt x="2047" y="248" on="0"/>
        <pt x="1892" y="248" on="1"/>
        <pt x="1869" y="248" on="0"/>
        <pt x="1848" y="245" on="1"/>
        <pt x="1868" y="344" on="0"/>
        <pt x="2024" y="399" on="1"/>
        <pt x="2094" y="423" on="0"/>
        <pt x="2163" y="446" on="1"/>
        <pt x="2244" y="474" on="0"/>
        <pt x="2299" y="511" on="1"/>
        <pt x="2329" y="537" on="0"/>
        <pt x="2359" y="564" on="1"/>
        <pt x="2404" y="602" on="0"/>
        <pt x="2430" y="602" on="1"/>
        <pt x="2460" y="602" on="0"/>
        <pt x="2550" y="479" on="0"/>
        <pt x="2589" y="479" on="1"/>
        <pt x="2634" y="479" on="0"/>
        <pt x="2991" y="735" on="0"/>
        <pt x="3080" y="735" on="1"/>
        <pt x="3139" y="735" on="0"/>
        <pt x="3260" y="644" on="0"/>
      </contour>
      <contour>
        <pt x="1190" y="1352" on="1"/>
        <pt x="1151" y="1303" on="0"/>
        <pt x="981" y="1212" on="1"/>
        <pt x="822" y="1127" on="0"/>
        <pt x="663" y="1042" on="1"/>
        <pt x="649" y="1057" on="0"/>
        <pt x="649" y="1073" on="1"/>
        <pt x="649" y="1117" on="0"/>
        <pt x="684" y="1140" on="1"/>
        <pt x="786" y="1208" on="0"/>
        <pt x="1117" y="1390" on="0"/>
        <pt x="1136" y="1389" on="1"/>
        <pt x="1190" y="1389" on="1"/>
      </contour>
      <contour>
        <pt x="1017" y="-227" on="1"/>
        <pt x="1017" y="-259" on="0"/>
        <pt x="980" y="-296" on="1"/>
        <pt x="949" y="-330" on="0"/>
        <pt x="935" y="-330" on="1"/>
        <pt x="917" y="-330" on="0"/>
        <pt x="843" y="-264" on="0"/>
        <pt x="843" y="-248" on="1"/>
        <pt x="843" y="-229" on="0"/>
        <pt x="910" y="-145" on="0"/>
        <pt x="931" y="-145" on="1"/>
        <pt x="949" y="-145" on="0"/>
        <pt x="1017" y="-208" on="0"/>
      </contour>
      <contour>
        <pt x="3126" y="511" on="1"/>
        <pt x="3126" y="539" on="1"/>
        <pt x="3036" y="582" on="0"/>
        <pt x="3003" y="582" on="1"/>
        <pt x="2940" y="582" on="0"/>
        <pt x="2883" y="540" on="1"/>
        <pt x="2820" y="491" on="0"/>
        <pt x="2758" y="442" on="1"/>
        <pt x="2876" y="428" on="1"/>
        <pt x="2938" y="440" on="0"/>
        <pt x="3000" y="452" on="1"/>
        <pt x="3076" y="468" on="0"/>
      </contour>
    </TTGlyph>
    <TTGlyph name="uniFB55" xMin="192" yMin="-578" xMax="2618" yMax="1665">
      <contour>
        <pt x="2618" y="1409" on="1"/>
        <pt x="2618" y="1322" on="0"/>
        <pt x="2505" y="1248" on="1"/>
        <pt x="2408" y="1184" on="0"/>
        <pt x="2337" y="1184" on="1"/>
        <pt x="2324" y="1184" on="0"/>
        <pt x="2308" y="1194" on="0"/>
        <pt x="2296" y="1194" on="1"/>
        <pt x="2253" y="1194" on="0"/>
        <pt x="2238" y="1173" on="1"/>
        <pt x="2217" y="1144" on="0"/>
        <pt x="2189" y="1133" on="1"/>
        <pt x="2189" y="1167" on="1"/>
        <pt x="2187" y="1204" on="0"/>
        <pt x="2253" y="1271" on="1"/>
        <pt x="2281" y="1278" on="0"/>
        <pt x="2333" y="1307" on="1"/>
        <pt x="2360" y="1331" on="0"/>
        <pt x="2394" y="1380" on="1"/>
        <pt x="2435" y="1439" on="0"/>
        <pt x="2448" y="1454" on="1"/>
        <pt x="2489" y="1501" on="0"/>
        <pt x="2536" y="1501" on="1"/>
        <pt x="2564" y="1501" on="0"/>
        <pt x="2594" y="1457" on="1"/>
        <pt x="2618" y="1421" on="0"/>
      </contour>
      <contour>
        <pt x="1748" y="1639" on="1"/>
        <pt x="1748" y="1593" on="0"/>
        <pt x="1704" y="1565" on="1"/>
        <pt x="1636" y="1524" on="0"/>
        <pt x="1479" y="1447" on="1"/>
        <pt x="1427" y="1416" on="0"/>
        <pt x="1377" y="1387" on="1"/>
        <pt x="1313" y="1350" on="0"/>
        <pt x="1275" y="1350" on="1"/>
        <pt x="1259" y="1350" on="0"/>
        <pt x="1246" y="1356" on="1"/>
        <pt x="1248" y="1358" on="0"/>
        <pt x="1259" y="1407" on="1"/>
        <pt x="1493" y="1564" on="0"/>
        <pt x="1734" y="1665" on="1"/>
        <pt x="1748" y="1663" on="0"/>
      </contour>
      <contour>
        <pt x="2485" y="247" on="1"/>
        <pt x="2465" y="109" on="0"/>
        <pt x="2442" y="28" on="1"/>
        <pt x="2405" y="28" on="1"/>
        <pt x="2269" y="958" on="1"/>
        <pt x="2279" y="1000" on="0"/>
        <pt x="2289" y="1041" on="1"/>
        <pt x="2308" y="1096" on="0"/>
        <pt x="2349" y="1111" on="1"/>
      </contour>
      <contour>
        <pt x="1645" y="1214" on="1"/>
        <pt x="1645" y="1126" on="0"/>
        <pt x="1588" y="1085" on="1"/>
        <pt x="1547" y="1055" on="0"/>
        <pt x="1468" y="1026" on="1"/>
        <pt x="1397" y="999" on="0"/>
        <pt x="1374" y="999" on="1"/>
        <pt x="1345" y="999" on="0"/>
        <pt x="1324" y="1033" on="1"/>
        <pt x="1308" y="1061" on="0"/>
        <pt x="1308" y="1086" on="1"/>
        <pt x="1308" y="1136" on="0"/>
        <pt x="1365" y="1194" on="1"/>
        <pt x="1374" y="1164" on="0"/>
        <pt x="1381" y="1150" on="1"/>
        <pt x="1395" y="1126" on="0"/>
        <pt x="1415" y="1112" on="1"/>
        <pt x="1444" y="1129" on="0"/>
        <pt x="1458" y="1183" on="1"/>
        <pt x="1471" y="1234" on="0"/>
        <pt x="1498" y="1245" on="1"/>
        <pt x="1509" y="1233" on="0"/>
        <pt x="1513" y="1210" on="1"/>
        <pt x="1519" y="1178" on="0"/>
        <pt x="1522" y="1171" on="1"/>
        <pt x="1530" y="1163" on="0"/>
        <pt x="1543" y="1163" on="1"/>
        <pt x="1563" y="1163" on="0"/>
        <pt x="1581" y="1190" on="1"/>
        <pt x="1585" y="1242" on="0"/>
        <pt x="1632" y="1285" on="1"/>
        <pt x="1632" y="1275" on="0"/>
        <pt x="1645" y="1228" on="0"/>
      </contour>
      <contour>
        <pt x="1676" y="559" on="1"/>
        <pt x="1676" y="528" on="0"/>
        <pt x="1630" y="467" on="0"/>
        <pt x="1599" y="467" on="1"/>
        <pt x="1576" y="467" on="0"/>
        <pt x="1536" y="492" on="1"/>
        <pt x="1492" y="521" on="0"/>
        <pt x="1492" y="549" on="1"/>
        <pt x="1492" y="570" on="0"/>
        <pt x="1517" y="608" on="1"/>
        <pt x="1546" y="651" on="0"/>
        <pt x="1574" y="651" on="1"/>
        <pt x="1603" y="651" on="0"/>
        <pt x="1640" y="615" on="1"/>
        <pt x="1676" y="582" on="0"/>
      </contour>
      <contour>
        <pt x="2075" y="272" on="1"/>
        <pt x="2071" y="235" on="0"/>
        <pt x="2061" y="174" on="1"/>
        <pt x="2013" y="-4" on="0"/>
        <pt x="1845" y="-4" on="1"/>
        <pt x="1804" y="-4" on="0"/>
        <pt x="1762" y="9" on="1"/>
        <pt x="1750" y="12" on="0"/>
        <pt x="1714" y="36" on="1"/>
        <pt x="1683" y="57" on="0"/>
        <pt x="1666" y="57" on="1"/>
        <pt x="1657" y="57" on="0"/>
        <pt x="1603" y="29" on="1"/>
        <pt x="1544" y="-4" on="0"/>
        <pt x="1519" y="-11" on="1"/>
        <pt x="1442" y="-35" on="0"/>
        <pt x="1374" y="-35" on="1"/>
        <pt x="1363" y="-35" on="0"/>
        <pt x="1257" y="-21" on="0"/>
        <pt x="1238" y="-21" on="1"/>
        <pt x="1214" y="2" on="0"/>
        <pt x="1177" y="49" on="1"/>
        <pt x="1144" y="106" on="0"/>
        <pt x="1137" y="181" on="1"/>
        <pt x="1133" y="239" on="0"/>
        <pt x="1129" y="297" on="1"/>
        <pt x="1113" y="436" on="0"/>
        <pt x="1078" y="707" on="1"/>
        <pt x="1073" y="745" on="0"/>
        <pt x="1051" y="877" on="1"/>
        <pt x="1031" y="990" on="0"/>
        <pt x="1031" y="1004" on="1"/>
        <pt x="1031" y="1045" on="0"/>
        <pt x="1074" y="1131" on="1"/>
        <pt x="1111" y="1131" on="1"/>
        <pt x="1151" y="816" on="0"/>
        <pt x="1249" y="197" on="1"/>
        <pt x="1255" y="165" on="0"/>
        <pt x="1304" y="141" on="1"/>
        <pt x="1352" y="119" on="0"/>
        <pt x="1420" y="119" on="1"/>
        <pt x="1495" y="119" on="0"/>
        <pt x="1702" y="211" on="0"/>
        <pt x="1712" y="211" on="1"/>
        <pt x="1725" y="211" on="0"/>
        <pt x="1893" y="149" on="0"/>
        <pt x="1907" y="149" on="1"/>
        <pt x="1918" y="149" on="0"/>
        <pt x="1945" y="166" on="1"/>
        <pt x="1975" y="184" on="0"/>
        <pt x="1983" y="202" on="1"/>
        <pt x="1839" y="999" on="1"/>
        <pt x="1853" y="1115" on="0"/>
        <pt x="1926" y="1194" on="1"/>
        <pt x="1954" y="1179" on="0"/>
        <pt x="1958" y="1100" on="1"/>
        <pt x="1961" y="1032" on="0"/>
        <pt x="2034" y="1028" on="1"/>
        <pt x="2034" y="982" on="1"/>
        <pt x="2034" y="970" on="0"/>
        <pt x="2012" y="923" on="1"/>
        <pt x="1988" y="869" on="0"/>
        <pt x="1983" y="850" on="1"/>
      </contour>
      <contour>
        <pt x="928" y="185" on="1"/>
        <pt x="928" y="33" on="0"/>
        <pt x="796" y="-122" on="1"/>
        <pt x="667" y="-270" on="0"/>
        <pt x="555" y="-270" on="1"/>
        <pt x="408" y="-270" on="0"/>
        <pt x="277" y="-247" on="1"/>
        <pt x="246" y="-241" on="0"/>
        <pt x="192" y="-205" on="1"/>
        <pt x="202" y="-179" on="0"/>
        <pt x="253" y="-179" on="1"/>
        <pt x="273" y="-179" on="0"/>
        <pt x="352" y="-188" on="0"/>
        <pt x="366" y="-188" on="1"/>
        <pt x="409" y="-188" on="0"/>
        <pt x="462" y="-176" on="1"/>
        <pt x="559" y="-152" on="0"/>
        <pt x="634" y="-95" on="1"/>
        <pt x="693" y="-49" on="0"/>
        <pt x="761" y="21" on="1"/>
        <pt x="857" y="122" on="0"/>
        <pt x="857" y="170" on="1"/>
        <pt x="857" y="181" on="0"/>
        <pt x="703" y="356" on="0"/>
        <pt x="703" y="369" on="1"/>
        <pt x="703" y="410" on="0"/>
        <pt x="737" y="466" on="1"/>
        <pt x="769" y="466" on="1"/>
        <pt x="784" y="467" on="0"/>
        <pt x="828" y="421" on="1"/>
        <pt x="869" y="378" on="0"/>
        <pt x="893" y="342" on="1"/>
        <pt x="928" y="287" on="0"/>
      </contour>
      <contour>
        <pt x="867" y="-347" on="1"/>
        <pt x="867" y="-403" on="0"/>
        <pt x="660" y="-495" on="1"/>
        <pt x="473" y="-578" on="0"/>
        <pt x="441" y="-576" on="1"/>
        <pt x="397" y="-576" on="1"/>
        <pt x="397" y="-532" on="1"/>
        <pt x="397" y="-498" on="0"/>
        <pt x="520" y="-453" on="1"/>
        <pt x="598" y="-427" on="0"/>
        <pt x="675" y="-401" on="1"/>
        <pt x="734" y="-371" on="0"/>
        <pt x="854" y="-321" on="1"/>
        <pt x="867" y="-323" on="0"/>
      </contour>
      <contour>
        <pt x="2515" y="1365" on="1"/>
        <pt x="2458" y="1378" on="1"/>
        <pt x="2433" y="1352" on="0"/>
        <pt x="2414" y="1307" on="1"/>
        <pt x="2451" y="1307" on="1"/>
        <pt x="2478" y="1326" on="0"/>
      </contour>
    </TTGlyph>
    <TTGlyph name="uniFB56" xMin="280" yMin="-170" xMax="1356" yMax="1642">
      <contour>
        <pt x="1356" y="1606" on="1"/>
        <pt x="1347" y="1586" on="0"/>
        <pt x="1319" y="1553" on="1"/>
        <pt x="1258" y="1516" on="0"/>
        <pt x="860" y="1305" on="1"/>
        <pt x="814" y="1305" on="1"/>
        <pt x="814" y="1309" on="0"/>
        <pt x="803" y="1321" on="0"/>
        <pt x="803" y="1335" on="1"/>
        <pt x="803" y="1378" on="0"/>
        <pt x="1021" y="1490" on="1"/>
        <pt x="1110" y="1537" on="0"/>
        <pt x="1320" y="1642" on="1"/>
        <pt x="1325" y="1637" on="0"/>
        <pt x="1351" y="1611" on="0"/>
      </contour>
      <contour>
        <pt x="1304" y="1156" on="1"/>
        <pt x="1304" y="1119" on="0"/>
        <pt x="1150" y="1066" on="1"/>
        <pt x="1070" y="1042" on="0"/>
        <pt x="990" y="1018" on="1"/>
        <pt x="981" y="1033" on="0"/>
        <pt x="994" y="1083" on="1"/>
        <pt x="991" y="1087" on="0"/>
        <pt x="959" y="1119" on="1"/>
        <pt x="935" y="1142" on="0"/>
        <pt x="935" y="1156" on="1"/>
        <pt x="935" y="1189" on="0"/>
        <pt x="1021" y="1259" on="1"/>
        <pt x="1102" y="1325" on="0"/>
        <pt x="1120" y="1325" on="1"/>
        <pt x="1140" y="1325" on="0"/>
        <pt x="1202" y="1276" on="0"/>
        <pt x="1202" y="1258" on="1"/>
        <pt x="1202" y="1239" on="0"/>
        <pt x="1164" y="1192" on="0"/>
        <pt x="1146" y="1192" on="1"/>
        <pt x="1134" y="1192" on="0"/>
        <pt x="1084" y="1215" on="0"/>
        <pt x="1068" y="1215" on="1"/>
        <pt x="1109" y="1171" on="0"/>
        <pt x="1197" y="1171" on="1"/>
        <pt x="1256" y="1171" on="0"/>
        <pt x="1291" y="1181" on="1"/>
        <pt x="1304" y="1180" on="0"/>
      </contour>
      <contour>
        <pt x="1284" y="229" on="1"/>
        <pt x="1284" y="68" on="0"/>
        <pt x="1251" y="15" on="1"/>
        <pt x="1222" y="15" on="0"/>
        <pt x="1205" y="39" on="1"/>
        <pt x="1204" y="109" on="0"/>
        <pt x="1194" y="244" on="1"/>
        <pt x="1178" y="360" on="0"/>
        <pt x="1130" y="643" on="1"/>
        <pt x="1089" y="889" on="0"/>
        <pt x="1089" y="899" on="1"/>
        <pt x="1089" y="972" on="0"/>
        <pt x="1143" y="1058" on="1"/>
        <pt x="1162" y="1058" on="0"/>
        <pt x="1177" y="1035" on="1"/>
        <pt x="1181" y="969" on="0"/>
        <pt x="1194" y="839" on="1"/>
        <pt x="1216" y="761" on="0"/>
        <pt x="1249" y="593" on="1"/>
        <pt x="1284" y="356" on="0"/>
      </contour>
      <contour>
        <pt x="669" y="719" on="1"/>
        <pt x="669" y="682" on="0"/>
        <pt x="651" y="644" on="1"/>
        <pt x="630" y="598" on="0"/>
        <pt x="598" y="598" on="1"/>
        <pt x="576" y="598" on="0"/>
        <pt x="485" y="654" on="0"/>
        <pt x="485" y="669" on="1"/>
        <pt x="485" y="695" on="0"/>
        <pt x="511" y="736" on="1"/>
        <pt x="540" y="782" on="0"/>
        <pt x="567" y="782" on="1"/>
        <pt x="582" y="782" on="0"/>
        <pt x="616" y="758" on="1"/>
        <pt x="642" y="739" on="0"/>
      </contour>
      <contour>
        <pt x="987" y="168" on="1"/>
        <pt x="987" y="102" on="0"/>
        <pt x="983" y="83" on="1"/>
        <pt x="973" y="38" on="0"/>
        <pt x="931" y="-22" on="1"/>
        <pt x="912" y="-48" on="0"/>
        <pt x="812" y="-106" on="1"/>
        <pt x="703" y="-170" on="0"/>
        <pt x="653" y="-170" on="1"/>
        <pt x="563" y="-170" on="1"/>
        <pt x="454" y="-170" on="0"/>
        <pt x="372" y="-106" on="1"/>
        <pt x="280" y="-36" on="0"/>
        <pt x="280" y="70" on="1"/>
        <pt x="280" y="199" on="0"/>
        <pt x="406" y="330" on="1"/>
        <pt x="443" y="330" on="1"/>
        <pt x="434" y="296" on="0"/>
        <pt x="405" y="216" on="1"/>
        <pt x="382" y="156" on="0"/>
        <pt x="382" y="143" on="1"/>
        <pt x="382" y="57" on="0"/>
        <pt x="468" y="15" on="1"/>
        <pt x="531" y="-16" on="0"/>
        <pt x="613" y="-16" on="1"/>
        <pt x="681" y="-16" on="0"/>
        <pt x="776" y="14" on="1"/>
        <pt x="905" y="56" on="0"/>
        <pt x="905" y="122" on="1"/>
        <pt x="905" y="174" on="0"/>
        <pt x="871" y="253" on="1"/>
        <pt x="867" y="263" on="0"/>
        <pt x="824" y="348" on="1"/>
        <pt x="792" y="412" on="0"/>
        <pt x="792" y="424" on="1"/>
        <pt x="792" y="416" on="0"/>
        <pt x="825" y="515" on="1"/>
        <pt x="862" y="515" on="1"/>
        <pt x="987" y="349" on="0"/>
      </contour>
    </TTGlyph>
    <TTGlyph name="uniFB57" xMin="312" yMin="-45" xMax="1438" yMax="1644">
      <contour>
        <pt x="1429" y="1608" on="1"/>
        <pt x="1429" y="1539" on="0"/>
        <pt x="921" y="1286" on="1"/>
        <pt x="907" y="1298" on="1"/>
        <pt x="907" y="1357" on="1"/>
        <pt x="1078" y="1454" on="0"/>
        <pt x="1414" y="1644" on="1"/>
        <pt x="1429" y="1629" on="0"/>
      </contour>
      <contour>
        <pt x="1275" y="1061" on="1"/>
        <pt x="1275" y="1023" on="0"/>
        <pt x="1240" y="994" on="1"/>
        <pt x="1211" y="968" on="0"/>
        <pt x="1188" y="968" on="1"/>
        <pt x="1176" y="968" on="0"/>
        <pt x="1133" y="989" on="0"/>
        <pt x="1121" y="989" on="1"/>
        <pt x="1108" y="989" on="0"/>
        <pt x="1031" y="927" on="0"/>
        <pt x="1019" y="927" on="1"/>
        <pt x="989" y="927" on="0"/>
        <pt x="952" y="961" on="1"/>
        <pt x="917" y="992" on="0"/>
        <pt x="917" y="1009" on="1"/>
        <pt x="917" y="1046" on="0"/>
        <pt x="960" y="1077" on="1"/>
        <pt x="994" y="1102" on="0"/>
        <pt x="1008" y="1102" on="1"/>
        <pt x="1020" y="1102" on="0"/>
        <pt x="1062" y="1081" on="0"/>
        <pt x="1075" y="1081" on="1"/>
        <pt x="1088" y="1081" on="0"/>
        <pt x="1165" y="1143" on="0"/>
        <pt x="1177" y="1143" on="1"/>
        <pt x="1209" y="1143" on="0"/>
        <pt x="1275" y="1082" on="0"/>
      </contour>
      <contour>
        <pt x="876" y="1470" on="1"/>
        <pt x="876" y="1414" on="0"/>
        <pt x="736" y="1338" on="1"/>
        <pt x="636" y="1283" on="0"/>
        <pt x="574" y="1266" on="1"/>
        <pt x="543" y="1266" on="0"/>
        <pt x="497" y="1278" on="0"/>
        <pt x="497" y="1278" on="1"/>
        <pt x="512" y="1314" on="0"/>
        <pt x="575" y="1343" on="1"/>
        <pt x="649" y="1376" on="0"/>
        <pt x="671" y="1404" on="1"/>
        <pt x="640" y="1450" on="0"/>
        <pt x="594" y="1450" on="1"/>
        <pt x="555" y="1450" on="0"/>
        <pt x="483" y="1379" on="1"/>
        <pt x="446" y="1379" on="1"/>
        <pt x="450" y="1431" on="0"/>
        <pt x="586" y="1552" on="0"/>
        <pt x="640" y="1552" on="1"/>
        <pt x="681" y="1552" on="0"/>
        <pt x="863" y="1500" on="1"/>
        <pt x="876" y="1488" on="0"/>
      </contour>
      <contour>
        <pt x="1438" y="216" on="1"/>
        <pt x="1438" y="83" on="0"/>
        <pt x="1328" y="11" on="1"/>
        <pt x="1239" y="-45" on="0"/>
        <pt x="1121" y="-45" on="1"/>
        <pt x="1026" y="-45" on="0"/>
        <pt x="974" y="-4" on="1"/>
        <pt x="929" y="31" on="0"/>
        <pt x="859" y="149" on="1"/>
        <pt x="713" y="-14" on="0"/>
        <pt x="471" y="-14" on="1"/>
        <pt x="312" y="-14" on="0"/>
        <pt x="312" y="57" on="1"/>
        <pt x="312" y="83" on="0"/>
        <pt x="344" y="129" on="1"/>
        <pt x="372" y="170" on="0"/>
        <pt x="389" y="180" on="1"/>
        <pt x="442" y="139" on="0"/>
        <pt x="532" y="139" on="1"/>
        <pt x="621" y="139" on="0"/>
        <pt x="709" y="174" on="1"/>
        <pt x="824" y="220" on="0"/>
        <pt x="824" y="298" on="1"/>
        <pt x="824" y="308" on="0"/>
        <pt x="783" y="591" on="0"/>
        <pt x="783" y="605" on="1"/>
        <pt x="783" y="727" on="0"/>
        <pt x="831" y="743" on="1"/>
        <pt x="862" y="682" on="0"/>
        <pt x="892" y="495" on="1"/>
        <pt x="923" y="306" on="0"/>
        <pt x="959" y="231" on="1"/>
        <pt x="1019" y="108" on="0"/>
        <pt x="1142" y="108" on="1"/>
        <pt x="1191" y="108" on="0"/>
        <pt x="1267" y="137" on="1"/>
        <pt x="1356" y="169" on="0"/>
        <pt x="1356" y="206" on="1"/>
        <pt x="1356" y="237" on="0"/>
        <pt x="1320" y="272" on="1"/>
        <pt x="1295" y="244" on="0"/>
        <pt x="1242" y="190" on="0"/>
        <pt x="1203" y="190" on="1"/>
        <pt x="1148" y="190" on="0"/>
        <pt x="1107" y="246" on="1"/>
        <pt x="1070" y="297" on="0"/>
        <pt x="1070" y="354" on="1"/>
        <pt x="1070" y="421" on="0"/>
        <pt x="1100" y="490" on="1"/>
        <pt x="1139" y="579" on="0"/>
        <pt x="1203" y="579" on="1"/>
        <pt x="1318" y="579" on="0"/>
        <pt x="1388" y="421" on="1"/>
        <pt x="1438" y="306" on="0"/>
      </contour>
      <contour>
        <pt x="1253" y="366" on="1"/>
        <pt x="1245" y="390" on="0"/>
        <pt x="1201" y="436" on="0"/>
        <pt x="1185" y="436" on="1"/>
        <pt x="1162" y="412" on="0"/>
        <pt x="1162" y="388" on="1"/>
        <pt x="1196" y="354" on="0"/>
        <pt x="1218" y="354" on="1"/>
        <pt x="1233" y="354" on="0"/>
        <pt x="1250" y="366" on="0"/>
      </contour>
    </TTGlyph>
</ttFont>
